<ttFont>
          <CharString index="0">
            43 566 303 rmoveto
            22 -9 22 21 9 3 7 8 vvcurveto
            7 -5 5 -1 6 vhcurveto
            -3 14 4 22 -11 10 rrcurveto
            1 -46 callsubr
            3 vvcurveto
            5 -7 51 -2 5 vhcurveto
            -6 6 -13 66 rlineto
            -29 callgsubr
            -2 7 vhcurveto
            -2 7 -8 8 -3 8 -4 9 0 11 -5 9 -7 10 -16 8 -3 11 rrcurveto
            1 -6 -6 1 -6 hhcurveto
            -15 -14 -6 -9 -11 hvcurveto
            -3 -5 -1 -47 callsubr
            -1 -6 vhcurveto
            -8 -6 -6 -8 -6 7 -3 -9 vvcurveto
            -32 7 -45 18 -28 vhcurveto
            -6 -23 16 -20 -21 -8 -6 -7 -8 vvcurveto
            4 -11 5 -14 -12 -11 -3 -10 -11 -8 7 -2 -7 -6 -13 callgsubr
            -11 7 -10 -11 -19 -16 -14 -19 -9 6 -7 -9 vvcurveto
            -1 -18 -57 -1 -4 vhcurveto
            -23 -20 -11 -32 -28 -16 -9 -5 -11 0 -9 -4 rrcurveto
            -7 -13 11 -6 -27 hhcurveto
            -26 -9 5 11 -23 hvcurveto
            -54 callsubr
            -1 -54 callsubr
            3 -7 11 -4 5 -27 39 -11 24 -7 47 rrcurveto
            -3 23 -7 24 24 15 callgsubr
            19 -7 19 19 19 13 18 18 10 -6 9 10 8 3 8 8 38 10 30 28 vvcurveto
            25 -10 31 -19 16 vhcurveto
            3 -5 -11 10 -6 hhcurveto
            -11 16 callsubr
            hvcurveto
            -3 -14 -6 -12 -4 -13 rrcurveto
            1 -6 -16 -32 -17 vvcurveto
            -6 1 -7 1 -6 vhcurveto
            -13 -26 rlineto
            3 -39 callsubr
            -5 -12 -7 -11 -12 -14 3 -15 -14 -17 -2 -16 -17 vvcurveto
            -7 1 -7 1 -7 vhcurveto
            -5 -14 -8 -8 -16 vvcurveto
            -13 4 -12 6 -11 vhcurveto
            -4 -13 callsubr
            -5 -8 6 -8 -8 -7 -3 -8 -7 vvcurveto
            -35 14 -22 11 -30 vhcurveto
            5 -13 0 -14 5 -12 2 -5 27 -43 3 -4 24 -26 40 -11 20 -21 rrcurveto
            4 29 12 -23 19 -22 callgsubr
            7 6 -3 7 15 15 6 15 hhcurveto
            7 6 6 callsubr
            10 18 17 6 21 -48 callgsubr
            17 16 19 14 13 19 10 16 14 13 14 13 -2 7 2 8 7 4 rrcurveto
            2 vlineto
            16 3 -9 6 10 vhcurveto
            3 5 -2 -38 callgsubr
            rrcurveto
            8 21 11 17 23 vvcurveto
            -38 callsubr
            2 10 vhcurveto
            2 11 8 10 3 11 rrcurveto
            4 16 5 24 17 vvcurveto
            return
          </CharString>
          <CharString index="1">
            8 520 15 rmoveto
            14 -7 13 13 vvcurveto
            4 2 5 2 4 vhcurveto
            8 -4 10 9 vvcurveto
            55 6 84 -15 50 vhcurveto
            3 7 1 8 7 16 -4 16 16 14 3 14 15 13 -3 12 13 14 3 14 13 vvcurveto
            24 -13 20 -6 22 vhcurveto
            -16 8 -22 -1 -17 2 -6 -3 5 -5 -19 -8 rrcurveto
            -5 -8 -9 -31 -11 -12 2 -12 -12 -27 -20 -22 -10 vvcurveto
            -9 callgsubr
            2 -1 vhcurveto
            1 -24 callsubr
            -1 -4 -2 -24 -4 -45 -10 -21 -6 -4 rcurveline
            -1 -2 -5 callgsubr
            -6 3 -8 -5 -7 vhcurveto
            -16 -21 0 -19 -9 -24 -6 -14 -11 -11 -6 -14 1 -11 -12 1 -2 -9 rrcurveto
            -21 -14 -33 -66 -27 hhcurveto
            -9 -9 6 4 -8 hvcurveto
            -30 12 4 13 -6 26 rrcurveto
            -2 8 -8 22 6 -32 callsubr
            vvcurveto
            5 -46 callgsubr
            4 vhcurveto
            -3 21 -3 25 21 vvcurveto
            9 68 2 9 6 8 2 9 rlinecurve
            8 31 3 36 12 30 rrcurveto
            18 44 13 -19 70 vvcurveto
            30 -43 17 -26 -5 -2 -36 callsubr
            vhcurveto
            -47 -19 18 -29 -29 -26 2 -15 2 -15 -4 -15 -2 -10 -8 -7 -3 -9 -3 -14 4 -14 -4 -14 -2 -8 -9 -6 -2 -8 rrcurveto
            2 -5 1 -5 -6 -17 -9 -16 -16 vvcurveto
            -2 1 -3 2 -1 vhcurveto
            -2 -18 -8 -16 -18 -13 7 -11 -13 -15 -10 -13 -15 vvcurveto
            -16 14 -14 5 -16 vhcurveto
            5 -13 -2 -15 4 -14 3 -8 7 -6 3 -8 3 -10 0 -10 3 -9 15 -11 18 -21 16 -7 rrcurveto
            -7 15 42 -7 17 hhcurveto
            16 23 0 4 16 hvcurveto
            5 2 5 6 6 2 28 12 14 6 16 27 5 10 6 11 8 8 5 5 8 6 -57 callsubr
            7 0 9 3 7 6 14 7 14 6 14 3 7 -2 13 12 -1 rrcurveto
            -15 vlineto
            1 -25 -3 -26 -25 vvcurveto
            -34 5 -30 20 -29 vhcurveto
            -3 9 10 -2 9 hhcurveto
            17 17 4 8 15 hvcurveto
            7 19 6 20 21 vvcurveto
            return
          </CharString>
          <CharString index="2">
            -9 5 -4 9 -11 -45 callgsubr
            rcurveline
            12 -6 -9 5 -12 -14 -14 -11 -16 -14 -13 1 -14 hhcurveto
            -1 -43 -44 -8 -75 callsubr
            -2 7 1 8 5 9 28 -16 14 8 7 3 8 15 14 -3 14 19 16 13 17 hhcurveto
            4 5 -1 1 5 hvcurveto
            17 6 36 26 21 13 -10 11 13 vvcurveto
            2 -16 -12 18 -17 -10 -7 -7 -9 -6 -3 4 -3 -7 -6 -4 -6 -27 -24 10 -26 -16 -17 -5 -16 hhcurveto
            -5 -5 1 -25 callgsubr
            -13 19 6 29 -2 23 rrcurveto
            -1 12 -6 11 12 vvcurveto
            5 1 4 3 4 vhcurveto
            2 33 31 11 34 hhcurveto
            10 9 -1 -2 10 hvcurveto
            5 17 7 8 20 hhcurveto
            25 24 5 -2 24 hvcurveto
            7 hlineto
            18 23 30 -8 44 vvcurveto
            13 -4 12 -3 13 vhcurveto
            4 -18 -19 7 -19 hhcurveto
            -5 -6 0 -2 -4 hvcurveto
            2 -1 -3 4 -2 -24 callsubr
            -3 hhcurveto
            -9 -52 -55 -5 -52 -28 -8 -9 -18 -9 -11 3 -10 hhcurveto
            -17 -15 -10 -3 -18 hvcurveto
            -7 -20 -15 -57 -20 -34 9 -33 -34 vvcurveto
            -7 0 -7 callsubr
            vhcurveto
            -2 hlineto
            -7 -13 2 -5 -6 hvcurveto
            2 -10 -9 1 -6 -4 -2 -22 -14 -18 1 -22 rrcurveto
            -6 vlineto
            9 -8 7 -11 12 -3 rrcurveto
            -4 3 5 0 4 hhcurveto
            4 15 1 -7 -37 1 -30 -7 -36 hvcurveto
            3 -9 5 -8 1 -9 rrcurveto
            -45 callgsubr
            -44 -4 -9 5 -8 -9 -7 -3 -7 -7 vvcurveto
            -10 19 -61 3 -15 vhcurveto
            -74 callgsubr
            return
          </CharString>
          <CharString index="3">
            rmoveto
            13 -11 10 -1 13 vhcurveto
            -13 4 -9 7 -14 -1 rrcurveto
            -6 hlineto
            1 -6 -8 0 -3 -4 -11 -13 -1 -30 -29 -4 rrcurveto
            -7 -6 -2 -2 -6 vhcurveto
            -14 4 -6 14 -3 12 rrcurveto
            16 -23 -2 27 -35 -4 -3 -1 -3 hhcurveto
            -9 -8 -5 -9 -13 vvcurveto
            -8 2 -8 2 -8 vhcurveto
            8 -5 2 -12 2 -9 23 -14 13 -22 6 -26 10 -1 -1 -14 6 -5 rrcurveto
            -1 2 25 -5 1 hhcurveto
            15 9 18 3 15 hvcurveto
            3 8 8 5 2 8 rrcurveto
            8 5 7 8 hhcurveto
            2 vlineto
            -1 4 5 1 -2 6 8 10 9 9 11 5 rrcurveto
            4 12 12 -33 callgsubr
          </CharString>
          <CharString index="4">
            rmoveto
            4 -9 13 -1 6 vhcurveto
            -4 17 -3 41 18 13 7 12 14 17 3 16 17 vvcurveto
            6 -33 57 -5 4 vhcurveto
            3 -11 -11 2 -11 hhcurveto
            -16 -15 -4 -7 -14 hvcurveto
            -8 -15 -8 -13 -18 -11 7 -10 -12 -14 -10 -19 -4 vvcurveto
            -11 10 -6 3 -9 vhcurveto
            -2 -7 -1 -7 -7 vvcurveto
            -20 4 -20 -5 -20 vhcurveto
            11 -15 3 -24 -18 vvcurveto
            -15 -2 -18 -8 -13 vhcurveto
            4 -6 2 -7 -8 -9 -3 -9 -9 vvcurveto
            -10 5 -7 1 -9 vhcurveto
            3 -15 1 -16 -15 -28 -17 -25 -25 -7 4 -5 -6 -7 -4 -6 -7 -7 7 -8 -9 -4 -3 -3 -4 vvcurveto
            -6 9 -28 4 -5 vhcurveto
            -11 7 46 -25 13 hhcurveto
            18 24 13 20 hvcurveto
            10 -2 9 10 -22 callsubr
            vvcurveto
            14 -3 15 6 13 vhcurveto
            -6 13 -1 16 15 29 -1 29 28 vvcurveto
            8 1 7 4 7 vhcurveto
            -4 8 -2 8 9 15 6 15 14 7 -3 7 7 21 10 20 20 vvcurveto
            return
          </CharString>
          <CharString index="5">
            rmoveto
            -9 13 -3 15 15 15 2 14 15 11 -10 1 11 7 3 6 8 vvcurveto
            27 -21 21 -4 27 vhcurveto
            -9 7 -7 8 -4 11 -16 5 -10 17 -15 7 -5 2 -4 0 -4 1 rrcurveto
            8 -21 -12 10 -24 hhcurveto
            -20 -59 -16 -12 -16 hvcurveto
            -12 -9 -4 -17 -13 -9 -15 -3 -10 -12 -14 -4 rrcurveto
            27 -7 25 -9 25 vhcurveto
            5 -14 -11 11 -17 -6 -5 -4 -7 -1 -46 callgsubr
            hhcurveto
            -22 -21 -18 -29 -31 -16 11 -13 -15 -20 -10 -17 -20 -14 3 -14 -15 -18 -9 -16 -18 vvcurveto
            14 callsubr
            -3 -3 rlineto
            -42 callgsubr
            -6 -6 -4 -6 -7 vvcurveto
            -7 2 -8 2 -7 vhcurveto
            -13 -16 5 -26 -2 -19 rrcurveto
            -1 -19 -9 -18 -18 vvcurveto
            -10 2 -10 -1 -9 vhcurveto
            -2 -10 -8 -12 -9 vvcurveto
            -21 22 -3 4 -16 vhcurveto
            -1 18 18 -6 19 hhcurveto
            10 11 3 7 8 hvcurveto
            7 26 3 27 9 25 rrcurveto
            -4 -20 callsubr
            8 19 9 18 19 vvcurveto
            16 -8 14 -5 15 vhcurveto
            7 15 -2 15 2 15 rrcurveto
            1 8 8 2 10 vvcurveto
            1 10 -1 12 4 10 4 10 10 4 5 8 2 4 -1 5 2 4 8 14 16 6 -1 19 rrcurveto
            21 31 15 40 43 33 1 -20 8 hhcurveto
            3 2 2 -1 2 hvcurveto
            4 -7 rlineto
            25 -15 5 -26 -29 -15 -1 -15 -16 -9 3 -8 -9 vvcurveto
            -10 -8 -12 -2 -10 vhcurveto
            -3 -13 4 -15 -4 -14 -2 -7 -6 -5 -2 -7 -3 -13 2 -16 -5 -13 -4 -9 -9 -5 -6 -8 rrcurveto
            -9 -12 -34 -69 -12 vvcurveto
            -8 3 -8 1 -8 vhcurveto
            -3 -3 rlineto
            -5 6 -7 -5 vvcurveto
            -2 vlineto
            -9 21 18 -20 23 hhcurveto
            8 11 8 5 6 hvcurveto
            32 21 -12 -9 12 33 2 23 callgsubr
            1 5 0 6 2 5 rrcurveto
            19 13 20 101 25 vvcurveto
            28 11 -13 2 17 vhcurveto
            2 30 20 25 7 29 rrcurveto
            return
          </CharString>
          <CharString index="6">
            rmoveto
            16 -7 40 -22 vhcurveto
            -9 -7 -6 -9 hhcurveto
            -17 -14 4 -61 -28 hhcurveto
            -8 -1 10 3 -4 hvcurveto
            -6 5 -8 0 -5 5 -24 23 10 4 -38 12 rrcurveto
            1 -3 -9 4 -3 -4 12 callsubr
            -2 2 -4 hhcurveto
            -9 -9 -6 1 -9 hvcurveto
            -5 hlineto
            -1 -8 -14 -13 callgsubr
            -4 -3 -11 callgsubr
            -4 -35 callgsubr
            -1 -3 -5 -4 -9 -1 -15 -2 -10 rrcurveto
            -2 -9 -4 -9 -9 vvcurveto
            -18 27 -15 16 vhcurveto
            31 -2 69 25 7 -1 -11 5 hhcurveto
            2 2 1 -1 2 hvcurveto
            3 -2 8 -10 5 -3 6 -5 6 -3 6 -6 5 -5 3 -8 7 -5 rrcurveto
            -6 9 21 -7 11 hhcurveto
            17 14 9 4 16 hvcurveto
            16 24 25 37 29 vvcurveto
            endchar
          </CharString>
          <CharString index="7">
            rmoveto
            13 -3 12 -2 12 vhcurveto
            7 -16 -12 16 -19 hhcurveto
            -8 -9 -3 -2 -9 hvcurveto
            -7 -15 -10 -12 -3 -17 2 -9 8 -7 5 -7 -2 -12 7 2 3 -8 rrcurveto
            -4 11 15 -9 11 hhcurveto
            21 17 24 19 hvcurveto
            -142 3 rmoveto
            16 -7 15 -6 13 vhcurveto
            7 -9 -19 4 -11 hhcurveto
            -2 -4 -4 -1 -1 hvcurveto
            -30 callgsubr
            -7 -6 rrcurveto
            -3 -11 -5 -5 -12 vvcurveto
            -26 19 -25 27 25 23 20 25 vhcurveto
            endchar
          </CharString>
          <CharString index="8">
            -8 511 409 rmoveto
            20 7 16 19 14 -8 9 13 vvcurveto
            -29 callgsubr
            -1 6 vhcurveto
            -8 10 -3 11 -5 11 -3 6 2 6 -3 4 rrcurveto
            -6 14 -17 8 16 vvcurveto
            1 4 -11 11 -32 39 -9 5 rlinecurve
            -3 2 -7 -2 -6 3 -4 3 -1 5 -5 2 -7 5 -10 5 -8 3 -14 5 -15 -2 -13 3 rrcurveto
            5 -18 -8 9 -20 hhcurveto
            -8 -9 -2 1 -8 hvcurveto
            1 -7 -4 6 -7 -6 -6 -3 -6 hhcurveto
            3 -6 -14 -7 -8 hhcurveto
            -5 -2 2 -5 -3 hvcurveto
            -5 -5 3 -5 hhcurveto
            -6 -3 -21 callsubr
            hvcurveto
            -12 -2 -10 0 -11 -5 -10 -4 -9 -7 -10 -5 -5 -2 -7 1 -4 -5 rrcurveto
            6 -19 -16 -19 -20 -22 -3 -21 -21 -11 7 -8 -7 -5 -4 -1 -6 vvcurveto
            -12 3 -13 -3 -12 vhcurveto
            -1 -8 -5 -6 -8 -19 10 -17 -20 -21 3 -22 -21 -14 -7 -13 -14 vvcurveto
            -18 3 -19 -9 -15 vhcurveto
            7 -5 3 -19 -9 vvcurveto
            -3 -1 -3 1 -3 vhcurveto
            6 -3 rlineto
            1 -1 0 -2 -1 -28 -8 -27 -28 vvcurveto
            -21 2 -21 8 -20 vhcurveto
            -2 -21 callsubr
            -6 vvcurveto
            -16 8 -15 8 -14 vhcurveto
            -3 15 14 -7 14 hhcurveto
            19 29 21 20 0 callgsubr
            hvcurveto
            1 7 5 8 7 17 -7 16 17 vvcurveto
            7 2 6 5 5 vhcurveto
            2 hlineto
            7 2 -9 -4 5 hvcurveto
            6 -4 8 -1 5 -4 11 -9 7 -13 11 -8 13 -7 17 -4 12 -8 14 -9 8 -15 14 -8 12 -7 15 1 12 -7 10 -6 6 -12 9 -8 4 -3 28 -15 4 -1 rrcurveto
            -2 8 15 1 9 hhcurveto
            6 5 2 2 5 hvcurveto
            33 12 6 7 37 vvcurveto
            5 vlineto
            -17 19 -14 19 -27 4 -31 29 -39 15 -33 24 -5 4 -3 6 -5 3 -19 12 -26 1 -10 22 31 7 28 13 28 13 5 2 7 -2 4 3 3 6 rcurveline
            3 3 4 -1 3 1 5 4 -8 callgsubr
            3 6 4 22 7 7 6 8 5 0 13 5 7 6 8 9 4 5 8 rrcurveto
            -1 9 30 55 31 vvcurveto
            -142 156 rmoveto
            7 -15 13 -12 9 -15 5 -7 -2 -15 3 -10 rrcurveto
            4 -11 6 0 -13 -26 -11 -20 -10 vvcurveto
            -6 1 -5 -3 -6 vhcurveto
            -6 -3 rlineto
            -6 vlineto
            -7 -4 -3 -8 -8 -6 -8 -2 rlinecurve
            -6 -16 -18 -6 -5 -16 rrcurveto
            -6 hlineto
            -14 2 -10 -16 -12 -6 -13 -5 -15 2 -11 -10 rrcurveto
            -13 hlineto
            -22 -1 -28 6 -21 -8 rrcurveto
            -3 7 -1 8 8 17 4 17 17 23 -6 21 23 26 -4 25 25 13 7 12 13 12 -7 10 12 vvcurveto
            21 26 -4 13 4 vhcurveto
            1 -38 callgsubr
            6 hhcurveto
            15 20 -1 -2 15 hvcurveto
            -1 6 8 -6 5 18 9 -6 7 4 -23 callgsubr
            hhcurveto
            2 2 -1 -2 1 hvcurveto
            10 -1 9 -14 6 -8 rrcurveto
            return
          </CharString>
          <CharString index="9">
            -66 470 675 rmoveto
            5 -4 2 3 9 2 9 9 vvcurveto
            30 -26 46 -33 -5 -4 -1 -3 -5 vhcurveto
            -6 -8 -2 -5 -4 -9 -2 -3 -3 12 callsubr
            -5 3 -10 -3 -7 rrcurveto
            -7 -6 -3 -4 -9 -9 3 -9 -9 vvcurveto
            -16 -15 -36 -4 -18 vhcurveto
            -4 -19 -2 -28 -13 -14 1 -31 -58 -168 -27 -5 -15 15 -5 21 -12 16 -5 5 -5 5 -3 6 -10 16 -3 20 -10 16 rrcurveto
            -3 4 -10 6 5 vvcurveto
            2 1 3 -1 2 vhcurveto
            -6 -66 callgsubr
            rlineto
            13 -20 44 -5 18 vhcurveto
            -3 9 0 -10 callsubr
            rrcurveto
            31 -11 -27 61 -38 hhcurveto
            -9 -9 -3 -2 -10 hvcurveto
            -7 -16 -12 -14 -18 -14 9 -13 -14 vvcurveto
            -4 -1 -4 -2 -3 vhcurveto
            15 -13 0 -25 8 -17 rrcurveto
            -6 vlineto
            6 -3 4 -10 -1 -10 4 -10 rlinecurve
            3 -6 6 -4 4 -6 12 -19 7 -26 3 -22 14 -14 8 -16 1 -19 13 -2 -2 -14 5 -10 7 -3 rcurveline
            11 -19 2 -15 19 -14 rrcurveto
            2 -32 40 -14 -21 -4 -4 -3 -4 -9 4 -11 -10 vvcurveto
            -26 -2 -26 -3 -26 vhcurveto
            -1 -10 -4 -13 -10 -10 6 0 -10 -11 -4 -13 -12 -16 1 -16 -16 vvcurveto
            -12 15 13 -10 20 hhcurveto
            16 15 9 7 15 hvcurveto
            8 15 11 16 19 vvcurveto
            16 0 40 -6 13 vhcurveto
            4 8 1 10 9 10 -2 11 10 13 3 callgsubr
            14 -4 23 3 12 vhcurveto
            2 9 10 6 4 8 2 4 -1 5 2 4 7 12 11 10 5 13 3 9 -3 9 3 8 rrcurveto
            2 6 8 3 6 vvcurveto
            15 2 -9 4 8 vhcurveto
            6 9 -1 16 5 11 7 15 14 13 5 17 3 10 -1 12 4 10 7 6 16 35 3 11 2 7 -1 8 2 7 2 6 6 4 2 6 rrcurveto
            1 2 22 120 1 vvcurveto
            return
          </CharString>
          <CharString index="10">
            18 -15 4 -14 6 vhcurveto
            -6 6 -4 1 rlineto
            -16 -13 6 -16 -14 -14 -4 -13 -4 -14 callgsubr
            -8 -8 -4 0 -11 -22 -20 9 -23 -8 -6 -4 -8 12 callgsubr
            -5 -21 callgsubr
            -11 -12 10 -10 -6 -5 -42 callsubr
            -6 6 -7 hhcurveto
            -34 -30 -6 -26 -23 hvcurveto
            -63 callgsubr
            12 11 -7 15 8 8 1 8 33 33 -6 32 18 16 7 18 15 17 -8 11 4 1 7 7 9 callsubr
            14 13 3 14 13 13 -4 13 hhcurveto
            24 43 32 25 hvcurveto
            return
          </CharString>
          <CharString index="11">
            -48 477 379 rmoveto
            22 -12 75 -18 14 vhcurveto
            -6 11 -1 15 -6 9 -11 17 -22 7 -9 15 rrcurveto
            -2 -24 -18 22 -31 hhcurveto
            -16 -15 -2 2 -15 hvcurveto
            1 -13 -12 5 -12 -15 -17 -13 -14 9 callgsubr
            hhcurveto
            -25 -18 -19 -22 -31 -8 -1 -21 -20 -12 -8 -19 -4 -10 3 -12 -5 -10 -6 -12 -12 -8 -5 -12 -6 -18 7 -19 -10 -18 rrcurveto
            4 -6 3 -7 -8 -26 -18 -37 -34 vvcurveto
            -21 6 1 5 -17 vhcurveto
            2 -27 callsubr
            4 -14 24 -53 11 -10 -1 -26 15 0 11 -16 4 -5 0 -35 callsubr
            6 -12 13 -4 7 -10 12 -2 15 -3 8 -11 21 -1 13 -8 18 -8 rrcurveto
            1 10 9 6 10 7 1 -8 15 hhcurveto
            14 8 8 3 13 hvcurveto
            8 2 9 -1 9 2 22 6 16 17 23 3 6 15 16 8 10 13 11 13 2 16 6 16 5 10 8 8 4 11 rrcurveto
            3 11 2 12 12 vvcurveto
            15 -4 15 -8 12 vhcurveto
            -15 5 -15 7 -15 4 -11 -8 -14 -4 -14 -4 -4 -18 -15 -14 -3 -19 -30 -21 4 -19 -13 -12 rrcurveto
            -10 hlineto
            -3 -6 rlineto
            -6 -9 -9 -2 -11 hhcurveto
            -19 -72 30 20 hvcurveto
            1 3 -24 9 -1 27 -4 22 rlinecurve
            -2 11 -5 12 11 12 4 10 11 13 -4 12 12 15 10 12 16 -3 callgsubr
            33 7 52 84 37 16 16 -7 16 hhcurveto
            6 6 1 2 5 hvcurveto
            52 -21 -32 -122 32 -25 rrcurveto
            -5 20 21 -2 21 hhcurveto
            9 hlineto
            10 7 4 14 12 5 rrcurveto
            15 4 14 15 vvcurveto
            return
          </CharString>
          <CharString index="12">
            rmoveto
            16 -16 4 -9 9 vhcurveto
            1 -5 -4 1 -5 -19 -18 -7 -19 -6 -30 callsubr
            -17 -16 -8 -17 -6 -6 3 -7 -10 -11 -5 -11 hhcurveto
            -4 -4 1 -25 callgsubr
            -16 -8 -25 -8 -22 vvcurveto
            -21 23 -12 17 vhcurveto
            16 14 4 15 6 5 -3 6 4 18 8 19 hhcurveto
            11 11 -1 1 11 hvcurveto
            1 6 6 5 6 6 4 -4 6 hhcurveto
            17 15 12 1 16 hvcurveto
            2 10 8 10 8 vvcurveto
            endchar
          </CharString>
          <CharString index="13">
            -46 493 368 rmoveto
            45 -20 47 -11 43 vhcurveto
            -14 16 -20 8 -11 18 -22 8 -22 10 -21 11 rrcurveto
            4 -7 -8 9 -8 -17 -13 7 -19 hhcurveto
            -13 -28 0 -4 -13 hvcurveto
            -3 -9 -8 -7 -10 hhcurveto
            -30 -20 -10 -19 -23 hvcurveto
            -8 callsubr
            -5 -9 -7 -15 -27 -17 -26 -19 -24 rrcurveto
            4 -22 -14 -13 -19 -12 4 -11 -12 vvcurveto
            -6 5 callgsubr
            vhcurveto
            13 -13 0 -22 10 -16 7 -13 43 -34 14 -18 rrcurveto
            2 30 28 -23 35 hhcurveto
            8 7 0 2 8 hvcurveto
            -7 14 12 -6 16 hhcurveto
            8 -13 19 0 12 -6 rrcurveto
            5 -22 18 -5 -30 vvcurveto
            -15 -2 -14 1 -14 vhcurveto
            -9 -15 -12 -17 -11 -14 -7 -8 -27 0 -11 -8 rrcurveto
            5 -8 -9 1 -9 hhcurveto
            -8 -10 -1 2 -8 hvcurveto
            1 -6 1 6 -9 hhcurveto
            -3 -8 -2 -25 callgsubr
            -3 7 -3 2 -3 -1 -3 2 rlinecurve
            -21 13 -7 45 -1 22 rrcurveto
            10 -14 -16 10 -18 hhcurveto
            -17 -33 -22 -20 hvcurveto
            -15 -3 -14 -14 vvcurveto
            -12 22 -49 1 -12 vhcurveto
            18 -9 11 -19 16 -11 11 -8 16 6 9 -14 rrcurveto
            -1 29 28 -12 28 11 10 3 11 hhcurveto
            12 14 -2 2 12 hvcurveto
            10 2 9 10 10 4 11 5 14 -1 10 6 7 4 3 8 6 4 12 8 -2 -7 6 15 7 4 rcurveline
            6 vlineto
            6 3 12 15 5 19 12 15 rlinecurve
            -3 21 8 6 5 18 rrcurveto
            -1 15 -12 16 14 8 4 9 10 vvcurveto
            13 -2 14 1 14 vhcurveto
            -7 6 -4 10 -2 9 rrcurveto
            4 -18 -8 24 -19 hhcurveto
            -3 -3 -1 -1 -4 hvcurveto
            -10 10 -6 15 -13 7 -17 11 -23 -2 -18 11 rrcurveto
            -12 hlineto
            -5 -5 0 -3 -3 hvcurveto
            -7 9 -11 6 -8 7 -34 -6 -5 20 -26 6 -3 19 -19 6 -7 16 1 13 12 56 7 9 rrcurveto
            11 7 39 21 13 hhcurveto
            10 9 -2 -1 9 hvcurveto
            32 -2 20 2 32 -13 3 -6 rcurveline
            1 -1 rlineto
            3 3 2 -1 2 hvcurveto
            8 -4 35 -52 -10 -11 -4 -9 -10 -9 -4 -6 -7 0 callsubr
            -1 vhcurveto
            8 -13 -1 -15 6 -14 rrcurveto
            -12 12 16 -10 17 hhcurveto
            39 18 55 32 hvcurveto
            return
          </CharString>
          <CharString index="14">
            490 54 rmoveto
            6 -1 4 -4 5 vhcurveto
            -27 35 -16 4 -44 3 rrcurveto
            -9 -8 3 -9 -14 -13 -7 -14 -9 -9 4 -9 hhcurveto
            -23 -91 -10 26 -8 hvcurveto
            1 12 1 12 13 26 -2 26 27 28 3 27 28 13 -8 12 15 20 8 20 20 28 -4 28 27 vvcurveto
            41 5 46 -8 40 vhcurveto
            -3 17 -19 37 -16 7 rrcurveto
            4 -8 -16 1 -9 hhcurveto
            -31 -14 -36 -27 hvcurveto
            -16 7 -15 -16 -9 -4 -9 -9 -9 4 -9 -9 -13 -7 -13 -13 -11 3 -9 -11 vvcurveto
            1 -78 rlineto
            -29 -4 -28 -28 -27 10 -26 -27 -21 -13 -19 -20 -12 13 -13 -15 -16 -10 -14 -16 vvcurveto
            -26 11 -22 9 -24 vhcurveto
            -14 19 27 -8 25 27 26 9 27 13 12 -3 13 18 16 7 19 hhcurveto
            54 hlineto
            6 5 -4 4 hhcurveto
            0 1 3 1 vvcurveto
            -1 9 8 -3 8 13 -5 7 11 hhcurveto
            21 2 7 3 17 hvcurveto
            4 13 8 16 14 vvcurveto
            return
          </CharString>
          <CharString index="15">
            -85 449 30 rmoveto
            23 -20 22 -24 vhcurveto
            -9 -9 -4 -10 -13 -12 10 -13 hhcurveto
            -14 -12 -10 -3 -13 hvcurveto
            -8 1 -6 7 -9 1 -8 -4 -4 -6 -10 1 -12 11 -28 -10 -15 8 23 46 22 47 29 43 7 10 9 8 7 11 11 17 6 18 12 16 9 13 3 18 10 11 rrcurveto
            -51 callgsubr
            0 2 -7 callgsubr
            -2 6 2 5 7 3 rcurveline
            3 7 3 8 8 vvcurveto
            15 3 15 35 6 13 3 7 0 9 3 7 rrcurveto
            7 13 19 16 14 vvcurveto
            4 -5 41 -2 2 vhcurveto
            -9 6 -12 2 -8 8 rrcurveto
            -2 -4 -21 callsubr
            -18 -16 10 -17 hhcurveto
            -16 -22 -1 -2 -16 hvcurveto
            -1 -5 -7 -6 -4 -5 -2 3 -3 hhcurveto
            -12 -25 -10 -3 -14 hvcurveto
            -7 7 -11 -1 -8 4 -7 -11 -84 4 -19 -3 -9 -7 -6 -10 -11 -5 rrcurveto
            -1 -16 -9 -15 -15 vvcurveto
            -17 -29 callgsubr
            -10 vhcurveto
            2 -3 -1 -4 2 -3 2 -2 8 -2 3 -2 rrcurveto
            2 -6 7 -5 -2 vvcurveto
            64 1 63 0 64 5 -9 -15 -3 -17 -8 -16 -7 -17 -10 -15 -8 -16 -42 callsubr
            -2 -3 -5 -15 -21 -6 -25 -21 -16 rrcurveto
            -1 -9 -9 -7 -9 vvcurveto
            -9 -9 -13 -6 -7 -11 -7 -11 0 -13 -6 -12 -6 -3 rcurveline
            -2 -3 0 -3 -1 -4 -9 -20 -17 -20 -13 -18 -13 callgsubr
            -2 -3 -6 -4 -5 0 -8 -3 -6 rrcurveto
            -7 -16 -13 -13 -19 20 callgsubr
            2 -10 4 5 4 -5 4 -4 -1 -7 3 -5 6 -9 7 -8 7 -9 rrcurveto
            -2 13 14 -2 14 33 33 8 33 25 24 3 24 27 26 -10 27 11 11 4 11 hhcurveto
            3 3 0 -1 3 hvcurveto
            19 20 30 15 31 vvcurveto
            return
          </CharString>
          <CharString index="16">
            291 839 -28 callsubr
            -17 -18 0 5 -17 hvcurveto
            40 vlineto
            1 7 0 7 7 vvcurveto
            22 -10 39 -3 21 vhcurveto
            2 13 2 12 11 vvcurveto
            8 -3 8 -1 9 vhcurveto
            12 vlineto
            -72 callsubr
            hhcurveto
            -7 -8 1 1 -8 hvcurveto
            35 -12 -55 -1 -17 hhcurveto
            -10 -39 -43 -29 -8 hvcurveto
            -15 -10 -45 -62 -2 -10 -1 -7 1 -7 -3 -7 rrcurveto
            -4 -8 -10 -8 -5 -2 -49 callsubr
            vvcurveto
            -19 callsubr
            0 vhcurveto
            -10 -51 -23 -13 -19 -36 -5 -10 1 -12 -5 -10 -8 -14 -15 -9 -7 -13 -15 -28 -4 -15 -22 -18 rrcurveto
            -25 hlineto
            -25 -22 -49 0 -48 vvcurveto
            -19 15 -10 14 -11 vhcurveto
            1 6 6 0 7 hhcurveto
            6 7 0 -1 7 hvcurveto
            -2 vlineto
            -2 -7 -10 -3 -2 -6 rrcurveto
            -3 0 -4 -2 -4 vhcurveto
            -7 -6 -4 -8 1 -9 -2 -9 rlinecurve
            -9 -8 -3 -18 -4 0 -15 -13 rlinecurve
            -2 -14 -4 -12 -11 -12 rrcurveto
            -17 0 -17 -3 -17 vhcurveto
            -2 -7 rlineto
            -14 14 20 -13 23 hhcurveto
            4 4 0 1 4 hvcurveto
            6 3 56 63 2 2 -2 3 3 34 28 36 7 vvcurveto
            3 12 2 -3 6 12 rrcurveto
            18 8 -5 24 32 hhcurveto
            14 14 -3 -7 11 hvcurveto
            9 25 25 1 24 hhcurveto
            27 25 -3 -3 27 hvcurveto
            -11 vlineto
            -1 -6 0 -6 -6 -13 1 -12 -12 -28 -11 -28 -27 -8 5 -6 -7 vvcurveto
            -3 0 -33 callsubr
            vhcurveto
            6 -7 9 -1 8 -5 rrcurveto
            -12 2 11 -3 12 13 13 3 13 hhcurveto
            7 -1 11 17 14 7 6 18 rlinecurve
            5 hlineto
            -17 callsubr
            12 8 -1 7 hhcurveto
            28 48 19 51 7 -1 -20 callsubr
            hvcurveto
            -456 185 rmoveto
            -10 -7 9 -10 -5 -40 callgsubr
            hhcurveto
            -7 -4 5 1 -7 hvcurveto
            2 -13 -14 1 -14 -11 -10 -4 -11 hhcurveto
            -2 -3 0 -44 callsubr
            15 45 18 61 37 36 6 29 rcurveline
            35 17 -10 39 16 8 8 -12 4 -15 10 -11 rrcurveto
            -3 -9 -6 -6 -10 -14 8 -6 -9 -7 -2 -4 -3 -9 5 1 -14 -14 -6 -15 -13 vvcurveto
            -18 5 -16 2 -17 vhcurveto
            -8 3 -18 -10 vhcurveto
            return
          </CharString>
          <CharString index="17">
            -100 453 435 rmoveto
            7 -2 7 -1 8 vhcurveto
            -3 32 5 7 -25 22 rrcurveto
            13 -14 -17 10 -19 hhcurveto
            -5 hlineto
            12 -12 -15 10 -18 hhcurveto
            -44 -22 -35 -16 -37 hvcurveto
            -7 -9 -8 -9 -4 -11 rrcurveto
            -3 -18 -1 -23 -20 hhcurveto
            16 vlineto
            -1 20 3 21 1 20 rrcurveto
            17 -8 -17 7 -18 hhcurveto
            -27 -43 -13 -33 hvcurveto
            -23 -6 -15 -14 -29 13 -26 -6 -6 -54 callgsubr
            -23 -7 -10 -15 -16 5 -16 -16 vvcurveto
            -6 -1 -7 -4 -5 vhcurveto
            10 -13 1 -16 -16 -26 -5 -25 -26 -10 10 -3 -8 -11 -9 -1 -10 -39 callsubr
            -4 -13 -5 -12 -12 vvcurveto
            -22 19 -9 1 -17 vhcurveto
            7 -6 7 -4 8 -3 rrcurveto
            -12 2 7 -9 13 hhcurveto
            16 20 12 9 13 hvcurveto
            5 21 9 16 22 35 -11 33 34 15 7 12 14 9 -3 9 9 14 6 14 14 6 -3 6 7 vvcurveto
            23 23 24 12 17 vhcurveto
            6 8 2 8 5 7 rrcurveto
            7 hlineto
            1 4 7 13 1 2 20 5 -3 15 13 3 rrcurveto
            -1 10 8 4 11 hhcurveto
            11 7 6 13 15 3 rrcurveto
            7 -6 3 -8 -9 vvcurveto
            -16 -7 -14 -3 -15 vhcurveto
            -10 -3 -35 -42 -4 -10 6 -24 5 -30 15 -20 14 -5 14 2 14 -3 18 16 24 12 10 23 9 -1 2 5 8 3 -1 12 5 6 9 7 rrcurveto
            -3 11 13 24 16 26 callgsubr
            1 10 vhcurveto
            12 6 12 12 vvcurveto
            return
          </CharString>
          <CharString index="18">
            21 -4 -4 -7 16 -50 callgsubr
            -1 12 -3 5 rrcurveto
            10 -7 -21 16 -13 hhcurveto
            -23 -13 -7 -10 -20 hvcurveto
            -6 -18 -8 -13 1 -20 rrcurveto
            -10 vlineto
            9 -17 14 0 -24 -34 -41 -4 -37 vvcurveto
            -13 8 -12 7 -10 vhcurveto
            -2 3 -28 callgsubr
            8 8 3 9 hhcurveto
            3 hlineto
            11 15 17 10 13 13 rrcurveto
            29 30 21 36 43 vvcurveto
            return
          </CharString>
          <CharString index="19">
            -4 -6 -2 -8 -8 -16 6 -16 -17 vvcurveto
            -19 -2 -4 -14 -15 vhcurveto
            -7 7 -15 2 -4 4 rrcurveto
            3 -2 0 7 -4 -22 -11 17 -22 -14 -14 -7 -14 -11 -10 3 -10 hhcurveto
            -27 -53 -31 -27 -8 hvcurveto
            -13 -2 -31 -35 -5 -11 -4 -11 3 -16 -2 -12 -3 -17 -7 -15 -3 -17 -4 -20 2 -21 -4 -20 rrcurveto
            -1 -4 -6 -5 -4 -5 4 -34 -5 -7 -10 -14 -15 vvcurveto
            -21 2 -28 4 -20 vhcurveto
            3 -10 6 -9 4 -10 4 -12 3 -12 3 -12 21 -14 -2 -25 13 -15 rrcurveto
            -7 6 23 -16 9 hhcurveto
            4 hlineto
            10 -23 22 -2 20 -7 rrcurveto
            -7 19 1 -4 23 hhcurveto
            32 15 2 18 26 hvcurveto
            7 5 15 1 3 4 14 16 12 17 13 16 rrcurveto
            5 5 -4 14 10 -48 callgsubr
            5 -31 -5 -32 10 -31 rrcurveto
            -4 13 10 -15 15 8 6 7 8 hhcurveto
            4 -1 7 14 7 13 9 12 rlinecurve
            -5 29 5 30 29 vvcurveto
            34 1 35 -1 33 vhcurveto
            -1 11 -2 10 10 10 7 8 12 20 -11 17 19 22 10 20 22 12 -6 11 12 9 6 6 8 7 -3 6 8 27 3 27 27 15 -10 13 15 18 10 16 18 vvcurveto
            return
          </CharString>
          <CharString index="20">
            hhcurveto
            -12 -12 -2 -2 -13 hvcurveto
            -23 -5 2 -8 -17 -10 -9 -5 -12 0 -8 -8 -8 -7 3 -12 -5 -10 -9 -16 -17 -3 -13 -35 -4 -12 -3 -12 -9 -9 -2 -31 -2 -37 -15 -28 2 -13 -2 -26 -13 -7 rrcurveto
            2 -10 -11 0 -10 hhcurveto
            -44 -46 -14 -49 -8 hvcurveto
            -8 6 14 -34 11 hhcurveto
            3 2 1 -1 3 hvcurveto
            3 -6 rlineto
            -4 9 -38 callsubr
            19 18 6 19 hhcurveto
            9 8 -2 -5 8 hvcurveto
            -1 -19 -3 -18 -19 -24 9 -23 -32 vvcurveto
            -29 -3 -30 10 -28 vhcurveto
            -5 -7 -2 -9 -8 -6 1 -6 -6 -5 -3 -3 -5 vvcurveto
            -7 5 -8 1 -8 vhcurveto
            3 -15 -1 -15 1 -15 rrcurveto
            2 -14 5 -14 -14 -7 -2 -8 -7 vvcurveto
            -23 48 -17 19 16 15 19 11 10 vhcurveto
            18 -4 16 8 18 vhcurveto
            -5 6 -2 9 -3 7 rrcurveto
            2 5 1 5 5 18 -10 17 18 8 4 8 9 14 -10 -29 callsubr
            12 3 10 3 11 vhcurveto
            -5 14 -2 15 15 25 4 24 25 21 -6 21 21 vvcurveto
            -48 callsubr
            2 6 vhcurveto
            -5 15 16 5 15 return
          </CharString>
          <CharString index="21">
            26 -28 32 -27 -26 -39 -13 -33 vhcurveto
            -5 2 1 -3 vvcurveto
            -15 callgsubr
            vhcurveto
            2 -25 14 -30 19 -16 rrcurveto
            -2 9 9 -1 9 hhcurveto
            17 18 4 12 13 hvcurveto
            1 19 10 17 19 vvcurveto
            return
          </CharString>
          <CharString index="22">
            73 576 57 rmoveto
            51 -1 51 51 27 -6 25 26 vvcurveto
            15 1 15 -1 15 vhcurveto
            -1 15 -6 15 15 7 4 6 7 6 -4 6 7 24 5 23 24 20 -8 18 17 20 10 19 21 9 -3 9 9 vvcurveto
            -2 46 6 22 -46 22 rrcurveto
            4 -9 -9 6 -9 hhcurveto
            -11 -8 -11 1 -10 hvcurveto
            -2 hlineto
            -8 -23 -8 -23 -25 -12 6 -12 -11 vvcurveto
            -3 22 callgsubr
            -3 3 -4 -5 -11 -3 -11 -11 vvcurveto
            -4 1 -5 2 -4 vhcurveto
            -1 -8 -6 4 -12 vvcurveto
            -15 0 -19 4 -14 vhcurveto
            3 -13 7 -7 -15 -28 -14 -29 -32 -17 10 -13 -16 vvcurveto
            -4 -1 -4 -2 -3 vhcurveto
            3 -17 -16 1 -17 -43 -43 -5 -42 hhcurveto
            -15 -57 -2 9 -8 hvcurveto
            3 22 4 21 22 18 -7 15 17 23 7 22 22 6 -57 callsubr
            17 -5 19 18 vvcurveto
            13 2 12 6 11 vhcurveto
            -10 19 7 28 -13 18 rrcurveto
            8 -24 11 12 -33 hhcurveto
            -40 -10 -17 -38 hvcurveto
            -14 2 -14 -14 -6 -9 -9 -10 -7 3 -7 -8 vvcurveto
            -7 callsubr
            2 -7 vhcurveto
            2 -9 8 -7 -8 -10 -6 -13 -12 -16 2 -16 -17 -5 -3 -3 -4 -9 7 -7 -9 -16 -8 -16 -16 vvcurveto
            -3 0 -4 1 -3 vhcurveto
            5 -11 1 -12 -14 hhcurveto
            -8 -8 2 -2 -8 hvcurveto
            -27 -6 -29 -31 -28 vvcurveto
            -23 15 3 5 -18 vhcurveto
            17 13 -13 -3 15 hvcurveto
            15 -3 17 4 14 -8 rrcurveto
            2 -6 1 -8 -7 -26 -10 -25 -27 vvcurveto
            -40 24 -51 47 12 21 12 11 6 vhcurveto
            2 5 0 11 1 6 rrcurveto
            1 6 5 8 6 vvcurveto
            6 -6 52 -3 6 vhcurveto
            1 10 9 4 11 vvcurveto
            14 -11 12 1 14 vhcurveto
            3 vlineto
            4 11 12 1 11 hhcurveto
            4 19 -4 5 1 hvcurveto
            20 18 -6 20 17 16 6 18 26 26 -6 26 hhcurveto
            -4 -22 8 -22 -21 -14 -7 -12 -12 -11 6 -10 -10 -8 -3 -8 -8 vvcurveto
            -18 4 -19 12 -15 vhcurveto
            20 -8 21 -6 22 1 rrcurveto
            11 hlineto
            30 18 3 43 31 vvcurveto
            return
          </CharString>
          <CharString index="23">
            14 548 62 rmoveto
            -12 15 -16 12 -7 18 -17 -1 -7 15 -16 -1 rrcurveto
            -2 hlineto
            -7 14 -26 11 -12 7 -6 4 -2 6 -5 3 -11 8 -14 2 -11 6 -10 6 -5 14 -11 6 -7 5 -10 0 -8 5 -8 4 -5 7 -7 5 -11 7 -26 10 -1 15 rrcurveto
            17 6 5 20 20 3 rrcurveto
            8 13 19 6 6 vhcurveto
            3 3 6 0 4 3 14 12 3 20 21 3 20 43 34 17 24 53 4 9 26 14 9 13 8 13 1 29 16 6 rrcurveto
            4 27 15 25 28 vvcurveto
            18 -27 31 -19 vhcurveto
            -14 -12 -13 -15 hhcurveto
            -3 hlineto
            -10 -29 -26 -5 -20 -13 -5 -14 vvcurveto
            1 -4 -14 -13 -10 -16 -6 -19 rlinecurve
            -19 -6 -5 -21 -11 -15 -4 -5 27 callgsubr
            -15 -19 -11 -23 -22 -13 -2 -9 -5 -8 -3 -8 -13 -9 -14 -10 -8 -14 -20 -7 -4 -16 -25 1 rrcurveto
            -3 hlineto
            -1 5 -1 6 6 23 6 23 23 18 -7 17 17 30 13 30 30 vvcurveto
            55 -34 36 -56 -19 -24 -43 -18 -14 4 -13 6 -12 vhcurveto
            -2 -15 -1 -15 -15 vvcurveto
            2 -3 1 -3 -4 -9 -7 -9 -9 vvcurveto
            -7 1 -7 -7 -4 vhcurveto
            -1 -11 11 -1 -10 -10 -4 -12 -10 -22 4 -22 -22 -14 -7 -13 -13 -12 4 -12 -13 -6 -4 -6 -7 -10 7 -9 -10 -6 -3 -4 -6 -35 callsubr
            -5 vvcurveto
            -11 -7 -21 -6 -10 vhcurveto
            5 -15 1 -17 -16 vvcurveto
            -38 -17 -68 53 -11 vhcurveto
            1 hlineto
            7 7 4 7 hhcurveto
            15 10 -3 6 14 hvcurveto
            14 28 9 5 35 5 -3 1 3 13 6 13 13 13 -4 13 13 vvcurveto
            -48 callsubr
            3 6 vhcurveto
            7 -8 7 -9 5 -9 17 -2 41 -31 17 1 rrcurveto
            3 hlineto
            11 -12 12 -10 9 -14 24 -5 16 -20 24 -4 8 -17 20 -3 2 -21 rrcurveto
            -15 25 28 -15 30 hhcurveto
            28 31 31 28 7 -2 8 -2 7 hvcurveto
            return
          </CharString>
          <CharString index="24">
            rmoveto
            9 -10 18 -5 8 vhcurveto
            -20 34 5 0 -42 12 rrcurveto
            2 -4 -17 6 -3 hhcurveto
            -5 -11 -4 -1 -6 hvcurveto
            -5 -5 -9 -3 -10 -1 -10 -4 rlinecurve
            -11 -4 -19 -30 -10 -10 rrcurveto
            -2 -9 -1 -9 -8 vvcurveto
            -25 7 -23 6 -24 vhcurveto
            9 -10 13 -6 8 -12 rrcurveto
            -2 20 3 -14 16 hhcurveto
            9 8 4 2 9 hvcurveto
            68 16 19 23 70 vvcurveto
            -68 1 rmoveto
            -6 -3 -14 -3 -5 vhcurveto
            -5 -3 rlineto
            -11 -5 -5 -6 -14 hhcurveto
            -13 -12 9 11 -8 hvcurveto
            21 4 0 26 28 hhcurveto
            13 23 -6 -16 hvcurveto
            endchar
          </CharString>
          <CharString index="25">
            rmoveto
            16 -7 14 -6 14 vhcurveto
            6 -9 -19 4 -11 -2 -3 -4 -2 hhcurveto
            -30 callgsubr
            -6 -6 rrcurveto
            -4 -11 -4 -5 -12 vvcurveto
            -26 18 -26 27 25 23 21 25 vhcurveto
            endchar
          </CharString>
          <CharString index="26">
            rmoveto
            11 -10 15 -5 9 -11 14 2 13 7 9 11 39 1 4 31 28 16 rrcurveto
            8 5 8 5 7 vhcurveto
            -20 callgsubr
            14 6 16 17 5 rlinecurve
            11 25 23 19 14 24 7 3 rcurveline
            1 5 -1 -3 5 6 5 3 7 vvcurveto
            20 -13 17 -8 18 vhcurveto
            -26 7 -8 29 -24 9 -4 9 -7 8 -5 9 rrcurveto
            3 -8 -3 6 -9 hhcurveto
            -7 22 -23 12 -9 21 -12 -1 -11 10 -9 7 rrcurveto
            -3 -4 1 -4 hhcurveto
            -18 -14 -10 -13 -12 hvcurveto
            -42 vlineto
            12 -14 15 -14 15 -11 6 -4 2 -7 5 -5 3 -3 4 -1 3 -3 6 -6 1 -10 6 -6 17 -20 31 -10 7 -28 -9 -19 -82 -96 -19 -21 -18 -19 -12 -7 1 -29 rrcurveto
            return
          </CharString>
          <CharString index="27">
            vvcurveto
            -3 vlineto
            -3 -2 0 -4 vvcurveto
            -9 3 -4 2 -3 vhcurveto
            6 -12 rlineto
            1 2 2 0 1 3 1 -1 2 hhcurveto
            5 -3 rlineto
            6 30 -1 -24 -12 -9 -9 -13 hvcurveto
            -12 -10 9 -16 hhcurveto
            -14 -7 -6 -11 -9 hvcurveto
            2 -18 7 -13 13 -12 rrcurveto
            15 14 -6 16 hhcurveto
            4 hlineto
            7 1 11 7 26 -1 6 14 rlinecurve
            4 9 5 -11 8 21 3 7 rcurveline
            -1 -1 rlineto
            3 2 3 4 -1 hhcurveto
            4 6 4 5 10 vvcurveto
            endchar
          </CharString>
          <CharString index="28">
            -9 13 1 23 -2 15 -9 11 -8 10 -8 11 rrcurveto
            3 -12 -11 3 -11 hhcurveto
            -5 -5 -1 -1 -5 hvcurveto
            -11 -13 0 8 -8 -5 -12 -8 1 -17 -12 -7 rrcurveto
            4 -22 -7 -21 -22 -15 callsubr
            -7 -3 -7 -7 -17 13 -14 -17 -21 7 -13 -14 vvcurveto
            -14 6 -55 6 -11 vhcurveto
            -4 7 8 -1 8 hhcurveto
            11 11 2 3 10 hvcurveto
            7 10 5 14 13 vvcurveto
            4 0 4 -2 4 vhcurveto
            5 4 7 25 7 9 -3 10 9 18 17 45 6 6 -4 6 6 4 4 2 4 vvcurveto
            3 -2 4 -2 3 18 callgsubr
            rrcurveto
            return
          </CharString>
          <CharString index="29">
            -2 3 67 -43 1 hhcurveto
            -2 5 6 -1 6 19 18 13 9 5 4 -4 5 hhcurveto
            4 4 6 1 5 hvcurveto
            return
          </CharString>
          <CharString index="30">
            rmoveto
            -1 -1 0 0 -1 vvcurveto
            1 0 0 1 1 vhcurveto
            223 -32 rmoveto
            2 10 1 10 10 vvcurveto
            72 -40 -12 -8 30 vhcurveto
            2 -25 3 17 -35 hhcurveto
            -18 -60 -9 -18 hvcurveto
            2 vlineto
            -15 callgsubr
            0 vvcurveto
            1 -1 -1 1 1 hvcurveto
            -26 -41 -23 -15 -40 vvcurveto
            -26 35 -17 22 vhcurveto
            8 1 rlineto
            3 2 3 2 3 hhcurveto
            26 18 -6 51 32 hhcurveto
            4 4 -2 -3 5 hvcurveto
            19 -10 1 0 -16 vvcurveto
            -16 vlineto
            -8 -13 -5 -8 -1 -5 -13 -13 rlinecurve
            1 hlineto
            -15 -12 -10 -8 -10 -9 -7 -9 rlinecurve
            -19 -6 -38 -42 -15 -2 rrcurveto
            -15 -3 4 -2 -5 vhcurveto
            1 1 rlineto
            -4 -6 -2 -6 -6 vvcurveto
            -27 31 -8 21 vhcurveto
            24 21 5 23 22 21 -4 23 hhcurveto
            24 13 10 26 9 -5 18 -5 7 hvcurveto
            -1 vlineto
            5 -4 -6 2 -6 hhcurveto
            5 vlineto
            -8 1 rlineto
            -12 -7 -4 -6 hhcurveto
            -4 -2 1 -44 callsubr
            3 6 3 3 7 5 5 4 rcurveline
            9 17 3 6 21 12 rrcurveto
            14 19 8 14 1 -1 1 2 vvcurveto
            3 vlineto
            endchar
          </CharString>
          <CharString index="31">
            rmoveto
            9 -6 8 10 vvcurveto
            2 vlineto
            -12 7 -3 17 -14 5 2 10 -6 2 -6 7 rrcurveto
            -10 -9 -2 -10 19 callsubr
            -5 hvcurveto
            -17 -14 -22 -9 -13 -19 4 -28 -7 -25 -3 -28 rrcurveto
            -10 11 11 -6 15 hhcurveto
            5 hlineto
            -12 10 19 -3 15 hhcurveto
            68 -23 43 24 11 hvcurveto
            2 4 4 -1 7 vvcurveto
            return
          </CharString>
          <CharString index="32">
            -43 hhcurveto
            -18 -18 1 5 -18 hvcurveto
            20 3 20 20 25 -13 48 17 9 4 23 callsubr
            -29 callsubr
            6 1 -20 callgsubr
            vhcurveto
            return
          </CharString>
          <CharString index="33">
            rmoveto
            1 0 1 1 vvcurveto
            12 -5 12 -7 12 vhcurveto
            -9 4 -15 -8 21 7 6 29 20 vvcurveto
            16 -14 32 -24 -19 -17 -14 -18 vhcurveto
            -12 3 -5 -8 vvcurveto
            -5 -7 -2 -9 -9 -8 2 -7 -10 -3 -1 -4 -3 vvcurveto
            1 -2 0 0 -1 -7 -7 callsubr
            hhcurveto
            -3 -1 2 1 -1 hvcurveto
            4 29 16 30 32 vvcurveto
            14 -4 14 -11 12 vhcurveto
            -10 hlineto
            -17 -20 -11 -15 -8 hvcurveto
            1 hlineto
            -3 -4 -1 -16 -2 -9 -4 -8 rcurveline
            -3 -5 -4 -8 -6 -2 1 -3 -2 vvcurveto
            -9 vlineto
            -6 -14 rlineto
            -5 0 -5 -2 -5 vhcurveto
            -6 -13 rlineto
            -3 -6 -2 -5 -15 vvcurveto
            -10 2 -10 4 -10 vhcurveto
            21 8 -15 25 10 8 2 12 hhcurveto
            7 7 -1 -1 5 hvcurveto
            -7 vlineto
            -13 -3 -12 -4 -12 vhcurveto
            5 -7 1 -6 -8 vvcurveto
            -19 2 -1 6 -6 vhcurveto
            9 -9 rlineto
            -4 5 5 -1 6 hhcurveto
            39 4 72 5 hvcurveto
            9 -4 6 9 1 1 1 2 vvcurveto
            2 vlineto
            16 8 6 9 8 hvcurveto
            7 7 rlineto
            return
          </CharString>
          <CharString index="34">
            3 -7 rcurveline
            -78 callsubr
            return
          </CharString>
          <CharString index="35">
            6 1 -20 callgsubr
            vhcurveto
            1 0 0 1 5 1 6 5 9 28 -16 14 8 7 3 8 15 14 -3 14 19 16 13 17 -34 callsubr
            hhcurveto
            14 44 31 23 hvcurveto
            13 -10 11 13 vvcurveto
            2 -16 -12 18 -17 -10 -7 -7 -9 -6 -3 4 -3 -7 -6 -4 -6 -27 -24 10 -26 -16 -17 -5 -16 hhcurveto
            -24 1 24 18 hvcurveto
            6 0 6 6 18 -7 14 16 vvcurveto
            5 1 4 3 4 vhcurveto
            2 33 31 11 34 hhcurveto
            10 9 -1 -2 10 hvcurveto
            5 17 7 8 20 21 20 3 20 4 4 0 4 hhcurveto
            7 hlineto
            18 23 30 -8 44 vvcurveto
            13 -4 12 -3 13 vhcurveto
            4 -18 -19 7 -19 hhcurveto
            -5 -6 0 -2 -4 hvcurveto
            2 -1 -3 4 -2 -24 callsubr
            -3 hhcurveto
            -9 -52 -55 -5 -52 -28 -8 -9 -18 return
          </CharString>
          <CharString index="36">
            2 4 -2 6 7 callsubr
            6 0 4 3 rrcurveto
            21 25 48 15 34 hhcurveto
            return
          </CharString>
          <CharString index="37">
            -14 10 -12 -14 -13 -6 -12 -13 -39 callgsubr
            -6 -9 -6 -8 -9 -13 6 -13 -14 vvcurveto
            -29 -11 -26 -8 -27 vhcurveto
            -12 -26 -8 -21 -33 return
          </CharString>
          <CharString index="38">
            -21 4 4 7 -16 vhcurveto
            2 -6 1 -12 3 -5 rrcurveto
            -10 7 21 -16 13 hhcurveto
            23 13 7 10 20 hvcurveto
            6 18 8 13 -1 20 rrcurveto
            10 vlineto
            -9 17 -14 0 24 34 41 4 37 vvcurveto
            13 -8 12 -7 10 vhcurveto
            2 -3 -4 1 -4 -8 -8 -3 -9 hhcurveto
            -3 hlineto
            -11 -15 -17 -10 -13 -13 rrcurveto
            -29 -30 -21 -36 -43 vvcurveto
            return
          </CharString>
          <CharString index="39">
            11 8 -6 10 hhcurveto
            19 18 14 5 18 hvcurveto
            9 2 9 -2 8 3 27 11 19 29 28 12 10 16 16 14 7 18 rrcurveto
            27 13 21 38 29 vvcurveto
            return
          </CharString>
          <CharString index="40">
            -97 callsubr
            endchar
          </CharString>
          <CharString index="41">
            16 -9 12 -1 15 vhcurveto
            8 -20 -20 25 -23 hhcurveto
            -13 -16 -10 -6 -11 hvcurveto
            -1 -31 callgsubr
            return
          </CharString>
          <CharString index="42">
            41 6 5 -29 28 vhcurveto
            9 -9 -12 14 -13 hhcurveto
            return
          </CharString>
          <CharString index="43">
            vhcurveto
            3 -60 callsubr
            return
          </CharString>
          <CharString index="44">
            3 5 2 3 return
          </CharString>
          <CharString index="45">
            192 619 -60 callgsubr
            return
          </CharString>
          <CharString index="46">
            hhcurveto
            -19 -19 8 5 -18 hvcurveto
            -12 3 3 17 -7 9 -11 11 -9 11 -13 10 -1 17 -8 10 -7 15 rrcurveto
            2 10 2 9 10 22 -14 17 21 vvcurveto
            43 13 13 13 35 vhcurveto
            6 15 7 30 10 10 rrcurveto
            13 12 54 17 18 hhcurveto
            9 8 -1 -3 9 hvcurveto
            15 -5 59 -45 10 -14 4 -7 -2 -9 4 -7 6 -3 rcurveline
            return
          </CharString>
          <CharString index="47">
            3 -1 4 return
          </CharString>
          <CharString index="48">
            4 1 5 return
          </CharString>
          <CharString index="49">
            rmoveto
            18 -7 18 -11 15 vhcurveto
            -1 vlineto
            -7 18 -30 -3 -9 12 rrcurveto
            return
          </CharString>
          <CharString index="50">
            3 5 4 return
          </CharString>
          <CharString index="51">
            5 -1 4 return
          </CharString>
          <CharString index="52">
            rrcurveto
            6 hlineto
            14 return
          </CharString>
          <CharString index="53">
            -4 2 -5 return
          </CharString>
          <CharString index="54">
            rmoveto
            -86 callsubr
            return
          </CharString>
          <CharString index="55">
            -3 vlineto
            -16 -11 12 4 -15 hvcurveto
            -10 3 -11 -2 -11 3 rrcurveto
            2 -10 -9 4 -10 hhcurveto
            -24 -28 -19 -10 -22 hvcurveto
            -7 -3 -14 -4 -5 -3 -3 -2 0 -5 -13 callsubr
            -3 -6 2 -3 -3 return
          </CharString>
          <CharString index="56">
            -3 -3 vvcurveto
            return
          </CharString>
          <CharString index="57">
            5 -2 7 1 4 -2 return
          </CharString>
          <CharString index="58">
            1 -2 -2 return
          </CharString>
          <CharString index="59">
            6 1 7 return
          </CharString>
          <CharString index="60">
            -6 -6 vvcurveto
            -6 1 -7 return
          </CharString>
          <CharString index="61">
            3 1 4 return
          </CharString>
          <CharString index="62">
            rmoveto
            -5 -10 -1 -10 -11 -22 -8 -10 -11 vvcurveto
            -21 1 1 -13 -19 vhcurveto
            -35 callgsubr
            -2 -2 -4 -2 -43 callsubr
            -11 -14 -21 -1 -10 -17 rrcurveto
            return
          </CharString>
          <CharString index="63">
            1 -2 hvcurveto
            return
          </CharString>
          <CharString index="64">
            -54 callsubr
            -3 -4 return
          </CharString>
          <CharString index="65">
            -3 -6 -7 return
          </CharString>
          <CharString index="66">
            -4 3 -3 return
          </CharString>
          <CharString index="67">
            -6 -7 rcurveline
            -21 hlineto
            -1 -5 -3 -4 -6 hvcurveto
            -6 -4 rlineto
            -4 -6 -6 -4 -5 hhcurveto
            -20 hlineto
            -5 -6 0 -6 hhcurveto
            -37 -42 4 26 -26 hvcurveto
            return
          </CharString>
          <CharString index="68">
            -3 1 -4 return
          </CharString>
          <CharString index="69">
            10 -2 10 return
          </CharString>
          <CharString index="70">
            21 -14 -16 17 hvcurveto
            return
          </CharString>
          <CharString index="71">
            -5 -2 -4 return
          </CharString>
          <CharString index="72">
            -6 3 -5 return
          </CharString>
          <CharString index="73">
            3 -66 callgsubr
            return
          </CharString>
          <CharString index="74">
            -3 -1 -2 return
          </CharString>
          <CharString index="75">
            3 3 1 2 return
          </CharString>
          <CharString index="76">
            10 -3 9 10 return
          </CharString>
          <CharString index="77">
            -7 3 -6 return
          </CharString>
          <CharString index="78">
            12 13 vvcurveto
            return
          </CharString>
          <CharString index="79">
            106 rmoveto
            5 -10 -3 8 -11 hhcurveto
            -4 -1 rlineto
            12 -6 -9 5 -12 -14 -14 -11 -16 -14 -13 1 -14 -43 -44 -9 -43 hhcurveto
            return
          </CharString>
          <CharString index="80">
            -10 -2 -10 3 -9 return
          </CharString>
          <CharString index="81">
            -6 3 -6 return
          </CharString>
          <CharString index="82">
            3 1 3 return
          </CharString>
          <CharString index="83">
            -4 -3 -2 return
          </CharString>
          <CharString index="84">
            28 -5 27 rrcurveto
            -4 16 -10 14 17 vvcurveto
            2 0 -25 callsubr
            vhcurveto
            -5 3 -23 46 -5 9 rrcurveto
            4 3 0 5 4 return
          </CharString>
          <CharString index="85">
            -38 callgsubr
            5 return
          </CharString>
          <CharString index="86">
            -5 -1 -5 return
          </CharString>
          <CharString index="87">
            6 -2 7 return
          </CharString>
          <CharString index="88">
            -1 0 -1 return
          </CharString>
          <CharString index="89">
            -5 -1 -2 return
          </CharString>
          <CharString index="90">
            11 9 -7 11 6 4 3 6 11 7 -9 10 hhcurveto
            5 10 10 2 11 18 19 -4 17 17 20 8 24 return
          </CharString>
          <CharString index="91">
            -2 -9 callgsubr
            return
          </CharString>
          <CharString index="92">
            -10 3 -11 -11 return
          </CharString>
          <CharString index="93">
            5 -1 5 return
          </CharString>
          <CharString index="94">
            -3 -2 -4 return
          </CharString>
          <CharString index="95">
            -1 -2 -1 return
          </CharString>
          <CharString index="96">
            -3 -3 0 return
          </CharString>
          <CharString index="97">
            10 -3 10 return
          </CharString>
          <CharString index="98">
            -1 9 -5 return
          </CharString>
          <CharString index="99">
            -8 -7 -12 return
          </CharString>
          <CharString index="100">
            -7 -2 -7 return
          </CharString>
          <CharString index="101">
            -58 callsubr
            1 8 1 7 7 vvcurveto
            return
          </CharString>
          <CharString index="102">
            -54 callgsubr
            -3 return
          </CharString>
          <CharString index="103">
            rrcurveto
            4 9 16 50 8 7 -4 7 7 12 7 10 12 17 3 15 16 vvcurveto
            return
          </CharString>
          <CharString index="104">
            -139 -58 callsubr
            return
          </CharString>
          <CharString index="105">
            rmoveto
            16 -10 -15 -1 -14 hhcurveto
            -8 4 -5 -1 -13 -5 -14 1 -14 -6 rlinecurve
            return
          </CharString>
          <CharString index="106">
            rrcurveto
            20 -26 -11 44 -40 hhcurveto
            -21 -35 -25 -23 -20 18 -11 2 -21 hvcurveto
            return
          </CharString>
          <CharString index="107">
            vvcurveto
            24 callgsubr
            return
          </CharString>
          <CharString index="108">
            -48 callsubr
            vhcurveto
            return
          </CharString>
          <CharString index="109">
            vvcurveto
            -28 callgsubr
            return
          </CharString>
          <CharString index="110">
            -1 callgsubr
            -2 return
          </CharString>
          <CharString index="111">
            -60 callsubr
            1 4 vhcurveto
            return
          </CharString>
          <CharString index="112">
            -19 callgsubr
            -12 return
          </CharString>
          <CharString index="113">
            -1 -2 6 hvcurveto
            return
          </CharString>
          <CharString index="114">
            -23 callgsubr
            4 return
          </CharString>
          <CharString index="115">
            -51 callsubr
            -14 return
          </CharString>
          <CharString index="116">
            5 -41 callgsubr
            return
          </CharString>
          <CharString index="117">
            -14 vlineto
            -15 2 -14 2 -15 vhcurveto
            -7 17 15 -7 21 return
          </CharString>
          <CharString index="118">
            4 -14 callsubr
            return
          </CharString>
          <CharString index="119">
            -1 -40 callgsubr
            return
          </CharString>
          <CharString index="120">
            -3 2 -4 -1 -3 2 -3 2 0 5 -3 3 return
          </CharString>
          <CharString index="121">
            -8 2 -7 1 -8 vhcurveto
            return
          </CharString>
          <CharString index="122">
            2 -25 callsubr
            return
          </CharString>
          <CharString index="123">
            -11 -11 -2 -11 return
          </CharString>
          <CharString index="124">
            3 -26 callsubr
            return
          </CharString>
          <CharString index="125">
            -2 -3 -2 -39 callsubr
            -2 return
          </CharString>
          <CharString index="126">
            hhcurveto
            -5 -6 1 1 return
          </CharString>
          <CharString index="127">
            -10 -8 4 -8 -8 return
          </CharString>
          <CharString index="128">
            hhcurveto
            1 1 1 0 return
          </CharString>
          <CharString index="129">
            3 8 7 4 rcurveline
            return
          </CharString>
          <CharString index="130">
            10 9 12 -4 return
          </CharString>
          <CharString index="131">
            4 -59 callsubr
            return
          </CharString>
          <CharString index="132">
            7 -3 9 1 7 -1 rrcurveto
            -4 13 10 return
          </CharString>
          <CharString index="133">
            8 5 10 2 return
          </CharString>
        <CharString name=".notdef">
          -302 endchar
        </CharString>
        <CharString name="A">
          -8 533 28 rmoveto
          12 -29 149 -4 11 vhcurveto
          -4 11 -15 13 11 vvcurveto
          -3 -56 callsubr
          5 vvcurveto
          41 -12 40 -17 38 vhcurveto
          -8 19 1 22 -5 20 -3 8 -5 6 -2 8 -3 10 2 10 -2 9 -3 10 -7 7 -3 9 -17 43 -24 141 -33 26 rrcurveto
          9 -12 -14 8 -15 -17 -13 3 -10 hhcurveto
          -1 -19 callsubr
          -1 hvcurveto
          -4 -2 -3 -2 -5 hhcurveto
          -9 -24 -18 -12 -2 -29 rrcurveto
          -13 -10 -33 -62 -10 vvcurveto
          -7 3 -7 callsubr
          vhcurveto
          -2 -6 -8 -9 -4 -4 3 -2 -4 vvcurveto
          -51 -21 -13 -11 -36 vhcurveto
          -3 -10 3 -12 -3 -10 -5 -14 -12 -9 -6 -13 -2 -6 1 -7 -2 -6 -5 -16 -9 -14 -12 -12 rrcurveto
          -25 hlineto
          -22 -24 -38 4 -43 vvcurveto
          -23 20 -12 17 -12 vhcurveto
          13 2 12 0 14 -2 rrcurveto
          0 0 -1 -1 -7 -10 -3 -6 vvcurveto
          -39 callsubr
          -1 -4 vhcurveto
          -6 -6 rlineto
          -1 -2 0 -2 -2 vvcurveto
          -7 2 -6 -1 -7 vhcurveto
          -7 -6 rlineto
          -2 vlineto
          -18 -4 0 -12 -13 vhcurveto
          1 -14 -2 -12 -9 -12 rrcurveto
          4 -17 3 -17 -17 vvcurveto
          -7 vlineto
          -14 17 22 -13 23 hhcurveto
          4 4 0 1 4 hvcurveto
          2 1 47 60 6 3 -4 3 4 vvcurveto
          18 0 20 3 17 vhcurveto
          2 7 8 10 4 2 callsubr
          1 3 vhcurveto
          1 3 4 1 1 6 4 13 -2 13 5 13 rrcurveto
          2 6 7 1 7 hhcurveto
          14 15 -3 -7 12 hvcurveto
          9 23 25 1 24 hhcurveto
          28 27 -3 -3 28 hvcurveto
          -2 -31 16 -30 -32 vvcurveto
          -18 -2 -20 4 -18 vhcurveto
          2 -9 8 -6 -9 -2 0 -1 -2 vvcurveto
          7 -7 10 -9 callsubr
          rrcurveto
          -12 5 11 -3 12 13 13 3 13 hhcurveto
          7 -1 rlineto
          9 19 14 8 24 vvcurveto
          -178 265 rmoveto
          -1 -2 -33 callsubr
          -10 -9 9 -10 -5 -40 callgsubr
          hhcurveto
          -7 -5 5 1 -7 hvcurveto
          2 -13 -14 1 -14 -11 -10 -4 -11 hhcurveto
          -2 -3 0 -44 callsubr
          6 45 6 61 30 36 rrcurveto
          29 vlineto
          6 3 0 8 -57 callsubr
          5 7 2 2 6 4 9 -6 21 9 5 10 -12 7 -15 12 -11 rrcurveto
          5 callgsubr
          -6 -20 14 -6 -12 vvcurveto
          -22 5 6 4 -15 vhcurveto
          4 -15 -3 -16 2 -14 5 -26 17 -23 1 -26 rrcurveto
          endchar
        </CharString>
        <CharString name="AE">
          -91 callsubr
          endchar
        </CharString>
        <CharString name="AEacute">
          -91 callsubr
          231 637 rmoveto
          25 -7 -1 -16 12 vhcurveto
          -49 callsubr
          0 -3 hhcurveto
          -26 -22 -28 -24 -4 hvcurveto
          -7 -18 -2 -22 -24 hhcurveto
          -10 -22 -15 -20 -11 -23 rrcurveto
          -7 5 -2 3 -6 -50 callgsubr
          -2 -11 9 hhcurveto
          -2 5 -56 callsubr
          hhcurveto
          5 21 6 2 4 hvcurveto
          3 -60 callsubr
          3 -57 callsubr
          rcurveline
          8 8 1 13 7 9 2 3 5 2 7 callsubr
          1 5 3 4 11 12 19 7 4 17 2 2 -66 callgsubr
          1 rrcurveto
          5 4 7 18 7 vvcurveto
          endchar
        </CharString>
        <CharString name="Aacute">
          -8 533 28 rmoveto
          12 -29 149 -4 11 vhcurveto
          -4 11 -15 13 11 vvcurveto
          -3 -56 callsubr
          5 vvcurveto
          41 -12 40 -17 38 vhcurveto
          -8 19 1 22 -5 20 -3 8 -5 6 -2 8 -3 10 2 10 -2 9 -3 10 -7 7 -3 9 -17 43 -24 141 -33 26 rrcurveto
          9 -12 -14 8 -15 -17 -13 3 -10 hhcurveto
          -1 -19 callsubr
          -1 hvcurveto
          -4 -2 -3 -2 -5 hhcurveto
          -9 -24 -18 -12 -2 -29 rrcurveto
          -13 -10 -33 -62 -10 vvcurveto
          -7 3 -7 callsubr
          vhcurveto
          -2 -6 -8 -9 -4 -4 3 -2 -4 vvcurveto
          -51 -21 -13 -11 -36 vhcurveto
          -3 -10 3 -12 -3 -10 -5 -14 -12 -9 -6 -13 -2 -6 1 -7 -2 -6 -5 -16 -9 -14 -12 -12 rrcurveto
          -25 hlineto
          -22 -24 -38 4 -43 vvcurveto
          -23 20 -12 17 -12 vhcurveto
          13 2 12 0 14 -2 rrcurveto
          0 0 -1 -1 -7 -10 -3 -6 vvcurveto
          -39 callsubr
          -1 -4 vhcurveto
          -6 -6 rlineto
          -1 -2 0 -2 -2 vvcurveto
          -7 2 -6 -1 -7 vhcurveto
          -7 -6 rlineto
          -2 vlineto
          -18 -4 0 -12 -13 vhcurveto
          1 -14 -2 -12 -9 -12 rrcurveto
          4 -17 3 -17 -17 vvcurveto
          -7 vlineto
          -14 17 22 -13 23 hhcurveto
          4 4 0 1 4 hvcurveto
          2 1 47 60 6 3 -4 3 4 vvcurveto
          18 0 20 3 17 vhcurveto
          2 7 8 10 4 2 callsubr
          1 3 vhcurveto
          1 3 4 1 1 6 4 13 -2 13 5 13 rrcurveto
          2 6 7 1 7 hhcurveto
          14 15 -3 -7 12 hvcurveto
          9 23 25 1 24 hhcurveto
          28 27 -3 -3 28 hvcurveto
          -2 -31 16 -30 -32 vvcurveto
          -18 -2 -20 4 -18 vhcurveto
          2 -9 8 -6 -9 -2 0 -1 -2 vvcurveto
          7 -7 10 -9 callsubr
          rrcurveto
          -12 5 11 -3 12 13 13 3 13 hhcurveto
          7 -1 rlineto
          9 19 14 8 24 vvcurveto
          -178 265 rmoveto
          -1 -2 -33 callsubr
          -10 -9 9 -10 -5 -40 callgsubr
          hhcurveto
          -7 -5 5 1 -7 hvcurveto
          2 -13 -14 1 -14 -11 -10 -4 -11 hhcurveto
          -2 -3 0 -44 callsubr
          6 45 6 61 30 36 rrcurveto
          29 vlineto
          6 3 0 8 -57 callsubr
          5 7 2 2 6 4 9 -6 21 9 5 10 -12 7 -15 12 -11 rrcurveto
          5 callgsubr
          -6 -20 14 -6 -12 vvcurveto
          -22 5 6 4 -15 vhcurveto
          4 -15 -3 -16 2 -14 5 -26 17 -23 1 -26 rrcurveto
          89 645 rmoveto
          25 -7 -1 -16 12 vhcurveto
          -49 callsubr
          0 -3 hhcurveto
          -26 -22 -28 -24 -4 hvcurveto
          -7 -18 -2 -22 -24 hhcurveto
          -10 -22 -15 -20 -11 -23 rrcurveto
          -7 5 -2 3 -6 -50 callgsubr
          -2 -11 9 hhcurveto
          -2 5 -56 callsubr
          hhcurveto
          5 21 6 2 4 hvcurveto
          3 -60 callsubr
          3 -57 callsubr
          rcurveline
          8 8 1 13 7 9 2 3 5 2 7 callsubr
          1 5 3 4 11 12 19 7 4 17 2 2 -66 callgsubr
          1 rrcurveto
          5 4 7 18 7 vvcurveto
          endchar
        </CharString>
        <CharString name="Abreve">
          -8 533 28 rmoveto
          12 -29 149 -4 11 vhcurveto
          -4 11 -15 13 11 vvcurveto
          -3 -56 callsubr
          5 vvcurveto
          41 -12 40 -17 38 vhcurveto
          -8 19 1 22 -5 20 -3 8 -5 6 -2 8 -3 10 2 10 -2 9 -3 10 -7 7 -3 9 -17 43 -24 141 -33 26 rrcurveto
          9 -12 -14 8 -15 -17 -13 3 -10 hhcurveto
          -1 -19 callsubr
          -1 hvcurveto
          -4 -2 -3 -2 -5 hhcurveto
          -9 -24 -18 -12 -2 -29 rrcurveto
          -13 -10 -33 -62 -10 vvcurveto
          -7 3 -7 callsubr
          vhcurveto
          -2 -6 -8 -9 -4 -4 3 -2 -4 vvcurveto
          -51 -21 -13 -11 -36 vhcurveto
          -3 -10 3 -12 -3 -10 -5 -14 -12 -9 -6 -13 -2 -6 1 -7 -2 -6 -5 -16 -9 -14 -12 -12 rrcurveto
          -25 hlineto
          -22 -24 -38 4 -43 vvcurveto
          -23 20 -12 17 -12 vhcurveto
          13 2 12 0 14 -2 rrcurveto
          0 0 -1 -1 -7 -10 -3 -6 vvcurveto
          -39 callsubr
          -1 -4 vhcurveto
          -6 -6 rlineto
          -1 -2 0 -2 -2 vvcurveto
          -7 2 -6 -1 -7 vhcurveto
          -7 -6 rlineto
          -2 vlineto
          -18 -4 0 -12 -13 vhcurveto
          1 -14 -2 -12 -9 -12 rrcurveto
          4 -17 3 -17 -17 vvcurveto
          -7 vlineto
          -14 17 22 -13 23 hhcurveto
          4 4 0 1 4 hvcurveto
          2 1 47 60 6 3 -4 3 4 vvcurveto
          18 0 20 3 17 vhcurveto
          2 7 8 10 4 2 callsubr
          1 3 vhcurveto
          1 3 4 1 1 6 4 13 -2 13 5 13 rrcurveto
          2 6 7 1 7 hhcurveto
          14 15 -3 -7 12 hvcurveto
          9 23 25 1 24 hhcurveto
          28 27 -3 -3 28 hvcurveto
          -2 -31 16 -30 -32 vvcurveto
          -18 -2 -20 4 -18 vhcurveto
          2 -9 8 -6 -9 -2 0 -1 -2 vvcurveto
          7 -7 10 -9 callsubr
          rrcurveto
          -12 5 11 -3 12 13 13 3 13 hhcurveto
          7 -1 rlineto
          9 19 14 8 24 vvcurveto
          -178 265 rmoveto
          -1 -2 -33 callsubr
          -10 -9 9 -10 -5 -40 callgsubr
          hhcurveto
          -7 -5 5 1 -7 hvcurveto
          2 -13 -14 1 -14 -11 -10 -4 -11 hhcurveto
          -2 -3 0 -44 callsubr
          6 45 6 61 30 36 rrcurveto
          29 vlineto
          6 3 0 8 -57 callsubr
          5 7 2 2 6 4 9 -6 21 9 5 10 -12 7 -15 12 -11 rrcurveto
          5 callgsubr
          -6 -20 14 -6 -12 vvcurveto
          -22 5 6 4 -15 vhcurveto
          4 -15 -3 -16 2 -14 5 -26 17 -23 1 -26 rrcurveto
          33 608 -102 callgsubr
          endchar
        </CharString>
        <CharString name="Acircumflex">
          -8 533 28 rmoveto
          12 -29 149 -4 11 vhcurveto
          -4 11 -15 13 11 vvcurveto
          -3 -56 callsubr
          5 vvcurveto
          41 -12 40 -17 38 vhcurveto
          -8 19 1 22 -5 20 -3 8 -5 6 -2 8 -3 10 2 10 -2 9 -3 10 -7 7 -3 9 -17 43 -24 141 -33 26 rrcurveto
          9 -12 -14 8 -15 -17 -13 3 -10 hhcurveto
          -1 -19 callsubr
          -1 hvcurveto
          -4 -2 -3 -2 -5 hhcurveto
          -9 -24 -18 -12 -2 -29 rrcurveto
          -13 -10 -33 -62 -10 vvcurveto
          -7 3 -7 callsubr
          vhcurveto
          -2 -6 -8 -9 -4 -4 3 -2 -4 vvcurveto
          -51 -21 -13 -11 -36 vhcurveto
          -3 -10 3 -12 -3 -10 -5 -14 -12 -9 -6 -13 -2 -6 1 -7 -2 -6 -5 -16 -9 -14 -12 -12 rrcurveto
          -25 hlineto
          -22 -24 -38 4 -43 vvcurveto
          -23 20 -12 17 -12 vhcurveto
          13 2 12 0 14 -2 rrcurveto
          0 0 -1 -1 -7 -10 -3 -6 vvcurveto
          -39 callsubr
          -1 -4 vhcurveto
          -6 -6 rlineto
          -1 -2 0 -2 -2 vvcurveto
          -7 2 -6 -1 -7 vhcurveto
          -7 -6 rlineto
          -2 vlineto
          -18 -4 0 -12 -13 vhcurveto
          1 -14 -2 -12 -9 -12 rrcurveto
          4 -17 3 -17 -17 vvcurveto
          -7 vlineto
          -14 17 22 -13 23 hhcurveto
          4 4 0 1 4 hvcurveto
          2 1 47 60 6 3 -4 3 4 vvcurveto
          18 0 20 3 17 vhcurveto
          2 7 8 10 4 2 callsubr
          1 3 vhcurveto
          1 3 4 1 1 6 4 13 -2 13 5 13 rrcurveto
          2 6 7 1 7 hhcurveto
          14 15 -3 -7 12 hvcurveto
          9 23 25 1 24 hhcurveto
          28 27 -3 -3 28 hvcurveto
          -2 -31 16 -30 -32 vvcurveto
          -18 -2 -20 4 -18 vhcurveto
          2 -9 8 -6 -9 -2 0 -1 -2 vvcurveto
          7 -7 10 -9 callsubr
          rrcurveto
          -12 5 11 -3 12 13 13 3 13 hhcurveto
          7 -1 rlineto
          9 19 14 8 24 vvcurveto
          -178 265 rmoveto
          -1 -2 -33 callsubr
          -10 -9 9 -10 -5 -40 callgsubr
          hhcurveto
          -7 -5 5 1 -7 hvcurveto
          2 -13 -14 1 -14 -11 -10 -4 -11 hhcurveto
          -2 -3 0 -44 callsubr
          6 45 6 61 30 36 rrcurveto
          29 vlineto
          6 3 0 8 -57 callsubr
          5 7 2 2 6 4 9 -6 21 9 5 10 -12 7 -15 12 -11 rrcurveto
          5 callgsubr
          -6 -20 14 -6 -12 vvcurveto
          -22 5 6 4 -15 vhcurveto
          4 -15 -3 -16 2 -14 5 -26 17 -23 1 -26 rrcurveto
          34 526 -106 callgsubr
        </CharString>
        <CharString name="Adieresis">
          -8 533 28 rmoveto
          12 -29 149 -4 11 vhcurveto
          -4 11 -15 13 11 vvcurveto
          -3 -56 callsubr
          5 vvcurveto
          41 -12 40 -17 38 vhcurveto
          -8 19 1 22 -5 20 -3 8 -5 6 -2 8 -3 10 2 10 -2 9 -3 10 -7 7 -3 9 -17 43 -24 141 -33 26 rrcurveto
          9 -12 -14 8 -15 -17 -13 3 -10 hhcurveto
          -1 -19 callsubr
          -1 hvcurveto
          -4 -2 -3 -2 -5 hhcurveto
          -9 -24 -18 -12 -2 -29 rrcurveto
          -13 -10 -33 -62 -10 vvcurveto
          -7 3 -7 callsubr
          vhcurveto
          -2 -6 -8 -9 -4 -4 3 -2 -4 vvcurveto
          -51 -21 -13 -11 -36 vhcurveto
          -3 -10 3 -12 -3 -10 -5 -14 -12 -9 -6 -13 -2 -6 1 -7 -2 -6 -5 -16 -9 -14 -12 -12 rrcurveto
          -25 hlineto
          -22 -24 -38 4 -43 vvcurveto
          -23 20 -12 17 -12 vhcurveto
          13 2 12 0 14 -2 rrcurveto
          0 0 -1 -1 -7 -10 -3 -6 vvcurveto
          -39 callsubr
          -1 -4 vhcurveto
          -6 -6 rlineto
          -1 -2 0 -2 -2 vvcurveto
          -7 2 -6 -1 -7 vhcurveto
          -7 -6 rlineto
          -2 vlineto
          -18 -4 0 -12 -13 vhcurveto
          1 -14 -2 -12 -9 -12 rrcurveto
          4 -17 3 -17 -17 vvcurveto
          -7 vlineto
          -14 17 22 -13 23 hhcurveto
          4 4 0 1 4 hvcurveto
          2 1 47 60 6 3 -4 3 4 vvcurveto
          18 0 20 3 17 vhcurveto
          2 7 8 10 4 2 callsubr
          1 3 vhcurveto
          1 3 4 1 1 6 4 13 -2 13 5 13 rrcurveto
          2 6 7 1 7 hhcurveto
          14 15 -3 -7 12 hvcurveto
          9 23 25 1 24 hhcurveto
          28 27 -3 -3 28 hvcurveto
          -2 -31 16 -30 -32 vvcurveto
          -18 -2 -20 4 -18 vhcurveto
          2 -9 8 -6 -9 -2 0 -1 -2 vvcurveto
          7 -7 10 -9 callsubr
          rrcurveto
          -12 5 11 -3 12 13 13 3 13 hhcurveto
          7 -1 rlineto
          9 19 14 8 24 vvcurveto
          -178 265 rmoveto
          -1 -2 -33 callsubr
          -10 -9 9 -10 -5 -40 callgsubr
          hhcurveto
          -7 -5 5 1 -7 hvcurveto
          2 -13 -14 1 -14 -11 -10 -4 -11 hhcurveto
          -2 -3 0 -44 callsubr
          6 45 6 61 30 36 rrcurveto
          29 vlineto
          6 3 0 8 -57 callsubr
          5 7 2 2 6 4 9 -6 21 9 5 10 -12 7 -15 12 -11 rrcurveto
          5 callgsubr
          -6 -20 14 -6 -12 vvcurveto
          -22 5 6 4 -15 vhcurveto
          4 -15 -3 -16 2 -14 5 -26 17 -23 1 -26 rrcurveto
          42 521 -100 callsubr
        </CharString>
        <CharString name="Agrave">
          -8 533 28 rmoveto
          -24 -14 -8 -9 -19 vhcurveto
          -7 1 rlineto
          -13 -13 -3 -13 hhcurveto
          -12 -11 3 12 -5 hvcurveto
          -9 5 -10 1 -7 7 rrcurveto
          2 0 1 2 vvcurveto
          9 -8 6 -2 9 vhcurveto
          -4 18 2 20 18 vvcurveto
          32 -16 30 2 31 vhcurveto
          3 -28 -27 3 -28 hhcurveto
          -24 -25 -1 -9 -23 hvcurveto
          7 -12 -15 3 -14 hhcurveto
          -7 -7 -1 -2 -6 hvcurveto
          -5 -13 2 -13 -4 -13 -1 -6 -4 -1 -1 -3 rrcurveto
          -1 -39 callsubr
          -4 vvcurveto
          -4 -8 -10 -2 -7 vhcurveto
          -3 -17 0 -20 -18 -4 4 -51 callsubr
          -6 -47 -60 -2 -1 vhcurveto
          -1 -4 -4 0 -4 hhcurveto
          -23 -22 13 14 -17 hvcurveto
          7 vlineto
          17 -3 17 -4 17 vhcurveto
          9 12 2 12 -1 14 rrcurveto
          12 13 4 0 18 vvcurveto
          2 vlineto
          7 6 rlineto
          1 7 -2 6 7 19 callgsubr
          6 6 rlineto
          1 -28 callgsubr
          3 6 10 3 7 vvcurveto
          1 0 1 0 vhcurveto
          -14 2 -12 0 -13 -2 rrcurveto
          -17 12 -20 12 23 vvcurveto
          43 38 -4 22 24 vhcurveto
          25 hlineto
          12 12 9 14 5 16 2 6 -1 7 2 6 6 13 12 9 5 14 3 10 -3 12 3 10 rrcurveto
          11 36 21 13 51 4 -3 2 4 vvcurveto
          4 8 9 2 6 vhcurveto
          2 7 -3 7 7 vvcurveto
          10 33 62 13 10 vhcurveto
          2 29 18 12 9 24 rrcurveto
          5 3 2 4 2 hvcurveto
          1 1 1 0 1 10 13 -3 17 hhcurveto
          15 14 -8 -9 12 hvcurveto
          33 -26 24 -141 17 -43 3 -9 7 -7 3 -10 2 -9 -2 -10 3 -10 2 -8 5 -6 3 -8 5 -20 -1 -22 8 -19 rrcurveto
          17 -38 12 -40 -41 vvcurveto
          -5 1 -4 3 -5 vhcurveto
          -11 15 -13 4 -11 vhcurveto
          4 -11 29 -149 -12 vvcurveto
          -178 265 rmoveto
          -1 26 -17 23 -5 26 -2 14 3 16 -4 15 rrcurveto
          -4 15 -5 -6 22 12 -14 6 20 vvcurveto
          -20 callgsubr
          1 6 vhcurveto
          -12 11 -7 15 -10 12 -9 -5 6 -21 -4 -9 -2 -6 -7 -2 -4 -5 -18 callgsubr
          -8 -6 -3 rrcurveto
          -29 vlineto
          -30 -36 -6 -61 -6 -45 rrcurveto
          -1 2 3 0 2 11 10 4 11 hhcurveto
          14 14 -1 -2 13 hvcurveto
          -1 7 5 -5 7 3 2 3 5 10 9 -9 10 hhcurveto
          2 3 1 1 2 hvcurveto
          -249 646 rmoveto
          -7 7 -18 5 -4 vhcurveto
          -66 callgsubr
          1 2 -2 4 -17 19 -7 11 -12 3 -4 1 -5 3 -41 callsubr
          5 -2 2 -3 7 -9 1 -13 8 -8 5 -4 rcurveline
          3 -3 -1 -41 callsubr
          rrcurveto
          -2 4 21 -6 5 hhcurveto
          4 5 1 2 5 hvcurveto
          9 -2 11 2 6 hvcurveto
          -8 callgsubr
          2 7 vvcurveto
          -11 23 -15 20 -10 22 rrcurveto
          -24 -2 22 7 -18 hvcurveto
          24 -4 -22 28 -26 hhcurveto
          -3 -2 0 -1 -2 hvcurveto
          -16 -12 -7 1 -25 vvcurveto
          endchar
        </CharString>
        <CharString name="Amacron">
          -8 533 28 rmoveto
          12 -29 149 -4 11 vhcurveto
          -4 11 -15 13 11 vvcurveto
          -3 -56 callsubr
          5 vvcurveto
          41 -12 40 -17 38 vhcurveto
          -8 19 1 22 -5 20 -3 8 -5 6 -2 8 -3 10 2 10 -2 9 -3 10 -7 7 -3 9 -17 43 -24 141 -33 26 rrcurveto
          9 -12 -14 8 -15 -17 -13 3 -10 hhcurveto
          -1 -19 callsubr
          -1 hvcurveto
          -4 -2 -3 -2 -5 hhcurveto
          -9 -24 -18 -12 -2 -29 rrcurveto
          -13 -10 -33 -62 -10 vvcurveto
          -7 3 -7 callsubr
          vhcurveto
          -2 -6 -8 -9 -4 -4 3 -2 -4 vvcurveto
          -51 -21 -13 -11 -36 vhcurveto
          -3 -10 3 -12 -3 -10 -5 -14 -12 -9 -6 -13 -2 -6 1 -7 -2 -6 -5 -16 -9 -14 -12 -12 rrcurveto
          -25 hlineto
          -22 -24 -38 4 -43 vvcurveto
          -23 20 -12 17 -12 vhcurveto
          13 2 12 0 14 -2 rrcurveto
          0 0 -1 -1 -7 -10 -3 -6 vvcurveto
          -39 callsubr
          -1 -4 vhcurveto
          -6 -6 rlineto
          -1 -2 0 -2 -2 vvcurveto
          -7 2 -6 -1 -7 vhcurveto
          -7 -6 rlineto
          -2 vlineto
          -18 -4 0 -12 -13 vhcurveto
          1 -14 -2 -12 -9 -12 rrcurveto
          4 -17 3 -17 -17 vvcurveto
          -7 vlineto
          -14 17 22 -13 23 hhcurveto
          4 4 0 1 4 hvcurveto
          2 1 47 60 6 3 -4 3 4 vvcurveto
          18 0 20 3 17 vhcurveto
          2 7 8 10 4 2 callsubr
          1 3 vhcurveto
          1 3 4 1 1 6 4 13 -2 13 5 13 rrcurveto
          2 6 7 1 7 hhcurveto
          14 15 -3 -7 12 hvcurveto
          9 23 25 1 24 hhcurveto
          28 27 -3 -3 28 hvcurveto
          -2 -31 16 -30 -32 vvcurveto
          -18 -2 -20 4 -18 vhcurveto
          2 -9 8 -6 -9 -2 0 -1 -2 vvcurveto
          7 -7 10 -9 callsubr
          rrcurveto
          -12 5 11 -3 12 13 13 3 13 hhcurveto
          7 -1 rlineto
          9 19 14 8 24 vvcurveto
          -178 265 rmoveto
          -1 -2 -33 callsubr
          -10 -9 9 -10 -5 -40 callgsubr
          hhcurveto
          -7 -5 5 1 -7 hvcurveto
          2 -13 -14 1 -14 -11 -10 -4 -11 hhcurveto
          -2 -3 0 -44 callsubr
          6 45 6 61 30 36 rrcurveto
          29 vlineto
          6 3 0 8 -57 callsubr
          5 7 2 2 6 4 9 -6 21 9 5 10 -12 7 -15 12 -11 rrcurveto
          5 callgsubr
          -6 -20 14 -6 -12 vvcurveto
          -22 5 6 4 -15 vhcurveto
          4 -15 -3 -16 2 -14 5 -26 17 -23 1 -26 rrcurveto
          52 546 -95 callsubr
        </CharString>
        <CharString name="Aogonek">
          -8 537 -110 -76 callgsubr
          9 hvcurveto
          7 hlineto
          7 -1 rlineto
          9 19 14 8 24 vvcurveto
          12 -29 149 -4 11 vhcurveto
          -4 11 -15 13 11 vvcurveto
          -3 -56 callsubr
          5 vvcurveto
          41 -12 40 -17 38 vhcurveto
          -8 19 1 22 -5 20 -3 8 -5 6 -2 8 -3 10 2 10 -2 9 -3 10 -7 7 -3 9 -17 43 -24 141 -33 26 rrcurveto
          9 -12 -14 8 -15 -17 -13 3 -10 hhcurveto
          -1 -19 callsubr
          -1 hvcurveto
          -4 -2 -3 -2 -5 hhcurveto
          -9 -24 -18 -12 -2 -29 rrcurveto
          -13 -10 -33 -62 -10 vvcurveto
          -7 3 -7 callsubr
          vhcurveto
          -2 -6 -8 -9 -4 -4 3 -2 -4 vvcurveto
          -51 -21 -13 -11 -36 vhcurveto
          -3 -10 3 -12 -3 -10 -5 -14 -12 -9 -6 -13 -2 -6 1 -7 -2 -6 -5 -16 -9 -14 -12 -12 rrcurveto
          -25 hlineto
          -22 -24 -38 4 -43 vvcurveto
          -23 20 -12 17 -12 vhcurveto
          13 2 12 0 14 -2 rrcurveto
          -2 vlineto
          -7 -10 -3 -6 vvcurveto
          -39 callsubr
          -1 -4 vhcurveto
          -6 -6 rlineto
          -1 -2 0 -2 -2 vvcurveto
          -7 2 -6 -1 -7 vhcurveto
          -7 -6 rlineto
          -2 vlineto
          -18 -4 0 -12 -13 vhcurveto
          1 -14 -2 -12 -9 -12 rrcurveto
          4 -17 3 -17 -17 vvcurveto
          -7 vlineto
          -14 17 22 -13 23 hhcurveto
          4 4 0 1 4 hvcurveto
          2 1 47 60 6 3 -4 3 4 vvcurveto
          18 0 20 3 17 vhcurveto
          2 7 8 10 4 2 callsubr
          1 3 vhcurveto
          1 3 4 1 1 6 4 13 -2 13 5 13 rrcurveto
          2 6 7 1 7 hhcurveto
          14 15 -3 -7 12 hvcurveto
          9 23 25 1 24 hhcurveto
          28 27 -3 -3 28 hvcurveto
          -2 -31 16 -30 -32 vvcurveto
          -18 -2 -20 4 -18 vhcurveto
          2 -9 8 -6 -9 vvcurveto
          -5 vlineto
          5 -5 8 -2 7 -3 -11 -19 -16 -29 -8 -9 rrcurveto
          -88 callgsubr
          -182 403 rmoveto
          -1 -2 -33 callsubr
          -10 -9 9 -10 -5 -40 callgsubr
          hhcurveto
          -7 -5 5 1 -7 hvcurveto
          2 -13 -14 1 -14 -11 -10 -4 -11 hhcurveto
          -2 -3 0 -44 callsubr
          6 45 6 61 30 36 rrcurveto
          29 vlineto
          6 3 0 8 -57 callsubr
          5 7 2 2 6 4 9 -6 21 9 5 10 -12 7 -15 12 -11 rrcurveto
          5 callgsubr
          -6 -20 14 -6 -12 vvcurveto
          -22 5 6 4 -15 vhcurveto
          4 -15 -3 -16 2 -14 5 -26 17 -23 1 -26 rrcurveto
          endchar
        </CharString>
        <CharString name="Aring">
          -7 406 798 -65 callgsubr
          10 -12 16 -8 10 -14 rrcurveto
          -45 callgsubr
          -4 -4 vvcurveto
          -13 -10 -33 -62 -10 vvcurveto
          -7 3 -7 callsubr
          vhcurveto
          -2 -6 -8 -9 -4 -4 3 -2 -4 vvcurveto
          -51 -21 -13 -11 -36 vhcurveto
          -3 -10 3 -12 -3 -10 -5 -14 -12 -9 -6 -13 -2 -6 1 -7 -2 -6 -5 -16 -9 -14 -12 -12 rrcurveto
          -25 hlineto
          -22 -24 -38 4 -43 vvcurveto
          -23 20 -12 17 -12 vhcurveto
          13 2 12 0 14 -2 rrcurveto
          -2 vlineto
          -7 -10 -3 -6 vvcurveto
          -39 callsubr
          -1 -4 vhcurveto
          -6 -6 rlineto
          -1 -2 0 -2 -2 vvcurveto
          -7 2 -6 -1 -7 vhcurveto
          -7 -6 rlineto
          -2 vlineto
          -18 -4 0 -12 -13 vhcurveto
          1 -14 -2 -12 -9 -12 rrcurveto
          4 -17 3 -17 -17 vvcurveto
          -7 vlineto
          -14 17 22 -13 23 hhcurveto
          4 4 0 1 4 hvcurveto
          2 1 47 60 6 3 -4 3 4 vvcurveto
          18 0 20 3 17 vhcurveto
          2 7 8 10 4 2 callsubr
          1 3 vhcurveto
          1 3 4 1 1 6 4 13 -2 13 5 13 rrcurveto
          2 6 7 1 7 hhcurveto
          14 15 -3 -7 12 hvcurveto
          9 23 25 1 24 hhcurveto
          28 27 -3 -3 28 hvcurveto
          -2 -31 16 -30 -32 vvcurveto
          -18 -2 -20 4 -18 vhcurveto
          2 -9 8 -6 -9 vvcurveto
          -5 vlineto
          7 -7 10 -9 callsubr
          rrcurveto
          -12 5 11 -3 12 13 13 3 13 hhcurveto
          7 -1 rlineto
          9 19 14 8 24 vvcurveto
          12 -29 149 -4 11 vhcurveto
          -4 11 -15 13 11 vvcurveto
          -3 -56 callsubr
          5 vvcurveto
          41 -12 40 -17 38 vhcurveto
          -8 19 1 22 -5 20 -3 8 -5 6 -2 8 -3 10 2 10 -2 9 -3 10 -7 7 -3 9 -13 33 -17 92 -23 52 rrcurveto
          37 21 12 32 62 vvcurveto
          -51 -505 rmoveto
          -1 -2 -33 callsubr
          -10 -9 9 -10 -5 -40 callgsubr
          hhcurveto
          -7 -5 5 1 -7 hvcurveto
          2 -13 -14 1 -14 -11 -10 -4 -11 hhcurveto
          -2 -3 0 -44 callsubr
          6 45 6 61 30 36 rrcurveto
          29 vlineto
          6 3 0 8 -57 callsubr
          5 7 2 2 6 4 9 -6 21 9 5 10 -12 7 -15 12 -11 rrcurveto
          5 callgsubr
          -6 -20 14 -6 -12 vvcurveto
          -22 5 6 4 -15 vhcurveto
          4 -15 -3 -16 2 -14 5 -26 17 -23 1 -26 rrcurveto
          -34 507 -43 callgsubr
        </CharString>
        <CharString name="Atilde">
          -8 533 28 rmoveto
          12 -29 149 -4 11 vhcurveto
          -4 11 -15 13 11 vvcurveto
          -3 -56 callsubr
          5 vvcurveto
          41 -12 40 -17 38 vhcurveto
          -8 19 1 22 -5 20 -3 8 -5 6 -2 8 -3 10 2 10 -2 9 -3 10 -7 7 -3 9 -17 43 -24 141 -33 26 rrcurveto
          9 -12 -14 8 -15 -17 -13 3 -10 hhcurveto
          -1 -19 callsubr
          -1 hvcurveto
          -4 -2 -3 -2 -5 hhcurveto
          -9 -24 -18 -12 -2 -29 rrcurveto
          -13 -10 -33 -62 -10 vvcurveto
          -7 3 -7 callsubr
          vhcurveto
          -2 -6 -8 -9 -4 -4 3 -2 -4 vvcurveto
          -51 -21 -13 -11 -36 vhcurveto
          -3 -10 3 -12 -3 -10 -5 -14 -12 -9 -6 -13 -2 -6 1 -7 -2 -6 -5 -16 -9 -14 -12 -12 rrcurveto
          -25 hlineto
          -22 -24 -38 4 -43 vvcurveto
          -23 20 -12 17 -12 vhcurveto
          13 2 12 0 14 -2 rrcurveto
          0 0 -1 -1 -7 -10 -3 -6 vvcurveto
          -39 callsubr
          -1 -4 vhcurveto
          -6 -6 rlineto
          -1 -2 0 -2 -2 vvcurveto
          -7 2 -6 -1 -7 vhcurveto
          -7 -6 rlineto
          -2 vlineto
          -18 -4 0 -12 -13 vhcurveto
          1 -14 -2 -12 -9 -12 rrcurveto
          4 -17 3 -17 -17 vvcurveto
          -7 vlineto
          -14 17 22 -13 23 hhcurveto
          4 4 0 1 4 hvcurveto
          2 1 47 60 6 3 -4 3 4 vvcurveto
          18 0 20 3 17 vhcurveto
          2 7 8 10 4 2 callsubr
          1 3 vhcurveto
          1 3 4 1 1 6 4 13 -2 13 5 13 rrcurveto
          2 6 7 1 7 hhcurveto
          14 15 -3 -7 12 hvcurveto
          9 23 25 1 24 hhcurveto
          28 27 -3 -3 28 hvcurveto
          -2 -31 16 -30 -32 vvcurveto
          -18 -2 -20 4 -18 vhcurveto
          2 -9 8 -6 -9 -2 0 -1 -2 vvcurveto
          7 -7 10 -9 callsubr
          rrcurveto
          -12 5 11 -3 12 13 13 3 13 hhcurveto
          7 -1 rlineto
          9 19 14 8 24 vvcurveto
          -178 265 rmoveto
          -1 -2 -33 callsubr
          -10 -9 9 -10 -5 -40 callgsubr
          hhcurveto
          -7 -5 5 1 -7 hvcurveto
          2 -13 -14 1 -14 -11 -10 -4 -11 hhcurveto
          -2 -3 0 -44 callsubr
          6 45 6 61 30 36 rrcurveto
          29 vlineto
          6 3 0 8 -57 callsubr
          5 7 2 2 6 4 9 -6 21 9 5 10 -12 7 -15 12 -11 rrcurveto
          5 callgsubr
          -6 -20 14 -6 -12 vvcurveto
          -22 5 6 4 -15 vhcurveto
          4 -15 -3 -16 2 -14 5 -26 17 -23 1 -26 rrcurveto
          82 599 -101 callsubr
        </CharString>
        <CharString name="B">
          0 537 195 rmoveto
          9 -2 11 -8 7 vhcurveto
          -1 3 0 2 3 vvcurveto
          25 -17 4 2 20 vhcurveto
          5 vlineto
          -11 3 -3 14 -12 2 3 14 -20 -6 -2 18 -8 6 -16 -3 -2 13 -10 4 -11 3 -2 12 28 19 -11 -14 25 28 -51 callgsubr
          0 2 3 rrcurveto
          16 20 17 95 26 vvcurveto
          22 -4 19 -6 21 vhcurveto
          -5 5 -2 6 -3 5 -6 6 -10 2 -3 8 rrcurveto
          32 -34 12 -21 14 vhcurveto
          -15 10 -11 15 -16 8 -7 3 -100 20 -6 -1 rrcurveto
          -4 -4 -6 1 -6 hhcurveto
          -10 -10 1 -1 -9 hvcurveto
          -14 -2 -12 -8 -13 -3 -22 -5 -40 -1 -19 -10 -3 -6 rcurveline
          -6 -6 -6 -2 -4 -9 rrcurveto
          -6 -16 -7 -33 -17 -17 10 -13 -15 -4 -3 -3 -4 vvcurveto
          1 -3 2 -4 -3 vvcurveto
          -13 -9 -11 -4 -11 vhcurveto
          5 -30 8 -26 -31 -17 -7 -15 -17 -34 9 -34 -34 vvcurveto
          -16 -2 -16 -7 -14 vhcurveto
          4 -12 6 -16 -13 -8 -3 -7 -8 -10 7 -9 -11 -18 -7 -16 -17 -14 7 -13 -14 vvcurveto
          -20 -1 -1 7 -19 vhcurveto
          2 -6 -1 -7 2 -6 10 -34 10 -5 35 -6 6 3 rcurveline
          7 -6 rlineto
          -8 34 74 -6 36 hhcurveto
          -59 callsubr
          2 2 hvcurveto
          4 2 5 0 4 1 26 9 26 8 26 9 10 4 0 11 9 4 46 22 40 45 14 50 rrcurveto
          2 8 5 8 10 vvcurveto
          2 0 2 -1 2 vhcurveto
          13 11 7 25 17 vvcurveto
          -139 310 rmoveto
          -9 -7 -6 -5 vvcurveto
          -2 2 -3 -1 -3 vhcurveto
          -2 -3 -9 1 -2 -4 -4 -7 3 -9 -6 -7 -13 -2 -10 -8 -9 -9 -13 -2 -7 -13 -12 -5 -12 -4 -12 2 -12 -4 -12 -4 -11 -12 -12 -3 rrcurveto
          -1 -2 -2 0 -2 -23 -13 -7 -17 hhcurveto
          -11 callsubr
          1 -3 hvcurveto
          42 -2 42 41 vvcurveto
          40 2 40 3 40 vhcurveto
          14 7 20 -3 11 9 rrcurveto
          8 7 -3 7 10 3 6 7 19 17 -14 20 hhcurveto
          7 8 2 -4 7 hvcurveto
          13 -5 23 -28 -14 vvcurveto
          -1 -4 rlineto
          2 -1 18 -30 -2 vvcurveto
          -7 -2 -6 2 -6 vhcurveto
          1 -5 5 -5 -4 vvcurveto
          32 -321 rmoveto
          -11 -6 -8 -3 -10 vhcurveto
          -3 -10 1 -10 -5 -9 -11 -11 -12 -12 -9 -13 rrcurveto
          -23 hlineto
          -6 -6 -5 -8 -8 -5 -8 -5 -12 1 -6 -9 rrcurveto
          3 -32 -32 -9 -32 hhcurveto
          -12 -13 1 5 -11 hvcurveto
          -1 6 -1 6 6 vvcurveto
          7 2 5 3 5 vhcurveto
          -5 39 -5 39 39 vvcurveto
          23 2 24 5 23 vhcurveto
          3 11 68 4 14 hhcurveto
          18 32 -6 -13 12 hvcurveto
          8 -3 12 3 6 -4 5 -3 21 -18 6 -4 2 -2 10 -4 1 -1 4 -7 3 -3 6 -6 5 -6 -8 -17 12 -9 rrcurveto
          endchar
        </CharString>
        <CharString name="C">
          50 593 154 rmoveto
          -100 callgsubr
          -12 11 26 -10 16 10 8 3 9 -68 callsubr
          endchar
        </CharString>
        <CharString name="Cacute">
          50 593 154 rmoveto
          -100 callgsubr
          -12 11 26 -10 16 10 8 3 9 -68 callsubr
          -108 803 rmoveto
          25 -7 -1 -16 12 vhcurveto
          -49 callsubr
          0 -3 hhcurveto
          -26 -22 -28 -24 -4 hvcurveto
          -7 -18 -2 -22 -24 hhcurveto
          -10 -22 -15 -20 -11 -23 rrcurveto
          -7 5 -2 3 -6 -50 callgsubr
          -2 -11 9 hhcurveto
          -2 5 -56 callsubr
          hhcurveto
          5 21 6 2 4 hvcurveto
          3 -60 callsubr
          3 -57 callsubr
          rcurveline
          8 8 1 13 7 9 2 3 5 2 7 callsubr
          1 5 3 4 11 12 19 7 4 17 2 2 -66 callgsubr
          1 rrcurveto
          5 4 7 18 7 vvcurveto
          endchar
        </CharString>
        <CharString name="Ccaron">
          50 593 154 rmoveto
          -29 -21 -38 -27 -13 vhcurveto
          -7 -18 -16 -14 -10 -16 -28 -12 -19 -29 -27 -11 -8 -3 -9 2 -9 -2 rrcurveto
          -5 -18 -18 -14 -19 -10 -8 6 -11 -9 -8 -3 -10 hhcurveto
          -16 -26 10 12 -11 hvcurveto
          -6 hlineto
          -34 -1 -9 30 -32 4 -4 16 -14 6 -14 7 rrcurveto
          -3 6 -3 6 7 vvcurveto
          -20 6 -8 20 -14 13 rrcurveto
          -25 callsubr
          4 vvcurveto
          18 -18 5 -6 15 vhcurveto
          -6 14 3 25 -3 16 -3 10 -8 9 -2 10 rrcurveto
          -6 21 4 32 23 19 -8 19 18 vvcurveto
          15 5 23 5 14 vhcurveto
          1 23 callgsubr
          3 13 -2 15 2 14 2 12 7 11 1 12 2 17 -2 18 6 17 6 14 16 11 4 10 7 17 12 16 1 19 26 24 62 28 15 28 rrcurveto
          4 hlineto
          4 63 23 3 6 hvcurveto
          2 2 1 1 22 72 -3 -3 19 vhcurveto
          17 -3 15 -14 17 1 10 -13 11 -2 14 -8 5 -3 11 -14 7 -5 7 -6 14 -3 5 -8 rrcurveto
          8 -12 9 -29 -15 vvcurveto
          -29 -20 -34 -33 -33 -6 22 23 -16 vhcurveto
          -5 8 -8 3 -6 5 -6 6 -3 7 -7 4 -12 5 -34 1 -16 3 rrcurveto
          2 -7 -7 3 -7 hhcurveto
          -4 -3 -1 -1 -4 hvcurveto
          -5 -5 -2 3 -5 -8 -5 -7 -15 -32 callgsubr
          -12 -18 -30 -3 -13 -18 -18 callgsubr
          -6 -3 -5 -9 -14 -12 -13 -8 -15 -8 -15 -7 -14 -11 -13 rrcurveto
          1 -4 0 -4 -4 -27 -13 -13 -37 -11 -7 -6 -8 vvcurveto
          -16 5 -60 5 -13 vhcurveto
          1 -5 4 -3 1 -5 3 -15 -3 -15 6 -15 7 -7 rcurveline
          3 -9 -2 -10 2 -10 rrcurveto
          8 -13 callsubr
          -6 vvcurveto
          -11 25 -18 1 -19 vhcurveto
          41 -30 -5 -18 58 -7 rrcurveto
          5 6 -3 5 17 5 16 38 hhcurveto
          7 -1 7 3 5 hvcurveto
          5 3 26 5 14 8 17 10 12 16 16 9 6 21 14 16 9 18 rrcurveto
          3 hlineto
          12 10 13 11 11 6 -9 12 hhcurveto
          9 -17 7 -19 -20 vvcurveto
          -140 784 -104 callsubr
        </CharString>
        <CharString name="Ccedilla">
          50 388 -3 callsubr
          1 7 1 7 6 vvcurveto
          2 hlineto
          -68 callsubr
          -100 callgsubr
          5 -6 9 -5 9 -4 rrcurveto
          -3 -14 -3 -14 -3 -80 callsubr
        </CharString>
        <CharString name="Ccircumflex">
          50 593 154 rmoveto
          -100 callgsubr
          -12 11 26 -10 16 10 8 3 9 -68 callsubr
          -168 698 -106 callgsubr
        </CharString>
        <CharString name="Cdotaccent">
          50 593 154 rmoveto
          -100 callgsubr
          -12 11 26 -10 16 10 8 3 9 -68 callsubr
          -214 692 -82 callsubr
        </CharString>
        <CharString name="D">
          0 529 353 rmoveto
          10 -6 8 9 11 6 9 11 -31 callsubr
          vvcurveto
          10 2 11 -2 10 vhcurveto
          -4 19 -26 35 -9 20 -2 6 2 7 -3 6 -6 4 rcurveline
          -2 2 0 4 -2 3 -6 15 -10 13 -6 14 -11 9 -15 2 -10 8 -6 6 0 9 -7 5 -3 3 -6 -3 -41 callsubr
          2 0 5 -3 3 -6 5 -7 2 -6 6 rrcurveto
          -6 4 -4 9 -35 callsubr
          2 -14 -1 -7 2 -8 2 -7 6 -8 2 -10 2 -11 -1 -11 2 rrcurveto
          6 -27 -22 7 -28 -6 -5 -3 -6 -22 -22 3 -22 hhcurveto
          -11 -13 0 -7 -10 hvcurveto
          -2 -9 -8 -3 -11 0 callsubr
          -2 vhcurveto
          -4 -11 -6 -11 -12 -12 8 -21 -21 -7 -1 -7 -7 vvcurveto
          -1 -8 4 -6 -7 vvcurveto
          -2 vlineto
          -5 -5 -2 -3 -7 -13 7 -12 -12 -7 -4 -6 -8 vvcurveto
          1 -1 rlineto
          -8 5 -7 1 -8 vhcurveto
          2 -9 -2 -10 3 -10 rrcurveto
          -4 -10 -6 -9 -11 -8 3 -8 -8 vvcurveto
          -3 -45 callgsubr
          -3 vhcurveto
          7 -8 3 -9 -11 -14 -4 -14 -14 -13 -3 -13 -12 -14 9 -13 -14 -9 -3 -8 -9 vvcurveto
          -8 1 -9 -1 -8 vhcurveto
          -1 -7 -5 -6 -7 -5 3 -4 -6 -21 callsubr
          -5 -10 4 -10 -10 -18 -4 -17 -17 vvcurveto
          -17 4 -5 7 -14 vhcurveto
          20 -42 0 23 34 -10 4 -6 rcurveline
          -2 2 4 0 3 9 8 5 9 9 8 -3 9 hhcurveto
          10 9 4 2 10 hvcurveto
          13 3 13 2 13 5 14 6 13 11 15 5 1 1 rcurveline
          3 3 -2 1 2 hvcurveto
          4 7 11 6 21 12 13 1 rlinecurve
          5 12 8 11 12 6 37 -3 2 25 23 17 6 5 3 -9 4 17 5 8 5 9 6 9 rrcurveto
          6 6 hlineto
          7 8 4 11 9 7 rrcurveto
          -2 20 11 11 17 vvcurveto
          4 -1 5 -2 4 vhcurveto
          8 6 2 10 9 vvcurveto
          9 -1 9 1 9 vhcurveto
          1 13 5 13 12 6 -3 5 6 5 3 4 5 vvcurveto
          -103 -24 rmoveto
          -9 -5 -8 -2 -9 vhcurveto
          -3 -17 0 -48 -9 -12 -35 callgsubr
          0 18 callsubr
          -40 callgsubr
          -4 1 -3 -2 rrcurveto
          -6 -6 vlineto
          -22 -22 -20 -23 -16 -26 rrcurveto
          -2 -63 -20 -3 -6 hvcurveto
          -8 -21 -15 -15 -23 hhcurveto
          -11 callsubr
          1 -3 hvcurveto
          19 4 19 19 21 -4 19 21 vvcurveto
          14 5 9 1 14 vhcurveto
          -46 callgsubr
          2 3 13 3 13 14 vvcurveto
          22 -1 23 -8 21 vhcurveto
          4 7 1 8 7 32 -4 33 32 14 2 14 15 11 callgsubr
          5 6 3 5 11 callgsubr
          12 8 12 12 vvcurveto
          15 1 -4 1 8 vhcurveto
          3 hlineto
          20 1 18 -12 20 -2 12 -2 26 1 10 -6 3 -1 2 -3 2 -2 rrcurveto
          2 hlineto
          21 18 -27 -9 20 hvcurveto
          5 -13 31 -84 -6 vvcurveto
          -7 16 callgsubr
          vhcurveto
          4 -32 19 -32 -33 vvcurveto
          endchar
        </CharString>
        <CharString name="Dcaron">
          0 529 353 rmoveto
          27 callgsubr
          -35 callsubr
          -6 vvcurveto
          -12 -5 -13 -1 -13 vhcurveto
          -1 -9 1 -9 -9 vvcurveto
          -9 -2 -10 -8 -6 vhcurveto
          2 -4 1 -5 -4 vvcurveto
          -17 -11 -11 2 -20 vhcurveto
          -9 -7 -4 -11 -7 -8 rrcurveto
          -6 -6 vlineto
          -6 -9 -5 -9 -5 -8 -4 -17 -3 9 -6 -5 -23 -17 -2 -25 -37 3 -12 -6 -8 -11 -5 -12 -13 -1 -21 -12 -11 -6 -4 -7 rcurveline
          -1 -2 -3 2 -3 hhcurveto
          -1 -1 -15 -5 -13 -11 -14 -6 rlinecurve
          -13 -5 -13 -2 -13 -3 rrcurveto
          -2 -10 -9 -4 -10 -9 -8 3 -9 -9 -8 -5 -9 hhcurveto
          -3 -4 0 2 -2 hvcurveto
          -4 6 -34 10 0 -23 -20 42 rlinecurve
          -7 14 -4 5 17 17 4 17 18 10 -4 10 10 5 1 5 5 6 -3 4 5 vvcurveto
          7 5 1 callsubr
          1 8 -1 9 8 9 3 8 9 14 -9 13 14 12 3 13 13 14 4 14 14 vvcurveto
          11 -3 9 -7 8 vhcurveto
          1 -46 callsubr
          3 8 -3 8 8 vvcurveto
          11 6 9 4 10 vhcurveto
          -3 10 2 10 -2 9 rrcurveto
          -1 8 -5 7 8 vvcurveto
          -1 1 rlineto
          8 4 6 7 12 -7 -29 callsubr
          7 2 3 5 5 vhcurveto
          2 vlineto
          7 -4 6 1 8 vhcurveto
          7 1 7 7 21 -8 21 12 vvcurveto
          12 6 11 4 11 vhcurveto
          -1 2 0 2 2 vvcurveto
          11 8 3 2 9 vhcurveto
          7 10 13 0 11 22 22 -3 22 6 5 3 6 hhcurveto
          28 22 -7 -6 27 hvcurveto
          11 -2 11 1 10 -2 8 -2 7 -6 8 -2 7 -2 14 1 5 -2 6 -3 4 -9 6 -4 6 -6 7 -2 6 -5 3 -3 0 -5 3 -2 4 -3 6 3 3 -3 rrcurveto
          7 -5 0 -9 6 -6 10 -8 15 -2 11 -9 6 -14 10 -13 6 -15 2 -3 0 -4 2 -2 6 -4 rcurveline
          3 -6 -2 -7 2 -6 9 -20 26 -35 4 -19 rrcurveto
          2 -10 -2 -11 -10 -10 3 -9 -10 -11 -6 -9 -11 -9 6 -8 -10 vvcurveto
          -103 -24 rmoveto
          33 -19 32 -4 32 vhcurveto
          -1 7 2 8 7 vvcurveto
          6 -31 84 -5 13 vhcurveto
          9 -20 -18 27 -21 -32 callgsubr
          -2 2 -2 3 -3 1 -10 6 -26 -1 -12 2 -20 2 -18 12 -20 -1 rrcurveto
          -3 hlineto
          -1 -8 -1 4 -15 -12 -8 -12 -12 -35 callsubr
          -5 -5 -6 -3 -5 -35 callsubr
          -5 -15 -2 -14 -14 -32 4 -33 -32 vvcurveto
          -7 -1 -8 -4 -7 vhcurveto
          8 -21 1 -23 -22 -14 -3 -13 -13 vvcurveto
          -9 callgsubr
          2 -1 vhcurveto
          -1 -14 -5 -9 -14 -21 4 -19 -21 -19 -4 -19 -19 vvcurveto
          -1 3 -12 callgsubr
          hhcurveto
          23 15 15 8 21 hvcurveto
          3 6 63 20 2 hhcurveto
          16 26 20 23 22 22 rrcurveto
          6 6 hlineto
          3 2 4 -1 3 3 2 2 -1 4 2 3 2 3 5 0 3 4 9 12 0 48 3 17 rrcurveto
          2 9 5 8 9 vvcurveto
          -35 576 -104 callsubr
        </CharString>
        <CharString name="Dcroat">
          11 539 353 rmoveto
          10 -6 8 9 11 6 9 11 -31 callsubr
          7 1 7 7 vvcurveto
          20 -28 37 -12 27 -50 callgsubr
          2 7 -3 6 -6 4 rcurveline
          -2 2 -18 34 -6 15 -11 9 -15 2 -10 8 rrcurveto
          7 -7 0 14 -12 hhcurveto
          -11 3 7 5 -5 hvcurveto
          -6 5 -7 2 -6 6 -6 4 -4 9 -35 callsubr
          2 -14 -1 -7 2 -8 2 -7 6 -8 2 -10 2 -11 -1 -11 2 rrcurveto
          6 -27 -22 7 -28 -6 -5 -3 -6 -22 -22 3 -22 hhcurveto
          -18 -26 -4 -26 24 callgsubr
          -2 hvcurveto
          -4 -11 -6 -11 -12 -12 8 -21 -21 -8 -1 -8 -8 -26 callsubr
          -6 vvcurveto
          -2 vlineto
          -5 -5 -2 -3 -7 -13 7 -12 -12 -7 -4 -6 -8 vvcurveto
          1 -1 rlineto
          -8 5 -7 1 -8 vhcurveto
          2 -9 -2 -10 3 -10 rrcurveto
          -4 -10 -6 -9 -11 vvcurveto
          -2 vlineto
          1 -16 callsubr
          hhcurveto
          -27 -24 -6 -26 -18 hvcurveto
          -14 vlineto
          -25 -3 -33 35 vhcurveto
          7 -48 callsubr
          hhcurveto
          11 9 -1 -1 11 hvcurveto
          -2 -13 -1 -12 -12 -14 9 -13 -14 -9 -3 -8 -9 vvcurveto
          -17 vlineto
          -11 -6 -8 -9 -5 3 -4 -6 -21 callsubr
          -5 -10 4 -10 -10 -18 -4 -17 -17 vvcurveto
          -45 33 -18 2 vhcurveto
          3 4 1 4 hhcurveto
          5 6 -1 -2 8 hvcurveto
          4 -6 rlineto
          -2 2 4 0 3 9 8 5 9 9 8 -3 9 hhcurveto
          17 30 8 8 21 hvcurveto
          14 6 13 11 15 5 1 1 rcurveline
          2 3 -1 2 hhcurveto
          1 hlineto
          4 7 11 6 21 12 13 1 rlinecurve
          5 12 8 11 12 6 rrcurveto
          6 hlineto
          31 3 23 16 22 hvcurveto
          6 5 3 -9 4 17 16 26 rcurveline
          6 6 hlineto
          7 8 4 11 9 7 rrcurveto
          5 vlineto
          17 9 10 16 vvcurveto
          4 -1 5 -2 4 vhcurveto
          8 6 2 10 9 6 -1 6 6 16 7 16 15 6 -3 5 6 5 3 4 5 vvcurveto
          -199 2 rmoveto
          18 -12 4 -11 6 vhcurveto
          -5 6 -3 1 rlineto
          -13 -10 6 -13 -11 -11 -4 -11 -3 -2 4 -3 hhcurveto
          -8 -6 -3 0 -9 hhcurveto
          -7 -7 1 2 -7 hvcurveto
          -1 26 -3 27 26 14 2 14 15 11 callgsubr
          5 6 3 5 11 callgsubr
          12 8 12 12 vvcurveto
          15 1 -4 1 8 vhcurveto
          3 hlineto
          20 -1 18 -10 20 -2 18 -2 25 1 12 -12 rrcurveto
          2 hlineto
          21 18 -27 -9 20 hvcurveto
          5 -13 31 -84 -6 -6 -1 -6 -6 -33 23 -34 -34 vvcurveto
          -9 -5 -8 -2 -9 vhcurveto
          -3 -17 0 -48 -9 -12 -35 callgsubr
          0 -2 -3 -10 -15 5 7 -8 -5 rrcurveto
          -6 -6 vlineto
          -22 -22 -20 -23 -16 -26 rrcurveto
          -2 -63 -20 -3 -6 hvcurveto
          -8 -21 -15 -15 -23 hhcurveto
          -11 callsubr
          1 -3 hvcurveto
          19 4 19 19 21 -4 19 21 vvcurveto
          14 5 9 1 14 vhcurveto
          -46 callgsubr
          2 3 13 3 13 14 vvcurveto
          10 vlineto
          -1 1 1 1 2 3 1 7 6 4 4 -3 4 11 10 3 11 11 10 -4 11 hhcurveto
          19 34 32 25 hvcurveto
          endchar
        </CharString>
        <CharString name="E">
          -22 526 106 rmoveto
          -105 callsubr
          17 20 8 24 hhcurveto
          31 7 -5 16 27 hvcurveto
          -67 callgsubr
          endchar
        </CharString>
        <CharString name="Eacute">
          -22 526 106 rmoveto
          -105 callsubr
          17 20 8 24 hhcurveto
          31 7 -5 16 27 hvcurveto
          -67 callgsubr
          -132 808 rmoveto
          25 -7 -1 -16 12 vhcurveto
          -49 callsubr
          0 -3 hhcurveto
          -26 -22 -28 -24 -4 hvcurveto
          -7 -18 -2 -22 -24 hhcurveto
          -10 -22 -15 -20 -11 -23 rrcurveto
          -7 5 -2 3 -6 -50 callgsubr
          -2 -11 9 hhcurveto
          -2 5 -56 callsubr
          hhcurveto
          5 21 6 2 4 hvcurveto
          3 -60 callsubr
          3 -57 callsubr
          rcurveline
          8 8 1 13 7 9 2 3 5 2 7 callsubr
          1 5 3 4 11 12 19 7 4 17 2 2 -66 callgsubr
          1 rrcurveto
          5 4 7 18 7 vvcurveto
          endchar
        </CharString>
        <CharString name="Ebreve">
          -22 526 106 rmoveto
          -105 callsubr
          17 20 8 24 hhcurveto
          31 7 -5 16 27 hvcurveto
          -67 callgsubr
          -143 768 -102 callgsubr
          endchar
        </CharString>
        <CharString name="Ecaron">
          -84 callgsubr
          -142 795 -104 callsubr
        </CharString>
        <CharString name="Ecircumflex">
          -22 526 106 rmoveto
          -105 callsubr
          17 20 8 24 hhcurveto
          31 7 -5 16 27 hvcurveto
          -67 callgsubr
          -152 718 -106 callgsubr
        </CharString>
        <CharString name="Edieresis">
          -22 526 106 rmoveto
          -105 callsubr
          17 20 8 24 hhcurveto
          31 7 -5 16 27 hvcurveto
          -67 callgsubr
          -141 715 -100 callsubr
        </CharString>
        <CharString name="Edotaccent">
          -22 526 106 rmoveto
          -105 callsubr
          17 20 8 24 hhcurveto
          31 7 -5 16 27 hvcurveto
          -67 callgsubr
          -210 707 -82 callsubr
        </CharString>
        <CharString name="Egrave">
          -84 callgsubr
          -401 815 rmoveto
          -7 7 -18 5 -4 vhcurveto
          -66 callgsubr
          1 2 -2 4 -17 19 -7 11 -12 3 -4 1 -5 3 -41 callsubr
          5 -2 2 -3 7 -9 1 -13 8 -8 5 -4 rcurveline
          3 -3 -1 -41 callsubr
          rrcurveto
          -2 4 21 -6 5 hhcurveto
          4 5 1 2 5 hvcurveto
          9 -2 11 2 6 hvcurveto
          -8 callgsubr
          2 7 vvcurveto
          -11 23 -15 20 -10 22 rrcurveto
          -24 -2 22 7 -18 hvcurveto
          24 -4 -22 28 -26 hhcurveto
          -3 -2 0 -1 -2 hvcurveto
          -16 -12 -7 1 -25 vvcurveto
          endchar
        </CharString>
        <CharString name="Emacron">
          -22 526 106 rmoveto
          -105 callsubr
          17 20 8 24 hhcurveto
          31 7 -5 16 27 hvcurveto
          -67 callgsubr
          -123 716 -95 callsubr
        </CharString>
        <CharString name="Eng">
          46 563 64 rmoveto
          35 -10 33 34 9 3 8 10 20 -13 18 20 17 7 17 17 vvcurveto
          12 -5 11 -2 12 vhcurveto
          -3 24 0 25 25 5 -51 callgsubr
          6 -6 8 8 19 4 19 19 vvcurveto
          30 -4 31 3 31 vhcurveto
          1 8 4 6 1 8 rrcurveto
          -2 -66 callgsubr
          4 vvcurveto
          22 3 26 -12 20 vhcurveto
          8 -6 -20 17 -10 hhcurveto
          -7 1 -12 1 -11 -8 -12 -3 rlinecurve
          -6 -9 -1 -14 -9 -6 rrcurveto
          3 -21 3 -24 -21 -22 -9 -22 -23 -5 3 -5 -6 -17 -6 -17 -17 -28 10 -26 -27 -23 -4 -22 -23 -14 5 -13 -14 vvcurveto
          -5 0 -4 -2 -4 vhcurveto
          -4 -48 53 8 -6 hvcurveto
          -3 4 0 5 -3 4 -7 3 rcurveline
          -2 -46 callsubr
          -2 3 -12 20 -18 17 -12 21 -12 20 -9 18 -14 20 -5 7 -3 9 -5 6 -11 13 -15 7 -10 13 -8 10 -2 12 -6 10 -6 10 -13 6 -7 10 rrcurveto
          -3 4 0 7 -3 -41 callgsubr
          -7 2 -3 6 -13 22 -12 25 -14 24 rrcurveto
          3 -11 -12 3 -11 hhcurveto
          -7 -7 -1 -2 -7 hvcurveto
          -8 -13 -14 -6 -10 -10 rrcurveto
          -7 vlineto
          -1 -11 5 -11 -11 -13 -7 -12 -13 -22 13 -22 -23 -8 -7 -6 -9 -61 10 -62 -61 -4 -3 -3 -6 -41 callsubr
          -6 -5 -6 -5 -6 -5 3 -2 -2 -5 -3 -3 -4 -8 2 -8 -8 vvcurveto
          -6 -2 -6 -4 -4 vhcurveto
          9 -4 -3 -17 4 -8 rrcurveto
          -8 -6 -7 -8 -22 9 -40 -25 -7 -3 -7 -7 vvcurveto
          -16 33 -50 17 13 15 5 5 12 vhcurveto
          24 28 -7 81 37 vvcurveto
          20 0 21 -4 19 vhcurveto
          -1 7 -5 7 6 5 3 3 5 11 callgsubr
          vvcurveto
          2 4 1 4 5 11 callgsubr
          27 6 27 28 22 -3 21 22 vvcurveto
          11 1 12 2 10 vhcurveto
          12 -12 4 -17 10 -13 30 -39 28 -40 29 -40 4 -5 6 -3 3 -5 4 -6 2 -7 4 -6 15 -23 18 -18 18 -20 5 -6 4 -10 1 -7 18 -3 8 -21 6 -15 rrcurveto
          12 -23 24 -12 9 -26 rrcurveto
          9 -23 1 -60 -28 vvcurveto
          -22 -12 -11 -4 -20 vhcurveto
          -3 -15 4 -16 -4 -15 -2 -4 -3 -4 -2 -4 rrcurveto
          -30 -15 -11 -41 -43 hhcurveto
          -12 -11 4 12 -4 hvcurveto
          -10 4 -9 5 -10 4 -6 10 -11 7 -3 12 -22 2 -14 30 -9 6 rrcurveto
          2 -2 -33 11 -4 hhcurveto
          -14 -11 -12 -4 -13 hvcurveto
          -23 vlineto
          -1 -51 5 6 34 -32 11 -9 7 -16 15 -4 2 -10 57 -41 12 -4 rrcurveto
          -1 4 6 0 4 15 14 2 15 20 17 -11 18 hhcurveto
          26 6 21 9 19 hvcurveto
          9 4 11 -1 9 3 12 22 13 22 14 21 rrcurveto
          3 vlineto
          5 -2 5 5 vvcurveto
          2 0 3 2 2 vhcurveto
          13 24 -6 13 6 25 rrcurveto
          3 17 7 10 18 47 3 47 46 vvcurveto
          endchar
        </CharString>
        <CharString name="Eogonek">
          -22 513 -76 -76 callgsubr
          8 hvcurveto
          3 0 2 1 3 vhcurveto
          5 2 6 2 7 5 -67 callgsubr
          -105 callsubr
          hhcurveto
          10 11 3 2 13 hvcurveto
          -9 -17 -12 -20 -7 -7 rrcurveto
          -88 callgsubr
          endchar
        </CharString>
        <CharString name="Eth">
          11 539 353 rmoveto
          10 -6 8 9 11 6 9 11 -31 callsubr
          7 1 7 7 vvcurveto
          20 -28 37 -12 27 -50 callgsubr
          2 7 -3 6 -6 4 rcurveline
          -2 2 -18 34 -6 15 -11 9 -15 2 -10 8 rrcurveto
          7 -7 0 14 -12 hhcurveto
          -11 3 7 5 -5 hvcurveto
          -6 5 -7 2 -6 6 -6 4 -4 9 -35 callsubr
          2 -14 -1 -7 2 -8 2 -7 6 -8 2 -10 2 -11 -1 -11 2 rrcurveto
          6 -27 -22 7 -28 -6 -5 -3 -6 -22 -22 3 -22 hhcurveto
          -18 -26 -4 -26 24 callgsubr
          -2 hvcurveto
          -4 -11 -6 -11 -12 -12 8 -21 -21 -8 -1 -8 -8 -26 callsubr
          -6 vvcurveto
          -2 vlineto
          -5 -5 -2 -3 -7 -13 7 -12 -12 -7 -4 -6 -8 vvcurveto
          1 -1 rlineto
          -8 5 -7 1 -8 vhcurveto
          2 -9 -2 -10 3 -10 rrcurveto
          -4 -10 -6 -9 -11 vvcurveto
          -2 vlineto
          1 -16 callsubr
          hhcurveto
          -27 -24 -6 -26 -18 hvcurveto
          -14 vlineto
          -25 -3 -33 35 vhcurveto
          7 -48 callsubr
          hhcurveto
          11 9 -1 -1 11 hvcurveto
          -2 -13 -1 -12 -12 -14 9 -13 -14 -9 -3 -8 -9 vvcurveto
          -17 vlineto
          -11 -6 -8 -9 -5 3 -4 -6 -21 callsubr
          -5 -10 4 -10 -10 -18 -4 -17 -17 vvcurveto
          -45 33 -18 2 vhcurveto
          3 4 1 4 hhcurveto
          5 6 -1 -2 8 hvcurveto
          4 -6 rlineto
          -2 2 4 0 3 9 8 5 9 9 8 -3 9 hhcurveto
          17 30 8 8 21 hvcurveto
          14 6 13 11 15 5 1 1 rcurveline
          2 3 -1 2 hhcurveto
          1 hlineto
          4 7 11 6 21 12 13 1 rlinecurve
          5 12 8 11 12 6 rrcurveto
          6 hlineto
          31 3 23 16 22 hvcurveto
          6 5 3 -9 4 17 16 26 rcurveline
          6 6 hlineto
          7 8 4 11 9 7 rrcurveto
          5 vlineto
          17 9 10 16 vvcurveto
          4 -1 5 -2 4 vhcurveto
          8 6 2 10 9 6 -1 6 6 16 7 16 15 6 -3 5 6 5 3 4 5 vvcurveto
          -199 2 rmoveto
          18 -12 4 -11 6 vhcurveto
          -5 6 -3 1 rlineto
          -13 -10 6 -13 -11 -11 -4 -11 -3 -2 4 -3 hhcurveto
          -8 -6 -3 0 -9 hhcurveto
          -7 -7 1 2 -7 hvcurveto
          -1 26 -3 27 26 14 2 14 15 11 callgsubr
          5 6 3 5 11 callgsubr
          12 8 12 12 vvcurveto
          15 1 -4 1 8 vhcurveto
          3 hlineto
          20 -1 18 -10 20 -2 18 -2 25 1 12 -12 rrcurveto
          2 hlineto
          21 18 -27 -9 20 hvcurveto
          5 -13 31 -84 -6 -6 -1 -6 -6 -33 23 -34 -34 vvcurveto
          -9 -5 -8 -2 -9 vhcurveto
          -3 -17 0 -48 -9 -12 -35 callgsubr
          0 -2 -3 -10 -15 5 7 -8 -5 rrcurveto
          -6 -6 vlineto
          -22 -22 -20 -23 -16 -26 rrcurveto
          -2 -63 -20 -3 -6 hvcurveto
          -8 -21 -15 -15 -23 hhcurveto
          -11 callsubr
          1 -3 hvcurveto
          19 4 19 19 21 -4 19 21 vvcurveto
          14 5 9 1 14 vhcurveto
          -46 callgsubr
          2 3 13 3 13 14 vvcurveto
          10 vlineto
          -1 1 1 1 2 3 1 7 6 4 4 -3 4 11 10 3 11 11 10 -4 11 hhcurveto
          19 34 32 25 hvcurveto
          endchar
        </CharString>
        <CharString name="Euro">
          52 571 243 rmoveto
          12 -5 12 -2 12 vhcurveto
          6 -15 -14 8 -16 hhcurveto
          -23 0 -16 -1 -13 hvcurveto
          -1 -8 -6 -7 -2 -8 -4 -9 1 -10 -4 -10 -5 -12 -9 -7 -8 -10 rrcurveto
          -31 -28 -9 -8 -44 hhcurveto
          -38 -48 20 35 -17 hvcurveto
          -6 12 -8 11 -2 13 rrcurveto
          20 11 50 8 30 vvcurveto
          10 -8 6 -8 6 vhcurveto
          -31 24 -40 -18 29 2 0 3 2 vvcurveto
          -32 callsubr
          12 11 -4 11 6 -20 callgsubr
          10 9 -7 10 hhcurveto
          27 40 31 29 2 0 -66 callgsubr
          hvcurveto
          16 -16 -28 10 -22 -7 -7 -3 -7 -9 -8 3 -9 -5 -5 -3 -5 hhcurveto
          -4 -2 3 3 -1 hvcurveto
          27 1 65 60 26 5 4 -3 5 5 5 3 5 12 15 -13 16 hhcurveto
          6 -12 30 -27 -8 vvcurveto
          -19 22 -54 20 -9 vhcurveto
          3 -6 rlineto
          -3 5 5 -1 6 hhcurveto
          15 13 10 3 14 hvcurveto
          8 19 8 19 21 28 -17 11 13 19 callgsubr
          -7 6 -4 9 -8 4 -3 21 -18 7 -8 17 rrcurveto
          -9 2 -43 26 8 vvcurveto
          4 -26 -19 19 -27 -11 -11 -2 -10 hhcurveto
          -5 -5 0 1 -5 hvcurveto
          2 -1 0 -2 vhcurveto
          -1 -2 -2 -1 hhcurveto
          -19 -9 -14 -13 -18 -10 -4 -2 -5 1 -4 -2 -7 -4 -18 -20 -9 1 rrcurveto
          -2 hlineto
          -6 -16 -14 -9 -9 -14 -2 -2 1 -5 -2 -2 rrcurveto
          -6 -7 -4 12 -15 vvcurveto
          -6 -3 -4 -7 -8 -28 -1 -1 rlinecurve
          -2 -3 -9 2 -5 -1 1 -1 -1 vvcurveto
          -7 -12 22 -17 -33 hhcurveto
          -31 10 0 -18 -20 hvcurveto
          -7 hlineto
          -3 -9 -7 -4 -10 vvcurveto
          -13 10 -14 4 -12 vhcurveto
          13 -9 33 7 -1 -24 rrcurveto
          -3 vlineto
          -4 -7 -8 -2 -8 -15 -15 5 -15 hhcurveto
          -22 -15 -18 -22 -45 31 -7 37 16 17 2 -2 17 hvcurveto
          7 -10 8 -20 4 -12 2 -6 22 -23 -1 -17 rrcurveto
          -2 vlineto
          6 -4 77 -78 -2 vvcurveto
          2 22 16 -18 18 6 6 3 7 hhcurveto
          -3 2 4 0 3 hhcurveto
          17 22 2 4 16 hvcurveto
          16 4 11 15 15 4 15 -3 7 7 13 5 5 2 -28 callgsubr
          3 8 5 18 33 7 10 rrcurveto
          2 4 11 11 3 4 -1 3 4 vvcurveto
          7 6 rlineto
          7 17 13 26 18 vvcurveto
          endchar
        </CharString>
        <CharString name="F">
          1 559 655 rmoveto
          9 -1 8 -1 8 vhcurveto
          -8 2 -2 11 -6 3 -14 9 -56 -5 -10 13 -4 -4 rcurveline
          2 -9 -10 5 -10 -17 -24 -13 -27 -14 -13 7 -14 -7 -2 -4 -3 hhcurveto
          0 -1 3 0 vhcurveto
          -7 1 rlineto
          1 -15 -13 -8 -14 -13 -13 7 -14 hhcurveto
          -10 -9 -1 -3 -8 hvcurveto
          5 -6 -7 3 -7 -5 -6 -1 -5 12 callgsubr
          -6 -4 -3 -6 hhcurveto
          -26 -36 5 -18 -22 hvcurveto
          -3 -16 -4 -17 -16 vvcurveto
          -48 56 0 3 -16 vhcurveto
          -5 -13 -2 -14 -13 -15 7 -12 -14 -5 -4 -7 -1 vvcurveto
          -3 1 -1 3 -2 vhcurveto
          -2 -44 5 -45 -10 -43 2 -9 -13 -3 -5 -4 rrcurveto
          -13 -12 -12 -31 -18 -42 40 14 -36 -13 -5 -13 -13 -12 8 -9 -13 -9 -2 -9 -8 -11 7 -9 -10 -9 -4 -9 -9 vvcurveto
          -26 14 -15 6 -24 vhcurveto
          -4 15 13 -9 16 hhcurveto
          41 16 45 34 hvcurveto
          9 -1 10 9 -22 callsubr
          5 -6 3 5 -22 callsubr
          vvcurveto
          8 -9 17 -1 11 vhcurveto
          -2 19 1 23 20 vvcurveto
          15 8 6 15 vhcurveto
          10 9 -3 10 31 30 14 32 hhcurveto
          15 14 -3 2 14 hvcurveto
          1 9 7 6 9 hhcurveto
          4 hlineto
          10 13 15 8 7 14 rrcurveto
          17 -9 15 16 vvcurveto
          11 -22 -23 9 -25 -22 -21 -9 -22 hhcurveto
          -6 -24 callgsubr
          -6 hvcurveto
          -9 -4 -9 -4 -11 -1 -10 2 -10 5 -9 6 rrcurveto
          -9 -5 -10 -8 hhcurveto
          -8 -2 9 7 hvcurveto
          11 6 10 11 8 -3 7 7 17 3 16 16 19 -3 19 19 vvcurveto
          18 4 18 3 17 vhcurveto
          -1 18 19 7 19 14 13 -6 14 13 12 3 13 13 12 -3 13 33 33 6 33 9 9 -3 9 hhcurveto
          37 20 33 32 hvcurveto
          endchar
        </CharString>
        <CharString name="G">
          -104 callgsubr
          13 vlineto
          endchar
        </CharString>
        <CharString name="Gbreve">
          -104 callgsubr
          -218 543 -102 callgsubr
          endchar
        </CharString>
        <CharString name="Gcircumflex">
          -104 callgsubr
          -222 494 -106 callgsubr
        </CharString>
        <CharString name="Gcommaaccent">
          -104 callgsubr
          -273 -425 -99 callgsubr
          endchar
        </CharString>
        <CharString name="Gdotaccent">
          -104 callgsubr
          -285 492 -82 callsubr
        </CharString>
        <CharString name="H">
          -85 callsubr
          endchar
        </CharString>
        <CharString name="Hbar">
          73 622 446 rmoveto
          31 -21 -9 -19 6 vhcurveto
          -9 6 -5 1 rlineto
          -1 7 hlineto
          20 -8 18 17 20 10 19 21 9 -3 9 9 vvcurveto
          -2 46 6 22 -46 22 rrcurveto
          4 -9 -9 6 -9 hhcurveto
          -11 -8 -11 1 -10 hvcurveto
          -2 hlineto
          -8 -23 -8 -23 -25 -12 6 -12 -11 vvcurveto
          -3 22 callgsubr
          -3 3 -4 -5 -11 -3 -11 -11 vvcurveto
          -4 1 -5 2 -4 vhcurveto
          -1 -8 -6 4 -12 vvcurveto
          -15 0 -19 4 -14 vhcurveto
          -2 -5 vlineto
          -17 callgsubr
          hhcurveto
          -12 -12 5 3 -11 hvcurveto
          1 vlineto
          6 -57 callsubr
          17 -5 19 18 vvcurveto
          13 2 12 6 11 vhcurveto
          -10 19 7 28 -13 18 rrcurveto
          8 -24 11 12 -33 hhcurveto
          -40 -10 -17 -38 hvcurveto
          -14 2 -14 -14 -6 -9 -9 -10 -7 3 -7 -8 vvcurveto
          -7 callsubr
          2 -7 vhcurveto
          2 -9 7 -6 1 -8 -32 -3 -28 -8 -23 -19 rrcurveto
          10 callsubr
          hhcurveto
          6 7 0 1 6 hvcurveto
          2 -7 5 -7 -7 -16 -8 -16 -16 vvcurveto
          -3 0 -4 1 -3 vhcurveto
          5 -11 1 -12 -14 hhcurveto
          -8 -8 2 -2 -8 hvcurveto
          -27 -6 -29 -31 -28 vvcurveto
          -23 15 3 5 -18 vhcurveto
          17 13 -13 -3 15 hvcurveto
          15 -3 17 4 14 -8 rrcurveto
          2 -6 1 -8 -7 -26 -10 -25 -27 vvcurveto
          -40 24 -51 47 12 21 12 11 6 vhcurveto
          2 5 0 11 1 6 rrcurveto
          1 6 5 8 6 vvcurveto
          6 -6 52 -3 6 vhcurveto
          1 10 9 4 11 vvcurveto
          14 -11 12 1 14 vhcurveto
          3 vlineto
          4 11 12 1 11 hhcurveto
          4 19 -4 5 1 hvcurveto
          20 18 -6 20 17 16 6 18 26 26 -6 26 hhcurveto
          -4 -22 8 -22 -21 -14 -7 -12 -12 -11 6 -10 -10 -8 -3 -8 -8 vvcurveto
          -18 4 -19 12 -15 vhcurveto
          20 -8 21 -6 22 1 rrcurveto
          11 hlineto
          30 18 3 43 31 51 -1 51 51 27 -6 25 26 vvcurveto
          15 1 15 -1 15 vhcurveto
          -1 15 -6 15 15 vvcurveto
          5 2 5 1 5 vhcurveto
          29 6 28 16 31 vvcurveto
          -417 -71 rmoveto
          4 -1 5 4 vvcurveto
          -1 15 14 0 15 1 callgsubr
          hhcurveto
          11 12 1 1 11 hvcurveto
          -2 -10 -1 -11 -10 -17 10 -13 -16 vvcurveto
          -4 -1 -4 -2 -3 vhcurveto
          3 -17 -16 1 -17 -43 -43 -5 -42 hhcurveto
          -15 -57 -2 9 -8 hvcurveto
          3 22 4 21 22 vvcurveto
          endchar
        </CharString>
        <CharString name="Hcircumflex">
          -85 callsubr
          -149 733 -106 callgsubr
        </CharString>
        <CharString name="I">
          -308 184 803 -78 callgsubr
          13 -372 -103 callsubr
          endchar
        </CharString>
        <CharString name="IJ">
          268 184 803 -78 callgsubr
          13 -372 -103 callsubr
          577 -37 -90 callgsubr
          endchar
        </CharString>
        <CharString name="Iacute">
          -310 196 431 -103 callsubr
          89 483 rmoveto
          25 -7 -1 -16 12 vhcurveto
          -49 callsubr
          0 -3 hhcurveto
          -26 -22 -28 -24 -4 hvcurveto
          -7 -18 -2 -22 -24 hhcurveto
          -10 -22 -15 -20 -11 -23 rrcurveto
          -7 5 -2 3 -6 -50 callgsubr
          -2 -11 9 hhcurveto
          -2 5 -56 callsubr
          hhcurveto
          5 21 6 2 4 hvcurveto
          3 -60 callsubr
          3 -57 callsubr
          rcurveline
          8 8 1 13 7 9 2 3 5 2 7 callsubr
          1 5 3 4 11 12 19 7 4 17 2 2 -66 callgsubr
          1 rrcurveto
          5 4 7 18 7 vvcurveto
          endchar
        </CharString>
        <CharString name="Ibreve">
          -308 197 431 -103 callsubr
          43 443 -102 callgsubr
          endchar
        </CharString>
        <CharString name="Icircumflex">
          -298 209 431 -103 callsubr
          26 353 -106 callgsubr
        </CharString>
        <CharString name="Idieresis">
          -310 196 431 -103 callsubr
          34 358 -100 callsubr
        </CharString>
        <CharString name="Idotaccent">
          -308 184 803 -78 callgsubr
          13 -372 -103 callsubr
          endchar
        </CharString>
        <CharString name="Igrave">
          -310 196 431 rmoveto
          -20 -10 -20 -21 -7 3 -7 -7 -14 -6 -15 -15 vvcurveto
          -9 2 -8 4 -8 vhcurveto
          -4 -7 -1 -7 -8 -28 1 -29 -29 vvcurveto
          -15 1 -16 6 -13 vhcurveto
          -6 -13 3 -15 -14 -5 -3 -5 -6 -10 2 -9 -10 vvcurveto
          -20 -24 -13 -18 -13 -46 25 11 -7 vhcurveto
          -4 5 -9 28 6 4 3 3 4 9 -7 8 7 7 4 6 7 6 -4 5 7 25 17 25 28 vvcurveto
          15 -1 16 -3 15 vhcurveto
          -9 callsubr
          7 10 9 3 9 9 vvcurveto
          8 -2 7 -4 6 vhcurveto
          8 13 2 18 15 vvcurveto
          18 -3 24 -11 15 vhcurveto
          5 20 -4 20 20 vvcurveto
          7 1 -29 callgsubr
          vhcurveto
          -3 9 -10 6 11 4 10 19 14 12 -7 -44 callgsubr
          18 8 13 8 15 vhcurveto
          7 14 15 4 16 hhcurveto
          11 11 -2 -3 11 hvcurveto
          5 -4 33 -57 -6 -17 -3 -16 -17 -14 -7 -12 -13 vvcurveto
          -18 3 -41 4 -17 vhcurveto
          1 -6 9 -13 -4 vvcurveto
          -225 480 rmoveto
          -7 7 -18 5 -4 vhcurveto
          -66 callgsubr
          1 2 -2 4 -17 19 -7 11 -12 3 -4 1 -5 3 -41 callsubr
          5 -2 2 -3 7 -9 1 -13 8 -8 5 -4 rcurveline
          3 -3 -1 -41 callsubr
          rrcurveto
          -2 4 21 -6 5 hhcurveto
          4 5 1 2 5 hvcurveto
          9 -2 11 2 6 hvcurveto
          -8 callgsubr
          2 7 vvcurveto
          -11 23 -15 20 -10 22 rrcurveto
          -24 -2 22 7 -18 hvcurveto
          24 -4 -22 28 -26 hhcurveto
          -3 -2 0 -1 -2 hvcurveto
          -16 -12 -7 1 -25 vvcurveto
          endchar
        </CharString>
        <CharString name="Imacron">
          -308 197 431 -103 callsubr
          64 387 -95 callsubr
        </CharString>
        <CharString name="Iogonek">
          -308 204 -81 -76 callgsubr
          5 hvcurveto
          3 vlineto
          5 vlineto
          14 5 12 10 15 10 -2 9 10 -22 callsubr
          vvcurveto
          14 -3 15 6 13 vhcurveto
          -6 13 -1 16 15 29 -1 29 28 vvcurveto
          8 1 7 4 7 vhcurveto
          -4 8 -2 8 9 15 6 15 14 7 -3 7 7 21 10 20 20 vvcurveto
          4 -9 13 -1 6 vhcurveto
          -4 17 -3 41 18 13 7 12 14 17 3 16 17 vvcurveto
          6 -33 57 -5 4 vhcurveto
          3 -11 -11 2 -11 hhcurveto
          -16 -15 -4 -7 -14 hvcurveto
          -8 -15 -8 -13 -18 -11 7 -10 -12 -14 -10 -19 -4 vvcurveto
          -11 10 -6 3 -9 vhcurveto
          -2 -7 -1 -7 -7 vvcurveto
          -20 4 -20 -5 -20 vhcurveto
          11 -15 3 -24 -18 vvcurveto
          -15 -2 -18 -8 -13 vhcurveto
          4 -6 2 -7 -8 -9 -3 -9 -9 vvcurveto
          -10 5 -7 1 -9 vhcurveto
          3 -15 1 -16 -15 -28 -17 -25 -25 -7 4 -5 -6 -7 -4 -6 -7 -7 7 -8 -9 -4 -3 -3 -4 vvcurveto
          -6 9 -28 4 -5 vhcurveto
          2 -4 8 -6 9 -6 -10 -19 -19 -34 -9 -10 rrcurveto
          -88 callgsubr
          -20 884 -78 callgsubr
          endchar
        </CharString>
        <CharString name="Itilde">
          -308 197 431 -103 callsubr
          76 429 -101 callsubr
        </CharString>
        <CharString name="J">
          14 520 394 -90 callgsubr
          endchar
        </CharString>
        <CharString name="Jcircumflex">
          14 520 394 -90 callgsubr
          34 493 -106 callgsubr
        </CharString>
        <CharString name="K">
          -84 callsubr
          endchar
        </CharString>
        <CharString name="Kcommaaccent">
          -84 callsubr
          -202 -151 -99 callgsubr
          endchar
        </CharString>
        <CharString name="L">
          -74 -93 callsubr
          endchar
        </CharString>
        <CharString name="Lacute">
          -74 -93 callsubr
          -160 839 rmoveto
          25 -7 -1 -16 12 vhcurveto
          -49 callsubr
          0 -3 hhcurveto
          -26 -22 -28 -24 -4 hvcurveto
          -7 -18 -2 -22 -24 hhcurveto
          -10 -22 -15 -20 -11 -23 rrcurveto
          -7 5 -2 3 -6 -50 callgsubr
          -2 -11 9 hhcurveto
          -2 5 -56 callsubr
          hhcurveto
          5 21 6 2 4 hvcurveto
          3 -60 callsubr
          3 -57 callsubr
          rcurveline
          8 8 1 13 7 9 2 3 5 2 7 callsubr
          1 5 3 4 11 12 19 7 4 17 2 2 -66 callgsubr
          1 rrcurveto
          5 4 7 18 7 vvcurveto
          endchar
        </CharString>
        <CharString name="Lcaron">
          -74 -93 callsubr
          -133 627 -99 callgsubr
          endchar
        </CharString>
        <CharString name="Lcommaaccent">
          -74 -93 callsubr
          -188 -185 -99 callgsubr
          endchar
        </CharString>
        <CharString name="Ldot">
          21 -93 callsubr
          35 303 -53 callsubr
          endchar
        </CharString>
        <CharString name="Lslash">
          -15 374 420 -2 callsubr
          -4 -9 -16 -16 -9 -1 -46 callgsubr
          hhcurveto
          1 5 1 6 6 28 -4 28 27 23 1 24 24 vvcurveto
          67 -16 55 -59 -31 -14 -36 -27 vhcurveto
          -16 7 -15 -16 -9 -4 -9 -9 -9 4 -9 -9 -13 -7 -13 -13 -11 3 -9 -11 vvcurveto
          1 -78 rlineto
          -15 5 -21 -21 vhcurveto
          -3 -4 0 -3 -15 -2 -11 -13 -2 -3 0 -2 hhcurveto
          -30 -28 -35 -27 -5 hvcurveto
          7 -13 rlineto
          -19 10 12 -25 24 hhcurveto
          21 30 21 7 25 hvcurveto
          2 -9 1 -9 -9 -21 -13 -19 -20 -12 13 -13 -15 -16 -10 -14 -16 vvcurveto
          -26 11 -22 9 -24 vhcurveto
          -14 19 27 -8 25 27 26 9 27 13 12 -3 13 18 16 7 19 hhcurveto
          54 hlineto
          6 5 -4 4 hhcurveto
          0 1 3 1 vvcurveto
          -1 9 8 -3 8 13 -5 7 11 hhcurveto
          35 17 20 33 6 -1 4 -4 5 hvcurveto
          37 -29 -24 8 -60 -14 -13 -7 -14 -9 -9 4 -9 -10 -23 -2 -23 hhcurveto
          -31 -31 3 15 -4 hvcurveto
          1 12 1 12 13 26 -2 26 27 vvcurveto
          19 1 18 1 19 vhcurveto
          20 -10 10 3 11 hvcurveto
          3 2 6 -1 5 2 11 5 9 8 11 5 rrcurveto
          32 11 35 3 56 vvcurveto
          6 -1 6 -2 5 vhcurveto
          endchar
        </CharString>
        <CharString name="M">
          220 766 67 rmoveto
          31 -43 68 28 10 4 9 10 18 -13 15 19 3 0 4 4 vvcurveto
          9 -7 8 -3 9 vhcurveto
          -2 8 2 9 -3 9 -5 15 -16 8 -5 15 rrcurveto
          5 21 -11 8 17 vvcurveto
          19 -7 8 -3 18 vhcurveto
          -5 26 5 29 -9 25 -7 17 -8 14 1 18 1 9 rcurveline
          -9 13 -8 13 16 vvcurveto
          7 vlineto
          -4 6 -11 0 -7 3 -8 4 -6 8 -9 1 rrcurveto
          1 -4 -4 0 -4 hhcurveto
          -12 -12 -2 -2 -12 hvcurveto
          -12 -10 -27 -49 -15 -7 4 -6 -6 vvcurveto
          -16 -4 -19 -6 -14 vhcurveto
          -4 -9 -9 -7 -3 -10 -6 -16 1 -18 -5 -17 rrcurveto
          -4 -14 -10 -13 -15 -2 1 -2 -3 vvcurveto
          -12 -9 -11 -92 -19 -11 -14 13 0 21 -8 17 rrcurveto
          -6 13 -17 17 13 8 3 7 8 24 -16 20 24 10 3 -44 callgsubr
          -7 18 -19 16 21 7 4 7 8 vvcurveto
          13 -7 13 -3 13 vhcurveto
          -3 17 1 18 -4 16 rrcurveto
          6 -23 -10 20 -27 hhcurveto
          -27 -24 -17 -29 -4 0 -4 -25 callgsubr
          -9 -1 3 -12 -7 -35 callgsubr
          -10 -2 -2 -6 -8 -21 6 -27 -8 -23 rrcurveto
          -10 -29 -21 -11 -38 vvcurveto
          -11 2 -10 4 -10 vhcurveto
          -5 -15 -11 -13 -16 vvcurveto
          -5 1 -5 2 -5 vhcurveto
          -10 -7 0 -16 -6 -6 -9 -7 5 6 -6 -11 -15 -29 8 10 -6 -27 rrcurveto
          -5 -18 -6 -10 -21 vvcurveto
          -15 2 -18 -4 -14 vhcurveto
          -3 -14 -24 2 -2 -17 -8 -9 5 -10 -3 -10 rrcurveto
          -8 -25 -14 6 -34 vvcurveto
          -15 1 -15 -2 -14 vhcurveto
          15 -15 8 -22 19 -12 rrcurveto
          2 14 14 -2 14 3 3 0 4 hhcurveto
          8 8 11 6 6 9 4 5 -1 7 4 4 rrcurveto
          3 4 10 0 6 8 -4 9 8 vvcurveto
          4 vlineto
          6 5 3 7 7 vvcurveto
          6 -1 -14 callsubr
          vhcurveto
          6 6 6 7 9 vvcurveto
          4 -1 -60 callsubr
          vhcurveto
          6 7 9 -3 1 12 2 25 0 24 4 25 rrcurveto
          12 18 18 -14 42 15 -4 15 15 14 10 9 12 5 -4 5 5 vvcurveto
          8 32 46 7 8 vhcurveto
          -1 -20 12 -10 2 -18 rrcurveto
          -2 -5 -4 -7 -5 -3 3 -2 -2 vvcurveto
          -3 -2 rlineto
          1 -24 37 -62 -1 vvcurveto
          -2 -1 -3 -2 -2 vhcurveto
          -41 callsubr
          -5 vvcurveto
          -8 -1 -7 1 -8 vhcurveto
          2 -11 11 -8 -11 vvcurveto
          -3 -1 -3 -2 -3 vhcurveto
          21 -14 8 -26 3 -24 11 -6 4 -12 8 -8 rrcurveto
          -1 6 6 -1 6 hhcurveto
          17 16 6 2 16 hvcurveto
          7 13 16 4 6 12 5 9 -1 11 3 9 3 10 5 9 2 10 2 16 -3 17 4 16 rrcurveto
          8 9 31 70 11 7 -4 7 7 10 8 6 9 1 -1 3 2 vvcurveto
          6 10 13 -1 15 4 -4 3 4 vvcurveto
          1 3 14 6 -11 27 16 3 rlinecurve
          4 -26 14 -22 -27 vvcurveto
          -15 -1 -15 3 -14 vhcurveto
          2 -11 17 -46 6 -8 rrcurveto
          -7 4 -6 -7 vvcurveto
          -6 vlineto
          13 -8 0 -20 -13 vvcurveto
          -15 -2 -16 1 -15 vhcurveto
          6 -9 5 -9 -11 -11 -4 -10 -11 vvcurveto
          -14 7 -12 3 -13 vhcurveto
          2 -15 1 -15 -15 vvcurveto
          13 -2 9 -9 10 -8 17 5 15 -11 16 -1 13 9 12 8 14 6 rrcurveto
          -5 20 12 19 19 vvcurveto
          endchar
        </CharString>
        <CharString name="N">
          78 595 -101 callgsubr
          endchar
        </CharString>
        <CharString name="Nacute">
          78 595 -101 callgsubr
          -159 728 rmoveto
          25 -7 -1 -16 12 vhcurveto
          -49 callsubr
          0 -3 hhcurveto
          -26 -22 -28 -24 -4 hvcurveto
          -7 -18 -2 -22 -24 hhcurveto
          -10 -22 -15 -20 -11 -23 rrcurveto
          -7 5 -2 3 -6 -50 callgsubr
          -2 -11 9 hhcurveto
          -2 5 -56 callsubr
          hhcurveto
          5 21 6 2 4 hvcurveto
          3 -60 callsubr
          3 -57 callsubr
          rcurveline
          8 8 1 13 7 9 2 3 5 2 7 callsubr
          1 5 3 4 11 12 19 7 4 17 2 2 -66 callgsubr
          1 rrcurveto
          5 4 7 18 7 vvcurveto
          endchar
        </CharString>
        <CharString name="Ncaron">
          78 595 102 rmoveto
          -8 -9 -5 -4 -6 vhcurveto
          -3 -4 2 -36 callsubr
          -3 -37 callgsubr
          -8 -11 -4 -19 -14 -6 rrcurveto
          -2 -4 -5 0 -5 hhcurveto
          -14 -18 4 11 -9 hvcurveto
          -8 4 -29 8 -5 4 -3 3 -3 9 -3 4 -4 5 -6 3 -3 5 -4 6 0 8 -3 6 -8 17 -14 16 -13 15 -7 8 -17 13 -5 8 -2 -59 callsubr
          -2 4 rrcurveto
          -4 9 -7 6 -2 11 -8 12 -13 7 -8 13 -18 29 -30 16 -7 36 -16 17 -22 13 -10 21 -10 19 -1 7 -22 10 rrcurveto
          -2 -11 0 -12 -11 -35 6 -34 -35 -12 -4 -11 -11 -18 6 -17 -18 -11 7 0 -8 -10 -3 -10 -10 vvcurveto
          -11 10 -28 6 -10 vhcurveto
          -10 -22 -6 -14 3 -25 rrcurveto
          -10 -6 -48 -29 -11 hhcurveto
          -12 2 5 5 -9 hvcurveto
          -4 3 -8 0 -4 3 rrcurveto
          -12 11 -17 45 15 vvcurveto
          10 8 10 2 9 vhcurveto
          3 17 3 23 18 vvcurveto
          9 -2 9 -4 8 vhcurveto
          4 12 1 13 12 vvcurveto
          25 -5 32 -13 22 vhcurveto
          2 22 14 18 3 21 rrcurveto
          3 16 -3 16 15 vvcurveto
          8 1 6 3 7 vhcurveto
          -9 callsubr
          8 -1 9 rrcurveto
          -1 10 1 10 11 12 -3 11 12 10 6 8 10 23 -7 23 23 vvcurveto
          16 15 15 12 9 vhcurveto
          44 -5 35 -21 11 -45 2 -9 6 5 5 -5 4 -5 -1 -7 3 -5 21 -24 -9 25 21 -43 20 -19 10 -29 24 -16 1 -8 5 -7 1 -8 rrcurveto
          6 -9 37 -40 -3 vvcurveto
          -2 1 0 1 vhcurveto
          9 -4 6 -7 8 -6 8 -29 21 -21 25 -17 1 -14 14 -7 5 -12 2 -4 -1 -4 2 -4 2 -4 5 -2 3 -4 5 -9 0 -19 14 -1 rrcurveto
          2 5 1 6 6 27 -16 26 27 9 7 7 9 vvcurveto
          9 -6 9 -1 8 vhcurveto
          -5 30 9 48 -17 25 rrcurveto
          1 4 0 4 4 17 -4 18 18 vvcurveto
          13 2 14 8 12 vhcurveto
          -2 13 -8 8 -6 11 rrcurveto
          -25 callsubr
          3 vvcurveto
          14 -9 14 1 14 vhcurveto
          7 vlineto
          3 3 rlineto
          6 -1 5 6 vvcurveto
          22 43 24 19 14 11 -15 -3 14 vhcurveto
          6 -15 14 -9 6 -14 6 -13 -7 -20 8 -16 rrcurveto
          -8 -11 4 -21 -13 -5 -3 -3 -5 -4 3 -2 -3 vvcurveto
          -6 -5 -8 -1 -6 vhcurveto
          -2 -11 0 -11 -10 vvcurveto
          -31 9 -27 3 -29 vhcurveto
          3 -40 -5 -40 5 -39 rrcurveto
          5 -46 11 -3 -55 -18 6 -17 -18 -12 7 -10 -12 vvcurveto
          -3 vlineto
          -3 -6 rlineto
          2 -49 callsubr
          hvcurveto
          -201 687 -104 callsubr
        </CharString>
        <CharString name="Ncommaaccent">
          78 595 -101 callgsubr
          -217 -147 -99 callgsubr
          endchar
        </CharString>
        <CharString name="Ntilde">
          77 594 -101 callgsubr
          -152 763 -101 callsubr
        </CharString>
        <CharString name="O">
          -107 callgsubr
          endchar
        </CharString>
        <CharString name="OE">
          428 976 106 rmoveto
          5 -10 -3 8 -11 hhcurveto
          -4 -1 rlineto
          12 -6 -9 5 -12 -14 -14 -11 -16 -14 -13 1 -14 -43 -44 -9 -43 hhcurveto
          -18 -18 1 5 -18 hvcurveto
          20 3 20 20 25 -13 48 17 9 4 10 9 12 -4 12 13 vvcurveto
          -72 callsubr
          -9 -11 3 -10 hhcurveto
          -17 -15 -10 -3 -18 hvcurveto
          -4 -10 -5 -17 -4 -18 -11 10 -3 5 -18 8 -33 15 15 2 -14 9 -26 callgsubr
          2 -4 3 -2 5 -4 2 -8 4 -20 -1 -11 4 rrcurveto
          3 -12 -11 10 -13 -10 -9 -4 -10 -13 -12 8 -14 -9 -9 -2 -10 hhcurveto
          -11 callsubr
          1 -3 hvcurveto
          -5 -5 -79 -40 -7 hhcurveto
          -6 -14 -19 -8 -10 -11 -17 -18 -10 -29 -2 -4 -6 -14 -17 -15 -3 -10 rrcurveto
          -38 -123 -2 4 -47 -15 1 -14 -15 -12 -3 -12 -13 -15 6 -14 -15 7 callgsubr
          -2 -5 vhcurveto
          17 -23 -10 -30 6 -25 2 -8 5 -7 3 -7 3 -10 0 -10 3 -9 7 -4 rcurveline
          -2 vlineto
          -19 17 -1 2 -16 vhcurveto
          10 -10 4 -13 2 -13 26 -17 18 -27 27 -14 20 -11 21 -6 20 -9 rrcurveto
          1 1 1 1 vhcurveto
          2 26 -12 18 hhcurveto
          20 31 4 10 18 hvcurveto
          6 -5 9 -2 7 -3 18 13 22 -1 18 11 4 2 2 5 4 2 12 9 17 4 10 13 9 12 3 19 10 11 9 10 10 9 10 10 13 -47 rcurveline
          -74 callgsubr
          17 20 8 24 12 8 -1 7 hhcurveto
          13 33 10 15 17 hvcurveto
          6 15 7 14 16 vvcurveto
          7 -1 -20 callsubr
          vhcurveto
          -446 211 rmoveto
          -11 -2 -11 -7 -7 vhcurveto
          1 -3 0 -2 -1 -9 -8 -4 -9 vvcurveto
          -56 -8 24 -21 -37 vhcurveto
          -11 -19 -6 -25 -9 -20 -8 -9 -14 -1 -10 -42 callsubr
          rcurveline
          -4 hlineto
          -4 -5 1 -4 -13 -18 -20 -12 -5 -4 3 -6 hhcurveto
          -2 -2 -1 -2 -2 hvcurveto
          -1 -19 callsubr
          -14 1 -16 -13 hhcurveto
          -23 -47 21 24 -7 hvcurveto
          -2 -2 -1 -1 hhcurveto
          -8 -3 4 3 -7 hvcurveto
          1 0 1 0 vhcurveto
          9 -10 4 -3 8 vhcurveto
          -7 21 1 17 -13 23 rrcurveto
          -12 21 -4 14 27 13 2 -29 callsubr
          9 -9 callsubr
          8 vhcurveto
          2 12 8 10 12 9 -3 9 9 32 23 28 29 7 -1 7 7 8 14 21 5 2 -1 2 2 vvcurveto
          -5 14 29 9 vhcurveto
          -71 callsubr
          23 -37 callsubr
          2 2 0 2 hhcurveto
          50 24 -82 -41 21 hvcurveto
          -3 -4 -1 -2 -2 hvcurveto
          -19 callsubr
          -1 vvcurveto
          -7 -8 0 -5 -3 vhcurveto
          -2 -22 -13 -18 -22 vvcurveto
          -6 vlineto
          -11 12 11 -15 17 hhcurveto
          10 hlineto
          -4 0 -33 callsubr
          vhcurveto
          2 -12 7 -10 -13 vvcurveto
          endchar
        </CharString>
        <CharString name="Oacute">
          -107 callgsubr
          -47 616 rmoveto
          25 -7 -1 -16 12 vhcurveto
          -49 callsubr
          0 -3 hhcurveto
          -26 -22 -28 -24 -4 hvcurveto
          -7 -18 -2 -22 -24 hhcurveto
          -10 -22 -15 -20 -11 -23 rrcurveto
          -7 5 -2 3 -6 -50 callgsubr
          -2 -11 9 hhcurveto
          -2 5 -56 callsubr
          hhcurveto
          5 21 6 2 4 hvcurveto
          3 -60 callsubr
          3 -57 callsubr
          rcurveline
          8 8 1 13 7 9 2 3 5 2 7 callsubr
          1 5 3 4 11 12 19 7 4 17 2 2 -66 callgsubr
          1 rrcurveto
          5 4 7 18 7 vvcurveto
          endchar
        </CharString>
        <CharString name="Obreve">
          -107 callgsubr
          -84 570 -102 callgsubr
          endchar
        </CharString>
        <CharString name="Ocircumflex">
          -107 callgsubr
          -90 502 -106 callgsubr
        </CharString>
        <CharString name="Odieresis">
          -107 callgsubr
          -85 512 -100 callsubr
        </CharString>
        <CharString name="Ograve">
          105 630 418 rmoveto
          1 -15 -7 -14 -15 -24 4 -25 -24 vvcurveto
          -15 -26 -97 -7 -17 vhcurveto
          -9 -21 -13 -19 -4 -21 -19 -17 -19 -17 -17 -18 -10 -11 -3 -19 -9 -12 -10 -13 -17 -4 -12 -9 -4 -2 -2 -5 -4 -2 -18 -11 -22 1 -18 -13 -7 3 -9 2 -6 5 rrcurveto
          -10 -18 -31 -4 -20 hhcurveto
          -10 -19 2 5 -9 hvcurveto
          -2 1 -6 8 -2 -6 -20 9 -21 7 -20 10 -27 15 -18 26 -26 17 -2 13 -4 13 -10 10 rrcurveto
          -2 16 -17 1 19 vvcurveto
          2 vlineto
          -7 4 -3 9 0 -10 callsubr
          rlinecurve
          -3 7 -5 7 -2 8 -6 25 10 30 -17 23 rrcurveto
          2 5 1 5 5 15 -6 14 15 13 3 12 12 15 -1 14 15 vvcurveto
          39 3 -8 8 32 vhcurveto
          2 8 -1 9 2 9 7 25 11 26 8 26 3 10 17 15 6 14 2 5 -1 6 2 5 2 4 5 1 3 4 5 10 3 8 8 8 10 11 19 8 6 14 rrcurveto
          7 79 40 5 5 hvcurveto
          -1 3 -12 callgsubr
          10 9 2 9 14 12 -8 13 10 9 4 10 hhcurveto
          13 11 -10 -3 12 hvcurveto
          11 -4 20 1 8 -4 4 -2 2 -5 4 -3 4 -2 5 2 4 -3 14 -9 -15 -1 33 -16 rrcurveto
          -2 5 5 -4 6 hhcurveto
          14 -16 16 -14 15 -15 10 -3 rcurveline
          7 -9 32 -66 -9 -10 -2 -9 -10 -7 1 -6 -8 vvcurveto
          -4 11 -8 3 -6 vhcurveto
          2 -7 -1 -8 2 -8 rrcurveto
          1 -6 5 -7 -6 vvcurveto
          -100 -103 rmoveto
          13 -7 10 -2 12 vhcurveto
          1 -12 callgsubr
          4 12 -8 10 12 12 3 11 12 vvcurveto
          28 vlineto
          -24 35 -25 108 -60 -8 rrcurveto
          16 -17 -21 14 -23 hhcurveto
          -34 -48 -15 -21 -25 hvcurveto
          -4 -3 -6 0 -3 -4 -3 -3 2 -6 -2 -4 rrcurveto
          -2 -20 -20 -2 -1 hvcurveto
          -1 -3 2 -2 -3 vvcurveto
          -3 -12 -17 -2 -8 vhcurveto
          -1 -9 2 -9 -9 -29 -23 -28 -32 -9 3 -9 -9 vvcurveto
          -12 -8 -10 -2 -12 vhcurveto
          5 -8 1 -9 -9 -13 -2 -12 -13 vvcurveto
          -27 4 -13 12 -22 vhcurveto
          3 -5 4 -5 2 -6 5 -14 0 -17 5 -14 3 -9 12 -3 -2 -11 9 -3 2 -5 12 2 rrcurveto
          -24 7 47 -21 23 hhcurveto
          14 -2 18 -2 17 hvcurveto
          2 2 2 1 2 6 4 -3 5 hhcurveto
          10 15 16 3 12 hvcurveto
          2 6 7 -2 6 hhcurveto
          4 hlineto
          6 7 10 3 14 1 8 9 rlinecurve
          9 20 6 25 11 19 rrcurveto
          21 37 8 -24 56 vvcurveto
          11 12 3 -5 14 vhcurveto
          7 7 2 11 11 vvcurveto
          -357 608 rmoveto
          -7 7 -18 5 -4 vhcurveto
          -66 callgsubr
          1 2 -2 4 -17 19 -7 11 -12 3 -4 1 -5 3 -41 callsubr
          5 -2 2 -3 7 -9 1 -13 8 -8 5 -4 rcurveline
          3 -3 -1 -41 callsubr
          rrcurveto
          -2 4 21 -6 5 hhcurveto
          4 5 1 2 5 hvcurveto
          9 -2 11 2 6 hvcurveto
          -8 callgsubr
          2 7 vvcurveto
          -11 23 -15 20 -10 22 rrcurveto
          -24 -2 22 7 -18 hvcurveto
          24 -4 -22 28 -26 hhcurveto
          -3 -2 0 -1 -2 hvcurveto
          -16 -12 -7 1 -25 vvcurveto
          endchar
        </CharString>
        <CharString name="Ohungarumlaut">
          -107 callgsubr
          -81 606 rmoveto
          19 -9 18 -21 -26 -22 -28 -24 -4 vhcurveto
          -58 -37 -16 -50 -15 vvcurveto
          -1 2 -22 27 -73 callgsubr
          120 hmoveto
          19 -9 18 -21 -26 -22 -28 -24 -4 vhcurveto
          -18 -7 1 -25 -23 -7 -22 -22 -8 -10 -10 -23 rrcurveto
          -4 9 -27 26 -73 callgsubr
          endchar
        </CharString>
        <CharString name="Omacron">
          -107 callgsubr
          -63 518 -95 callsubr
        </CharString>
        <CharString name="Oslash">
          -91 callgsubr
          endchar
        </CharString>
        <CharString name="Oslashacute">
          -91 callgsubr
          160 304 rmoveto
          25 -7 -1 -16 12 vhcurveto
          -49 callsubr
          0 -3 hhcurveto
          -26 -22 -28 -24 -4 hvcurveto
          -7 -18 -2 -22 -24 hhcurveto
          -10 -22 -15 -20 -11 -23 rrcurveto
          -7 5 -2 3 -6 -50 callgsubr
          -2 -11 9 hhcurveto
          -2 5 -56 callsubr
          hhcurveto
          5 21 6 2 4 hvcurveto
          3 -60 callsubr
          3 -57 callsubr
          rcurveline
          8 8 1 13 7 9 2 3 5 2 7 callsubr
          1 5 3 4 11 12 19 7 4 17 2 2 -66 callgsubr
          1 rrcurveto
          5 4 7 18 7 vvcurveto
          endchar
        </CharString>
        <CharString name="Otilde">
          -107 callgsubr
          -49 572 -101 callsubr
        </CharString>
        <CharString name="P">
          -24 516 472 rmoveto
          -2 36 -7 37 36 vvcurveto
          -5 7 -8 6 -3 7 -3 4 2 5 -3 4 -2 4 -5 1 -2 4 -6 10 -4 22 -6 7 -16 16 -11 17 -22 9 -4 1 -5 0 -4 2 -18 9 -18 11 -19 9 rrcurveto
          -1 -9 -9 -3 -9 -19 -17 14 -20 hhcurveto
          -16 -12 -8 -5 -14 hvcurveto
          -27 -9 -28 4 -26 -8 -12 -3 -13 -10 -10 -6 -41 -25 11 -27 -16 -16 rrcurveto
          4 -10 2 -10 -10 -21 -6 -19 -20 vvcurveto
          -23 6 -29 4 -23 vhcurveto
          1 -7 5 -7 1 -8 rrcurveto
          -2 -2 -2 -2 -3 vvcurveto
          -3 2 -3 2 -3 vhcurveto
          -2 -14 -11 -5 -26 -16 9 -13 -16 vvcurveto
          -15 -10 -7 -3 -14 vhcurveto
          13 -50 -5 -51 2 -51 rrcurveto
          -2 -4 -1 -4 -4 vvcurveto
          -12 2 -9 -2 -12 vhcurveto
          -3 -17 -7 -20 -17 -10 7 -3 -6 vvcurveto
          -11 2 -1 11 -5 vhcurveto
          3 -7 1 -13 5 -6 rrcurveto
          -5 16 15 -8 17 hhcurveto
          25 10 16 17 14 hvcurveto
          9 vlineto
          45 -5 46 11 45 vhcurveto
          14 4 15 -2 13 4 15 16 27 -1 13 17 14 1 12 7 10 8 8 7 12 -5 9 5 15 8 48 48 11 15 15 2 6 12 11 8 3 3 4 -1 3 2 rrcurveto
          21 15 4 30 10 22 7 4 rcurveline
          2 vlineto
          4 callsubr
          6 9 rlineto
          2 7 0 7 7 vvcurveto
          9 -4 29 5 6 vhcurveto
          -119 42 rmoveto
          -6 -7 -5 -10 -27 -9 -10 -19 vvcurveto
          -10 3 -11 -3 -9 vhcurveto
          -1 -4 -18 -21 -4 -4 -2 -2 -5 1 -2 -2 -3 -39 callsubr
          -2 -3 -6 -11 -37 -37 -11 -7 -9 -5 -11 -3 -9 -4 -29 -14 -22 -16 -33 1 rrcurveto
          -3 12 -1 13 14 vvcurveto
          22 3 23 -2 22 vhcurveto
          -2 14 -8 14 14 23 14 30 28 vvcurveto
          13 -3 13 -5 12 vhcurveto
          3 8 2 9 9 7 -1 8 8 vvcurveto
          23 11 26 15 26 15 15 -6 15 hhcurveto
          23 37 9 -25 12 hvcurveto
          9 -8 12 -4 8 -8 rrcurveto
          -1 -24 14 -20 -23 vvcurveto
          endchar
        </CharString>
        <CharString name="Q">
          86 611 356 rmoveto
          -3 5 -2 7 7 9 2 9 9 vvcurveto
          13 -4 -4 -2 9 vhcurveto
          -4 14 3 14 -2 14 -4 18 -10 13 -6 17 -3 12 1 12 -4 12 -6 16 -64 86 -14 11 -8 6 -12 1 -9 6 -8 5 -6 10 -9 4 -39 callgsubr
          -2 -5 2 rrcurveto
          -5 2 -3 6 -5 2 -7 3 -10 -2 -8 2 rrcurveto
          3 -12 -1 4 -13 hhcurveto
          -23 -19 -16 -1 -23 hvcurveto
          -8 -6 -9 -4 -9 -6 -27 3 -60 -33 -13 -25 -10 3 -5 -10 -7 -5 -19 -15 -11 -8 -2 -26 -4 -5 -4 -6 -5 -5 rrcurveto
          -7 -6 hlineto
          -5 -11 1 -17 -5 -11 -2 -4 -6 -1 -2 -5 -5 -12 0 -14 -5 -12 rrcurveto
          -2 -6 -5 -5 -6 vvcurveto
          -6 3 -7 -2 -6 vhcurveto
          -10 -33 -10 14 -52 -16 7 -14 -15 vvcurveto
          -6 -4 -6 1 -5 vhcurveto
          -2 vlineto
          -9 5 -8 1 -9 vhcurveto
          2 -11 -1 -11 2 -10 2 -9 6 -6 2 -8 6 -24 -5 -26 5 -24 3 -10 9 -4 5 -9 3 -6 0 -30 callsubr
          rrcurveto
          4 -9 9 -4 -11 vvcurveto
          -2 vlineto
          15 -6 70 -65 8 -16 15 1 6 -10 12 -4 rrcurveto
          -3 12 30 -4 14 hhcurveto
          29 32 8 9 28 hvcurveto
          15 -9 9 -23 11 -13 9 -10 10 -9 7 -10 4 -6 1 -8 5 -6 5 -7 14 -17 7 -5 4 -3 7 0 5 -3 rrcurveto
          -7 13 2 -5 17 hhcurveto
          18 15 11 7 15 hvcurveto
          1 6 0 6 6 vvcurveto
          76 -77 29 -17 61 vhcurveto
          37 28 32 17 2 52 rrcurveto
          5 6 11 -1 11 vvcurveto
          15 35 18 19 42 vvcurveto
          5 0 4 -1 5 vhcurveto
          13 12 1 18 16 vvcurveto
          18 -2 19 7 17 vhcurveto
          -112 36 rmoveto
          -22 -10 -20 -20 -35 callsubr
          -5 vvcurveto
          -15 -3 -14 6 -13 vhcurveto
          -14 -40 -20 -40 -20 -36 -5 -9 -10 -2 -2 -12 rrcurveto
          4 -29 -1 80 -54 hhcurveto
          -25 -38 -12 -30 hvcurveto
          -18 9 -18 -19 vvcurveto
          10 -20 14 -10 2 -25 rrcurveto
          -2 -6 -5 -2 -6 -23 -8 22 -21 hhcurveto
          -4 -4 -1 -1 -4 hvcurveto
          -12 21 -22 12 -14 19 rrcurveto
          3 19 -23 32 15 vvcurveto
          6 2 6 -2 6 vhcurveto
          -1 5 -5 4 6 -38 callgsubr
          6 10 -7 8 11 29 7 29 29 vvcurveto
          13 -3 13 3 13 vhcurveto
          1 4 2 1 5 vvcurveto
          10 -2 8 9 7 vhcurveto
          2 0 1 2 6 -4 4 6 vvcurveto
          2 vlineto
          8 7 1 10 4 9 9 17 13 13 11 15 2 -59 callsubr
          3 4 rrcurveto
          15 13 53 33 21 6 5 -3 6 hhcurveto
          39 15 1 -17 36 hvcurveto
          8 -4 8 -5 9 -1 24 -36 18 -14 3 -47 rrcurveto
          1 -9 10 -4 -10 -6 -21 callgsubr
          -10 10 -11 -17 vvcurveto
          endchar
        </CharString>
        <CharString name="R">
          -99 callsubr
          endchar
        </CharString>
        <CharString name="Racute">
          -99 callsubr
          72 338 rmoveto
          25 -7 -1 -16 12 vhcurveto
          -49 callsubr
          0 -3 hhcurveto
          -26 -22 -28 -24 -4 hvcurveto
          -7 -18 -2 -22 -24 hhcurveto
          -10 -22 -15 -20 -11 -23 rrcurveto
          -7 5 -2 3 -6 -50 callgsubr
          -2 -11 9 hhcurveto
          -2 5 -56 callsubr
          hhcurveto
          5 21 6 2 4 hvcurveto
          3 -60 callsubr
          3 -57 callsubr
          rcurveline
          8 8 1 13 7 9 2 3 5 2 7 callsubr
          1 5 3 4 11 12 19 7 4 17 2 2 -66 callgsubr
          1 rrcurveto
          5 4 7 18 7 vvcurveto
          endchar
        </CharString>
        <CharString name="Rcaron">
          -8 511 409 rmoveto
          -31 -30 -55 1 -9 vhcurveto
          -5 -8 -9 -4 -6 -8 -5 -7 0 -13 -8 -5 -7 -6 -22 -7 -6 -4 -5 -3 -3 -6 -5 -4 -3 -1 -4 1 -3 -3 -3 -6 rcurveline
          -4 -3 -7 2 -5 -2 -28 -13 -28 -13 -31 -7 10 -22 26 -1 19 -12 5 -3 3 -6 5 -4 33 -24 39 -15 31 -29 27 -4 14 -19 17 -19 rrcurveto
          -5 vlineto
          -37 -6 -7 -33 -12 vhcurveto
          -2 -5 -5 -2 -6 hhcurveto
          -9 -15 -1 2 -8 hvcurveto
          -4 1 -28 15 -4 3 -9 8 -6 12 -10 6 -12 7 -15 -1 -12 7 -14 8 -8 15 -14 9 -12 8 -17 4 -13 7 -11 8 -7 13 -11 9 -5 4 -8 1 -6 4 rrcurveto
          4 -5 -2 9 -7 -32 callgsubr
          -5 -5 -2 -6 -7 -17 7 -16 -17 vvcurveto
          -7 -5 -8 -1 -7 vhcurveto
          -2 -8 2 -8 -8 vvcurveto
          -20 -29 -21 -19 -14 -14 7 3 -15 vhcurveto
          -8 14 -8 15 16 vvcurveto
          6 1 5 2 5 vhcurveto
          -8 20 -2 21 21 28 8 27 28 vvcurveto
          1 0 2 -1 1 vhcurveto
          -6 3 rlineto
          -1 -25 callsubr
          3 vvcurveto
          9 -3 19 -7 5 vhcurveto
          9 15 -3 19 18 14 7 13 14 21 -3 22 21 20 -10 17 19 vvcurveto
          8 5 6 1 8 vhcurveto
          3 12 -3 13 12 6 -59 callsubr
          7 -7 8 11 21 3 21 22 vvcurveto
          20 16 19 -6 19 vhcurveto
          4 5 7 -1 5 2 10 5 9 7 10 4 11 5 10 0 12 2 rrcurveto
          1 5 3 5 6 9 callsubr
          hhcurveto
          5 3 2 -2 5 hhcurveto
          8 14 7 -3 6 hvcurveto
          6 -20 callgsubr
          hhcurveto
          7 4 -6 -1 7 hvcurveto
          -1 8 9 2 8 hhcurveto
          20 8 -9 -5 18 hvcurveto
          13 -3 15 2 14 -5 8 -3 10 -5 7 -5 5 -2 1 -5 4 -3 6 -3 7 2 3 -2 9 -5 32 -39 11 -11 -1 -4 rcurveline
          -16 17 -8 6 -14 vhcurveto
          3 -4 -2 -26 callsubr
          5 -11 3 -11 8 -10 rrcurveto
          1 -6 -2 -7 -7 -13 8 -9 -14 -19 -7 -16 -20 vvcurveto
          -142 156 rmoveto
          -30 callsubr
          8 -9 14 -10 1 rlinecurve
          2 -1 -2 1 -40 callgsubr
          -3 -4 -7 -9 6 -18 hhcurveto
          -5 -8 6 1 -6 hvcurveto
          2 -15 -20 1 -15 hhcurveto
          -6 -3 -5 -1 -6 hvcurveto
          -13 -4 -26 4 -21 -12 7 -10 -12 -13 -7 -12 -13 -25 4 -25 -26 -23 6 -21 -23 -17 -4 -17 -17 vvcurveto
          -8 1 -8 3 -7 vhcurveto
          21 8 28 -6 22 1 rrcurveto
          13 hlineto
          11 10 15 -2 13 5 12 6 10 16 14 -2 rrcurveto
          6 hlineto
          5 16 18 6 6 16 8 2 8 6 22 callsubr
          6 vlineto
          6 3 rlineto
          3 6 -1 5 6 10 11 20 26 vvcurveto
          13 -6 0 -4 11 vhcurveto
          -3 10 2 15 -5 7 -9 15 -13 12 -7 15 rrcurveto
          17 334 -104 callsubr
        </CharString>
        <CharString name="Rcommaaccent">
          -99 callsubr
          -41 -668 -99 callgsubr
          endchar
        </CharString>
        <CharString name="S">
          -96 callgsubr
          endchar
        </CharString>
        <CharString name="Sacute">
          -96 callgsubr
          -94 447 rmoveto
          25 -7 -1 -16 12 vhcurveto
          -49 callsubr
          0 -3 hhcurveto
          -26 -22 -28 -24 -4 hvcurveto
          -7 -18 -2 -22 -24 hhcurveto
          -10 -22 -15 -20 -11 -23 rrcurveto
          -7 5 -2 3 -6 -50 callgsubr
          -2 -11 9 hhcurveto
          -2 5 -56 callsubr
          hhcurveto
          5 21 6 2 4 hvcurveto
          3 -60 callsubr
          3 -57 callsubr
          rcurveline
          8 8 1 13 7 9 2 3 5 2 7 callsubr
          1 5 3 4 11 12 19 7 4 17 2 2 -66 callgsubr
          1 rrcurveto
          5 4 7 18 7 vvcurveto
          endchar
        </CharString>
        <CharString name="Scaron">
          -11 526 507 rmoveto
          -20 -2 -19 -5 -19 vhcurveto
          -12 -18 -22 -5 -22 -5 -5 1 -5 hhcurveto
          -9 21 -10 -16 32 vvcurveto
          10 -6 1 -1 7 vhcurveto
          -8 46 18 -7 -26 51 -2 4 -2 10 -3 2 -6 7 -23 8 -9 5 rrcurveto
          5 -10 -20 14 -11 -7 -6 -3 -8 -7 -7 3 -7 hhcurveto
          -26 -79 -44 -24 -12 hvcurveto
          -13 -25 7 -30 -14 -25 13 -17 -6 -24 13 -14 rrcurveto
          10 -12 19 -3 -21 vvcurveto
          14 1 30 -14 14 -42 callgsubr
          4 -42 callgsubr
          15 -4 15 4 15 -3 rrcurveto
          -5 24 1 -11 29 hhcurveto
          10 13 -15 2 17 hvcurveto
          20 -20 9 -29 22 -19 rrcurveto
          21 callgsubr
          -14 9 -5 5 -11 vhcurveto
          -1 -6 0 -5 -5 -23 8 -23 -23 vvcurveto
          -45 -10 -12 -23 -36 vhcurveto
          -8 -12 -4 -16 -10 -10 rrcurveto
          -7 -7 hlineto
          -5 -4 -8 -2 -6 -4 -43 -28 8 1 -52 -5 rrcurveto
          -1 -15 -14 -5 -14 hhcurveto
          -14 -6 6 3 -11 hvcurveto
          -15 4 -17 -3 -13 6 -7 3 -4 6 -6 4 -4 3 -12 2 4 8 -46 8 -6 45 -32 24 rrcurveto
          3 1 2 3 17 -14 16 15 vvcurveto
          21 28 27 20 22 17 -17 -13 16 vhcurveto
          6 -21 19 -14 4 -23 rrcurveto
          -7 20 13 -22 23 hhcurveto
          2 57 12 1 1 hvcurveto
          4 2 2 -22 callgsubr
          3 6 -3 5 3 8 4 5 11 10 1 rrcurveto
          7 -1 8 7 vvcurveto
          2 0 3 1 2 vhcurveto
          6 7 rlineto
          2 0 2 3 6 6 2 7 vvcurveto
          6 -6 22 -3 4 vhcurveto
          -7 4 -2 4 2 5 -3 3 rlinecurve
          -6 4 -4 5 -1 6 -5 5 rlinecurve
          13 -14 -47 13 -19 hhcurveto
          -7 -7 -1 -3 -6 hvcurveto
          6 -23 20 12 -56 hhcurveto
          -37 -45 56 26 -20 hvcurveto
          -2 3 1 7 -3 3 -6 3 rcurveline
          -2 6 0 5 -8 2 rrcurveto
          3 vlineto
          14 -5 13 -8 12 vhcurveto
          1 5 0 4 5 24 -7 24 24 vvcurveto
          6 5 5 1 7 vhcurveto
          5 17 3 19 2 18 12 10 9 6 -2 17 8 4 6 6 6 6 2 14 13 9 1 15 9 7 11 6 6 10 rrcurveto
          5 51 30 5 11 hvcurveto
          20 9 40 -1 15 12 41 -9 73 7 28 -37 29 -1 10 -22 25 -6 rrcurveto
          -39 callsubr
          2 -3 vhcurveto
          7 -3 8 -13 1 -17 10 -12 rlinecurve
          3 -3 5 -2 2 -4 rrcurveto
          1 -4 -2 -4 -3 vvcurveto
          1 -2 6 -7 rlineto
          5 -19 2 -47 -21 vvcurveto
          -139 411 -104 callsubr
        </CharString>
        <CharString name="Scedilla">
          -11 346 -139 -6 callsubr
          1 5 5 1 6 hhcurveto
          52 5 -8 -1 43 28 6 4 8 2 5 4 rrcurveto
          7 7 vlineto
          10 10 4 16 8 12 rrcurveto
          23 36 10 12 45 23 -8 23 23 vvcurveto
          5 0 5 1 6 vhcurveto
          -5 11 -9 5 14 3 1 2 3 vvcurveto
          -22 19 -9 29 -20 20 rrcurveto
          -2 -17 -13 15 -10 hhcurveto
          -29 -1 11 5 -24 hvcurveto
          -15 3 -15 -4 -15 4 -6 2 -4 6 -6 2 -14 6 -30 14 -14 -1 rrcurveto
          21 -19 3 -10 12 vhcurveto
          -13 14 6 24 -13 17 14 25 -7 30 13 25 rrcurveto
          24 12 79 44 26 7 7 -3 7 8 6 3 7 hhcurveto
          11 20 -14 -5 10 hvcurveto
          9 -5 23 -8 6 -7 3 -2 2 -10 2 -4 26 -51 -18 7 8 -46 rrcurveto
          1 -7 6 -1 -10 vvcurveto
          -32 10 16 9 -21 vhcurveto
          5 -14 callsubr
          hhcurveto
          22 22 5 12 18 hvcurveto
          5 19 2 19 20 vvcurveto
          21 -2 47 -5 19 vhcurveto
          -6 7 -1 2 rlineto
          3 2 -28 callgsubr
          vhcurveto
          -2 4 -5 2 -3 3 -10 12 -1 17 -8 13 -7 3 rcurveline
          -2 -60 callsubr
          3 vvcurveto
          -25 6 -10 22 -29 1 -28 37 -73 -7 -41 9 -15 -12 -40 1 -20 -9 rrcurveto
          -5 -11 -51 -30 -5 hhcurveto
          -6 -10 -11 -6 -9 -7 -1 -15 -13 -9 -2 -14 -6 -6 -6 -6 -8 -4 2 -17 -9 -6 -12 -10 -2 -18 -3 -19 -5 -17 rrcurveto
          -1 -7 -5 -5 -6 -24 7 -24 -24 vvcurveto
          -5 0 -4 -1 -5 vhcurveto
          8 -12 5 -13 -14 vvcurveto
          -3 vlineto
          8 -2 0 -5 2 -6 6 -3 rcurveline
          3 -3 -1 -7 2 -3 rrcurveto
          -26 20 45 -56 37 hhcurveto
          56 -20 -12 -6 23 hvcurveto
          3 6 7 1 7 hhcurveto
          19 47 -13 -13 14 hvcurveto
          5 -5 1 -6 4 -5 9 -7 -2 -5 2 -4 7 -4 rcurveline
          3 -4 6 -22 -6 -7 -6 -2 -6 vvcurveto
          -7 vlineto
          -6 -7 rlineto
          -1 -2 0 -3 -2 -7 1 -8 -7 vvcurveto
          -10 -1 -5 -11 -8 -4 -5 -3 -35 callsubr
          -3 -24 callsubr
          -5 -4 -2 rrcurveto
          -1 -1 -57 -12 -2 hhcurveto
          -23 -13 22 7 -20 hvcurveto
          -4 23 -19 14 -6 21 rrcurveto
          13 -16 -17 17 -22 hhcurveto
          -20 -28 -27 -21 hvcurveto
          -15 14 -16 -17 21 callgsubr
          32 -24 6 -45 46 -8 -4 -8 12 -2 4 -3 6 -4 4 -6 7 -3 13 -6 17 3 15 -4 rrcurveto
          1 1 0 -1 2 hvcurveto
          -4 -14 -3 -16 -3 -80 callsubr
        </CharString>
        <CharString name="Scircumflex">
          -96 callgsubr
          -141 333 -106 callgsubr
        </CharString>
        <CharString name="T">
          -79 callgsubr
          endchar
        </CharString>
        <CharString name="Tbar">
          -63 450 -58 callgsubr
          hhcurveto
          1 4 1 4 5 17 -6 16 16 14 6 13 13 19 -4 19 18 vvcurveto
          4 0 5 1 4 vhcurveto
          -5 14 6 11 12 6 0 -6 7 hhcurveto
          3 4 1 2 3 hvcurveto
          -1 8 9 -2 8 17 16 8 17 hhcurveto
          5 5 0 -2 5 hvcurveto
          15 12 34 9 22 vvcurveto
          47 -40 17 -42 -13 -15 -3 3 -13 vhcurveto
          -3 3 -7 -3 rlineto
          1 -7 -8 5 -7 hhcurveto
          -13 -11 -5 -1 -12 hvcurveto
          -5 12 -3 14 -5 12 rrcurveto
          2 -16 9 22 -41 hhcurveto
          -6 -33 -13 -5 hvcurveto
          -2 vlineto
          -10 -11 9 -25 -12 -10 -56 -3 -65 10 -53 -26 rrcurveto
          -4 -16 -10 -18 -17 vvcurveto
          -38 43 -11 30 vhcurveto
          26 25 3 26 hhcurveto
          15 16 -1 -5 14 hvcurveto
          3 -6 1 -6 -7 -13 -7 -13 -13 -13 6 -13 -13 -7 -54 callgsubr
          -10 3 -9 -10 vvcurveto
          -3 0 -2 -1 -3 vhcurveto
          -12 callsubr
          -2 -10 -11 10 -9 -6 -5 -3 -5 -7 -5 6 -7 hhcurveto
          -32 -28 -6 -26 -21 hvcurveto
          -63 callgsubr
          11 10 -7 14 8 7 1 8 30 31 -6 30 hhcurveto
          9 hlineto
          -2 -13 -7 -12 -12 -35 callsubr
          -5 -5 -3 -5 -4 vvcurveto
          -10 8 -11 2 -10 vhcurveto
          1 -10 0 -11 -10 -41 -17 -36 -41 vvcurveto
          -28 8 -27 24 -16 vhcurveto
          3 4 5 0 5 10 10 -2 11 hhcurveto
          11 19 12 13 hvcurveto
          18 6 17 19 vvcurveto
          17 -1 16 1 16 vhcurveto
          8 3 7 8 15 -7 15 17 25 4 26 25 vvcurveto
          16 0 15 -1 15 vhcurveto
          5 hlineto
          -27 callgsubr
        </CharString>
        <CharString name="Tcaron">
          -63 447 565 rmoveto
          2 -5 -5 0 -5 -17 -16 -8 -17 hhcurveto
          -8 -9 2 1 -8 hvcurveto
          -2 -3 -4 -1 -3 -7 0 6 -6 hhcurveto
          -12 -6 -11 5 -14 hvcurveto
          -1 -4 0 -5 -4 -18 4 -19 -19 -13 -6 -13 -14 -16 6 -16 -17 -13 -6 -13 -13 vvcurveto
          -11 5 -10 1 -11 vhcurveto
          3 -26 1 -25 -26 -25 -4 -26 -25 -17 7 -15 -15 -8 -3 -7 -8 vvcurveto
          -1 -16 1 -16 -17 -19 -6 -17 -18 vvcurveto
          -13 -19 -12 -11 vhcurveto
          -11 -10 2 -10 hhcurveto
          -5 -5 0 -3 -4 hvcurveto
          -24 16 -8 27 28 41 17 36 41 vvcurveto
          10 0 11 -1 10 vhcurveto
          -2 10 -8 11 10 -7 callgsubr
          5 11 callgsubr
          14 10 14 15 23 -13 22 24 10 3 10 10 -31 callsubr
          -20 callgsubr
          7 13 -6 13 13 13 7 13 13 vvcurveto
          7 -1 6 -3 6 vhcurveto
          5 -14 -16 1 -15 -26 -25 -3 -26 hhcurveto
          -30 -43 11 38 17 10 18 4 16 hvcurveto
          53 26 65 -10 56 3 12 10 -9 25 10 11 rrcurveto
          2 vlineto
          5 33 13 6 41 -9 -22 -2 16 vhcurveto
          5 -12 3 -14 5 -12 rrcurveto
          1 12 11 5 13 hhcurveto
          7 8 -5 -1 7 hvcurveto
          7 3 3 -3 rlineto
          -3 13 15 3 13 hhcurveto
          42 40 -17 -47 -22 -34 -9 -15 -12 hvcurveto
          -74 341 -104 callsubr
        </CharString>
        <CharString name="Tcommaaccent">
          -79 callgsubr
          -140 -696 -99 callgsubr
          endchar
        </CharString>
        <CharString name="Thorn">
          -20 527 445 rmoveto
          18 -11 12 2 vvcurveto
          45 -17 27 -15 39 vhcurveto
          -11 5 -8 8 -6 10 rrcurveto
          -1 -3 -3 -1 -3 hhcurveto
          -12 -10 11 4 -11 hvcurveto
          1 -4 -72 15 -1 -7 -6 -3 -7 -10 -10 7 -12 hhcurveto
          -23 -9 -10 -7 -20 hvcurveto
          -12 -4 -12 -1 -11 -5 rrcurveto
          -3 -8 -7 -8 -9 hhcurveto
          -2 -2 1 1 -1 hvcurveto
          -1 11 -1 11 11 vvcurveto
          20 1 25 7 18 vhcurveto
          -6 19 -2 20 -2 19 rrcurveto
          12 -13 -14 12 -19 hhcurveto
          -28 -19 -39 -24 hvcurveto
          -30 -4 -30 -29 -24 7 -23 -24 -10 -4 -9 -10 vvcurveto
          1 -7 rlineto
          -3 -11 -7 -9 -11 -12 3 -10 -12 -21 -3 -21 -21 -14 3 -14 -14 -18 -9 -17 -18 -28 9 -30 -29 -18 -4 -19 -19 vvcurveto
          -32 3 -32 -2 -31 vhcurveto
          -2 -38 -11 -39 -38 vvcurveto
          -10 4 1 3 -8 vhcurveto
          2 -6 -2 -9 3 -5 6 -11 18 -7 11 -4 21 11 23 6 18 15 rrcurveto
          4 35 3 35 36 vvcurveto
          11 0 11 -1 11 vhcurveto
          25 6 19 14 24 9 6 2 7 -2 6 3 16 6 73 49 18 12 19 14 17 19 22 9 7 17 41 52 13 15 11 12 16 61 8 21 rrcurveto
          9 19 5 22 22 vvcurveto
          -101 1 rmoveto
          -34 -26 -32 -3 -37 vhcurveto
          -13 -4 -6 -15 -13 -3 rrcurveto
          -7 -3 -5 -3 -5 vhcurveto
          -35 -60 -28 -4 -57 -32 -23 -13 -23 -21 -28 -2 rrcurveto
          -1 8 -1 9 8 12 2 12 12 vvcurveto
          1 12 -4 10 11 10 6 7 8 15 -3 15 15 11 3 11 11 15 -6 15 15 vvcurveto
          21 11 20 -1 21 vhcurveto
          6 vlineto
          30 21 20 -2 27 26 13 1 13 3 9 9 42 -2 56 8 25 -42 2 -3 -1 -3 2 -3 rrcurveto
          11 -16 5 -14 -19 vvcurveto
          endchar
        </CharString>
        <CharString name="U">
          -107 callsubr
          endchar
        </CharString>
        <CharString name="Uacute">
          -107 callsubr
          -149 551 rmoveto
          25 -7 -1 -16 12 vhcurveto
          -49 callsubr
          0 -3 hhcurveto
          -26 -22 -28 -24 -4 hvcurveto
          -7 -18 -2 -22 -24 hhcurveto
          -10 -22 -15 -20 -11 -23 rrcurveto
          -7 5 -2 3 -6 -50 callgsubr
          -2 -11 9 hhcurveto
          -2 5 -56 callsubr
          hhcurveto
          5 21 6 2 4 hvcurveto
          3 -60 callsubr
          3 -57 callsubr
          rcurveline
          8 8 1 13 7 9 2 3 5 2 7 callsubr
          1 5 3 4 11 12 19 7 4 17 2 2 -66 callgsubr
          1 rrcurveto
          5 4 7 18 7 vvcurveto
          endchar
        </CharString>
        <CharString name="Ubreve">
          -107 callsubr
          -180 504 -102 callgsubr
          endchar
        </CharString>
        <CharString name="Ucircumflex">
          -107 callsubr
          -183 478 -106 callgsubr
        </CharString>
        <CharString name="Udieresis">
          -107 callsubr
          -172 489 -100 callsubr
        </CharString>
        <CharString name="Ugrave">
          43 566 303 rmoveto
          -17 -5 -24 -4 -16 vhcurveto
          -3 -11 -8 -10 -2 -11 rrcurveto
          -2 -10 2 -10 -10 vvcurveto
          -23 -11 -17 -8 -21 vhcurveto
          -3 -5 2 -6 -3 -5 rrcurveto
          -6 -10 -3 9 -16 vvcurveto
          -2 vlineto
          -7 -4 -2 -8 2 -7 -14 -13 -14 -13 -10 -16 -13 -19 -19 -14 -17 -16 rrcurveto
          -2 hlineto
          -21 -17 -6 -10 -18 hvcurveto
          2 -6 -6 1 -7 -15 -15 -6 -15 -7 -6 3 -7 -5 -4 -3 -5 hhcurveto
          -19 -12 23 -4 -29 hvcurveto
          -20 21 -40 11 -24 26 -3 4 -27 43 -2 5 -5 12 0 14 -5 13 rrcurveto
          -11 30 -14 22 35 7 3 8 7 8 -6 8 8 vvcurveto
          5 2 4 4 3 vhcurveto
          -6 11 -4 -29 callsubr
          16 8 8 5 14 vhcurveto
          -1 7 -1 7 7 17 2 16 17 14 -3 15 14 12 7 11 12 vvcurveto
          -56 callsubr
          -3 3 vhcurveto
          13 26 rlineto
          -1 6 -1 7 6 vvcurveto
          17 16 32 -1 6 vhcurveto
          4 13 6 12 3 14 rrcurveto
          2 11 11 11 11 hhcurveto
          6 11 -10 -3 5 hvcurveto
          19 -16 10 -31 -25 -28 -10 -30 -38 -8 -3 -8 -8 -10 6 -9 -10 -18 -13 -18 -19 -19 7 -19 -19 -13 -4 -12 -13 vvcurveto
          -24 7 -24 3 -23 vhcurveto
          7 -47 11 -24 27 -39 4 -5 7 -11 5 -3 4 -2 5 1 4 -2 rrcurveto
          -11 23 9 -5 26 hhcurveto
          27 -11 6 7 13 hvcurveto
          9 4 11 0 9 5 28 16 11 32 23 20 rrcurveto
          1 4 18 57 1 9 -6 7 9 19 16 14 19 11 -7 10 11 6 4 5 6 7 -7 2 8 11 3 -44 callgsubr
          12 -5 14 -4 11 vhcurveto
          8 6 7 8 vvcurveto
          21 -16 20 6 23 vhcurveto
          -18 28 -7 45 32 9 -7 3 6 8 6 6 8 vvcurveto
          1 6 -1 7 6 vvcurveto
          6 1 -38 callgsubr
          vhcurveto
          9 11 14 6 15 hhcurveto
          6 6 -1 -1 6 hvcurveto
          3 -11 16 -8 7 -10 5 -9 0 -11 4 -9 3 -8 8 -8 2 -7 rrcurveto
          2 -7 callsubr
          -7 vvcurveto
          13 -66 6 -6 rlineto
          2 -5 7 -51 -5 vvcurveto
          -3 -45 callgsubr
          -3 vhcurveto
          11 -10 -4 -22 3 -14 rrcurveto
          1 -6 5 -5 -7 -8 -3 -7 -9 -21 9 -22 -22 vvcurveto
          -418 561 rmoveto
          -7 7 -18 5 -4 vhcurveto
          -66 callgsubr
          1 2 -2 4 -17 19 -7 11 -12 3 -4 1 -5 3 -41 callsubr
          5 -2 2 -3 7 -9 1 -13 8 -8 5 -4 rcurveline
          3 -3 -1 -41 callsubr
          rrcurveto
          -2 4 21 -6 5 hhcurveto
          4 5 1 2 5 hvcurveto
          9 -2 11 2 6 hvcurveto
          -8 callgsubr
          2 7 vvcurveto
          -11 23 -15 20 -10 22 rrcurveto
          -24 -2 22 7 -18 hvcurveto
          24 -4 -22 28 -26 hhcurveto
          -3 -2 0 -1 -2 hvcurveto
          -16 -12 -7 1 -25 vvcurveto
          endchar
        </CharString>
        <CharString name="Uhungarumlaut">
          -107 callsubr
          -215 573 rmoveto
          19 -9 18 -21 -26 -22 -28 -24 -4 vhcurveto
          -58 -37 -16 -50 -15 vvcurveto
          -1 2 -22 27 -73 callgsubr
          120 hmoveto
          19 -9 18 -21 -26 -22 -28 -24 -4 vhcurveto
          -18 -7 1 -25 -23 -7 -22 -22 -8 -10 -10 -23 rrcurveto
          -4 9 -27 26 -73 callgsubr
          endchar
        </CharString>
        <CharString name="Umacron">
          -107 callsubr
          -149 474 -95 callsubr
        </CharString>
        <CharString name="Uogonek">
          43 400 -122 -76 callgsubr
          5 hvcurveto
          1 vlineto
          0 0 -1 1 vhcurveto
          10 18 17 6 21 -48 callgsubr
          17 16 19 14 13 19 10 16 14 13 14 13 -2 7 2 8 7 4 rrcurveto
          2 vlineto
          16 3 -9 6 10 vhcurveto
          3 5 -2 -38 callgsubr
          rrcurveto
          8 21 11 17 23 vvcurveto
          -38 callsubr
          2 10 vhcurveto
          2 11 8 10 3 11 rrcurveto
          4 16 5 24 17 22 -9 22 21 9 3 7 8 vvcurveto
          7 -5 5 -1 6 vhcurveto
          -3 14 4 22 -11 10 rrcurveto
          1 -46 callsubr
          3 vvcurveto
          5 -7 51 -2 5 vhcurveto
          -6 6 -13 66 rlineto
          -29 callgsubr
          -2 7 vhcurveto
          -2 7 -8 8 -3 8 -4 9 0 11 -5 9 -7 10 -16 8 -3 11 rrcurveto
          1 -6 -6 1 -6 hhcurveto
          -15 -14 -6 -9 -11 hvcurveto
          -3 -5 -1 -47 callsubr
          -1 -6 vhcurveto
          -8 -6 -6 -8 -6 7 -3 -9 vvcurveto
          -32 7 -45 18 -28 vhcurveto
          -6 -23 16 -20 -21 -8 -6 -7 -8 vvcurveto
          4 -11 5 -14 -12 -11 -3 -10 -11 -8 7 -2 -7 -6 -13 callgsubr
          -11 7 -10 -11 -19 -16 -14 -19 -9 6 -7 -9 vvcurveto
          -1 -18 -57 -1 -4 vhcurveto
          -23 -20 -11 -32 -28 -16 -9 -5 -11 0 -9 -4 rrcurveto
          -7 -13 11 -6 -27 hhcurveto
          -26 -9 5 11 -23 hvcurveto
          -54 callsubr
          -1 -54 callsubr
          3 -7 11 -4 5 -27 39 -11 24 -7 47 rrcurveto
          -3 23 -7 24 24 15 callgsubr
          19 -7 19 19 19 13 18 18 10 -6 9 10 8 3 8 8 38 10 30 28 vvcurveto
          25 -10 31 -19 16 vhcurveto
          3 -5 -11 10 -6 hhcurveto
          -11 16 callsubr
          hvcurveto
          -3 -14 -6 -12 -4 -13 rrcurveto
          1 -6 -16 -32 -17 vvcurveto
          -6 1 -7 1 -6 vhcurveto
          -13 -26 rlineto
          3 -39 callsubr
          -5 -12 -7 -11 -12 -14 3 -15 -14 -17 -2 -16 -17 vvcurveto
          -7 1 -7 1 -7 vhcurveto
          -5 -14 -8 -8 -16 vvcurveto
          -13 4 -12 6 -11 vhcurveto
          -4 -13 callsubr
          -5 -8 6 -8 -8 -7 -3 -8 -7 vvcurveto
          -35 14 -22 11 -30 vhcurveto
          5 -13 0 -14 5 -12 2 -5 27 -43 3 -4 24 -26 40 -11 20 -21 rrcurveto
          4 29 12 -23 19 -22 callgsubr
          hhcurveto
          6 hlineto
          -9 -16 -9 -16 -6 -6 rrcurveto
          -88 callgsubr
          endchar
        </CharString>
        <CharString name="Uring">
          -107 callsubr
          -202 518 -83 callsubr
        </CharString>
        <CharString name="Utilde">
          -107 callsubr
          -140 546 -101 callsubr
        </CharString>
        <CharString name="V">
          -27 503 643 rmoveto
          28 -8 14 -10 25 vhcurveto
          4 -14 -6 12 -15 hhcurveto
          -31 -3 -12 -23 -11 hvcurveto
          -8 -6 -3 -6 -10 vvcurveto
          -10 4 -10 3 -10 vhcurveto
          -1 -1 -12 -29 -2 vvcurveto
          -5 3 -1 1 -4 vhcurveto
          -6 -10 2 -39 -3 -15 -1 -8 -4 -7 -1 -8 -6 -42 10 -32 -33 -35 4 -20 -12 -11 -5 -18 -6 -20 0 -46 -7 -14 -2 -3 -2 -2 -3 -2 rrcurveto
          -2 vlineto
          -13 -3 -5 -3 -12 vhcurveto
          -2 -7 2 -9 -3 -7 -5 -11 -10 -8 -8 -10 1 -15 -3 -15 -14 -8 rrcurveto
          -11 31 -15 17 36 vvcurveto
          -15 15 2 23 -6 20 -2 7 -5 5 -3 7 rrcurveto
          -9 22 -7 24 25 vvcurveto
          -14 21 -2 14 -6 23 -3 10 -5 9 -2 10 -3 13 3 13 -3 13 -2 4 -3 4 -2 5 -2 -48 callsubr
          -2 6 -3 10 -7 9 -3 10 -3 12 1 12 -4 11 rrcurveto
          -4 10 -6 9 -3 10 -4 12 0 13 -6 11 -9 7 -3 11 -11 5 -3 6 rcurveline
          2 -5 -10 3 -6 hhcurveto
          -8 -9 -3 1 -9 hvcurveto
          -4 hlineto
          -15 -16 -7 -22 -22 -31 20 -18 -25 vvcurveto
          -3 -45 callgsubr
          -4 vhcurveto
          24 -35 -1 -38 6 -40 2 -8 10 -5 1 -13 2 -14 28 -97 6 -14 10 -23 24 -46 -2 -23 rrcurveto
          -5 vlineto
          17 -16 5 -23 1 -22 8 -8 22 -49 8 -14 -1 -11 3 -3 2 -9 rrcurveto
          -21 20 17 -27 34 hhcurveto
          2 8 5 1 2 hvcurveto
          18 8 0 -5 11 17 12 15 6 19 8 17 7 3 rcurveline
          10 20 5 22 10 20 4 7 6 5 3 7 6 13 0 16 7 13 14 24 1 30 8 27 6 6 rcurveline
          1 2 rlineto
          23 10 18 5 21 vhcurveto
          7 26 6 26 4 26 2 17 7 15 3 16 8 39 0 39 9 38 rrcurveto
          5 23 6 16 23 vvcurveto
          endchar
        </CharString>
        <CharString name="W">
          257 462 604 rmoveto
          2 13 6 -29 callsubr
          7 -4 7 -5 4 vhcurveto
          -4 14 -7 13 -6 13 rrcurveto
          2 -12 -8 11 -13 hhcurveto
          -30 -6 -15 -24 -11 hvcurveto
          -6 -6 -4 -8 -9 vvcurveto
          -8 4 -8 3 -7 vhcurveto
          -5 -25 -1 -24 -4 -25 -2 -10 -3 -10 -1 -10 -3 -43 8 -46 -30 -35 5 -18 -12 -15 -4 -17 -4 -19 2 -49 -7 -13 -2 -3 -2 -2 -3 -2 -5 -31 -3 -71 -28 -17 rrcurveto
          -8 24 -15 23 1 27 rrcurveto
          10 vlineto
          -15 15 4 23 -6 20 -9 34 -13 10 1 38 rrcurveto
          8 vlineto
          -12 20 -17 53 23 vvcurveto
          10 2 -38 callsubr
          vhcurveto
          -2 4 -3 4 -1 5 -2 -48 callsubr
          -1 6 -3 10 -6 9 -3 10 -3 12 2 12 -4 11 -2 11 -6 8 -3 10 -3 12 0 13 -5 11 -8 7 -4 11 -9 5 -3 6 rcurveline
          3 -7 -7 2 -7 -8 -7 -2 -8 hhcurveto
          -8 hlineto
          -16 -17 -8 -23 -23 -24 16 -20 -24 vvcurveto
          -5 6 callgsubr
          vhcurveto
          22 -37 -7 -36 8 -40 2 -9 8 -6 2 -11 8 -43 6 -41 15 -41 rrcurveto
          10 -26 19 -33 -27 -4 -1 -3 -4 vvcurveto
          16 -16 4 -24 -1 -21 11 -11 16 -44 8 -16 rrcurveto
          14 callsubr
          -21 18 18 -27 32 hhcurveto
          47 23 5 5 20 49 6 3 rcurveline
          10 21 3 23 11 20 3 7 6 6 3 7 6 14 -1 15 6 14 11 26 5 29 4 27 4 7 3 8 1 8 3 -13 -1 -15 10 -11 6 -27 1 -27 11 -26 rrcurveto
          6 -14 -1 -15 6 -13 3 -7 6 -6 3 -7 10 -19 3 -22 10 -20 6 -3 rcurveline
          19 -48 7 -4 45 -19 32 3 18 29 19 23 1 -38 callgsubr
          -1 6 rrcurveto
          5 vlineto
          8 17 17 46 11 11 rrcurveto
          23 4 24 16 16 vhcurveto
          -3 36 19 31 12 33 16 42 7 42 8 44 2 10 8 7 2 10 9 40 -7 37 23 38 rrcurveto
          -2 4 0 5 4 25 17 20 25 vvcurveto
          22 -8 23 -16 16 vhcurveto
          -21 -3 -11 6 -19 -11 -3 -6 rcurveline
          -10 -6 -4 -11 -8 -8 -5 -11 0 -13 -4 -12 -3 -10 -5 -10 -3 -10 -4 -12 1 -12 -2 -12 rrcurveto
          -6 -23 -16 -30 -23 vvcurveto
          -39 -10 -43 -19 -33 vhcurveto
          1 -44 -13 -11 -11 -38 -5 -19 3 -24 -15 -16 1 -33 -14 -23 -9 -30 -29 15 -2 72 -5 29 -16 10 5 59 -4 18 rrcurveto
          -3 13 -9 12 14 4 1 3 3 vvcurveto
          -19 21 -4 21 28 vvcurveto
          10 1 11 -1 11 vhcurveto
          -1 15 -6 15 16 vvcurveto
          29 2 7 -10 29 vhcurveto
          endchar
        </CharString>
        <CharString name="Wacute">
          257 462 604 rmoveto
          2 13 6 -29 callsubr
          7 -4 7 -5 4 vhcurveto
          -4 14 -7 13 -6 13 rrcurveto
          2 -12 -8 11 -13 hhcurveto
          -30 -6 -15 -24 -11 hvcurveto
          -6 -6 -4 -8 -9 vvcurveto
          -8 4 -8 3 -7 vhcurveto
          -5 -25 -1 -24 -4 -25 -2 -10 -3 -10 -1 -10 -3 -43 8 -46 -30 -35 5 -18 -12 -15 -4 -17 -4 -19 2 -49 -7 -13 -2 -3 -2 -2 -3 -2 -5 -31 -3 -71 -28 -17 rrcurveto
          -8 24 -15 23 1 27 rrcurveto
          10 vlineto
          -15 15 4 23 -6 20 -9 34 -13 10 1 38 rrcurveto
          8 vlineto
          -12 20 -17 53 23 vvcurveto
          10 2 -38 callsubr
          vhcurveto
          -2 4 -3 4 -1 5 -2 -48 callsubr
          -1 6 -3 10 -6 9 -3 10 -3 12 2 12 -4 11 -2 11 -6 8 -3 10 -3 12 0 13 -5 11 -8 7 -4 11 -9 5 -3 6 rcurveline
          3 -7 -7 2 -7 -8 -7 -2 -8 hhcurveto
          -8 hlineto
          -16 -17 -8 -23 -23 -24 16 -20 -24 vvcurveto
          -5 6 callgsubr
          vhcurveto
          22 -37 -7 -36 8 -40 2 -9 8 -6 2 -11 8 -43 6 -41 15 -41 rrcurveto
          10 -26 19 -33 -27 -4 -1 -3 -4 vvcurveto
          16 -16 4 -24 -1 -21 11 -11 16 -44 8 -16 rrcurveto
          14 callsubr
          -21 18 18 -27 32 hhcurveto
          47 23 5 5 20 49 6 3 rcurveline
          10 21 3 23 11 20 3 7 6 6 3 7 6 14 -1 15 6 14 11 26 5 29 4 27 4 7 3 8 1 8 3 -13 -1 -15 10 -11 6 -27 1 -27 11 -26 rrcurveto
          6 -14 -1 -15 6 -13 3 -7 6 -6 3 -7 10 -19 3 -22 10 -20 6 -3 rcurveline
          19 -48 7 -4 45 -19 32 3 18 29 19 23 1 -38 callgsubr
          -1 6 rrcurveto
          5 vlineto
          8 17 17 46 11 11 rrcurveto
          23 4 24 16 16 vhcurveto
          -3 36 19 31 12 33 16 42 7 42 8 44 2 10 8 7 2 10 9 40 -7 37 23 38 rrcurveto
          -2 4 0 5 4 25 17 20 25 vvcurveto
          22 -8 23 -16 16 vhcurveto
          -21 -3 -11 6 -19 -11 -3 -6 rcurveline
          -10 -6 -4 -11 -8 -8 -5 -11 0 -13 -4 -12 -3 -10 -5 -10 -3 -10 -4 -12 1 -12 -2 -12 rrcurveto
          -6 -23 -16 -30 -23 vvcurveto
          -39 -10 -43 -19 -33 vhcurveto
          1 -44 -13 -11 -11 -38 -5 -19 3 -24 -15 -16 1 -33 -14 -23 -9 -30 -29 15 -2 72 -5 29 -16 10 5 59 -4 18 rrcurveto
          -3 13 -9 12 14 4 1 3 3 vvcurveto
          -19 21 -4 21 28 vvcurveto
          10 1 11 -1 11 vhcurveto
          -1 15 -6 15 16 vvcurveto
          29 2 7 -10 29 vhcurveto
          100 310 rmoveto
          25 -7 -1 -16 12 vhcurveto
          -49 callsubr
          0 -3 hhcurveto
          -26 -22 -28 -24 -4 hvcurveto
          -7 -18 -2 -22 -24 hhcurveto
          -10 -22 -15 -20 -11 -23 rrcurveto
          -7 5 -2 3 -6 -50 callgsubr
          -2 -11 9 hhcurveto
          -2 5 -56 callsubr
          hhcurveto
          5 21 6 2 4 hvcurveto
          3 -60 callsubr
          3 -57 callsubr
          rcurveline
          8 8 1 13 7 9 2 3 5 2 7 callsubr
          1 5 3 4 11 12 19 7 4 17 2 2 -66 callgsubr
          1 rrcurveto
          5 4 7 18 7 vvcurveto
          endchar
        </CharString>
        <CharString name="Wcircumflex">
          257 462 604 rmoveto
          2 13 6 -29 callsubr
          7 -4 7 -5 4 vhcurveto
          -4 14 -7 13 -6 13 rrcurveto
          2 -12 -8 11 -13 hhcurveto
          -30 -6 -15 -24 -11 hvcurveto
          -6 -6 -4 -8 -9 vvcurveto
          -8 4 -8 3 -7 vhcurveto
          -5 -25 -1 -24 -4 -25 -2 -10 -3 -10 -1 -10 -3 -43 8 -46 -30 -35 5 -18 -12 -15 -4 -17 -4 -19 2 -49 -7 -13 -2 -3 -2 -2 -3 -2 -5 -31 -3 -71 -28 -17 rrcurveto
          -8 24 -15 23 1 27 rrcurveto
          10 vlineto
          -15 15 4 23 -6 20 -9 34 -13 10 1 38 rrcurveto
          8 vlineto
          -12 20 -17 53 23 vvcurveto
          10 2 -38 callsubr
          vhcurveto
          -2 4 -3 4 -1 5 -2 -48 callsubr
          -1 6 -3 10 -6 9 -3 10 -3 12 2 12 -4 11 -2 11 -6 8 -3 10 -3 12 0 13 -5 11 -8 7 -4 11 -9 5 -3 6 rcurveline
          3 -7 -7 2 -7 -8 -7 -2 -8 hhcurveto
          -8 hlineto
          -16 -17 -8 -23 -23 -24 16 -20 -24 vvcurveto
          -5 6 callgsubr
          vhcurveto
          22 -37 -7 -36 8 -40 2 -9 8 -6 2 -11 8 -43 6 -41 15 -41 rrcurveto
          10 -26 19 -33 -27 -4 -1 -3 -4 vvcurveto
          16 -16 4 -24 -1 -21 11 -11 16 -44 8 -16 rrcurveto
          14 callsubr
          -21 18 18 -27 32 hhcurveto
          47 23 5 5 20 49 6 3 rcurveline
          10 21 3 23 11 20 3 7 6 6 3 7 6 14 -1 15 6 14 11 26 5 29 4 27 4 7 3 8 1 8 3 -13 -1 -15 10 -11 6 -27 1 -27 11 -26 rrcurveto
          6 -14 -1 -15 6 -13 3 -7 6 -6 3 -7 10 -19 3 -22 10 -20 6 -3 rcurveline
          19 -48 7 -4 45 -19 32 3 18 29 19 23 1 -38 callgsubr
          -1 6 rrcurveto
          5 vlineto
          8 17 17 46 11 11 rrcurveto
          23 4 24 16 16 vhcurveto
          -3 36 19 31 12 33 16 42 7 42 8 44 2 10 8 7 2 10 9 40 -7 37 23 38 rrcurveto
          -2 4 0 5 4 25 17 20 25 vvcurveto
          22 -8 23 -16 16 vhcurveto
          -21 -3 -11 6 -19 -11 -3 -6 rcurveline
          -10 -6 -4 -11 -8 -8 -5 -11 0 -13 -4 -12 -3 -10 -5 -10 -3 -10 -4 -12 1 -12 -2 -12 rrcurveto
          -6 -23 -16 -30 -23 vvcurveto
          -39 -10 -43 -19 -33 vhcurveto
          1 -44 -13 -11 -11 -38 -5 -19 3 -24 -15 -16 1 -33 -14 -23 -9 -30 -29 15 -2 72 -5 29 -16 10 5 59 -4 18 rrcurveto
          -3 13 -9 12 14 4 1 3 3 vvcurveto
          -19 21 -4 21 28 vvcurveto
          10 1 11 -1 11 vhcurveto
          -1 15 -6 15 16 vvcurveto
          29 2 7 -10 29 vhcurveto
          57 187 -106 callgsubr
        </CharString>
        <CharString name="Wdieresis">
          257 462 604 rmoveto
          2 13 6 -29 callsubr
          7 -4 7 -5 4 vhcurveto
          -4 14 -7 13 -6 13 rrcurveto
          2 -12 -8 11 -13 hhcurveto
          -30 -6 -15 -24 -11 hvcurveto
          -6 -6 -4 -8 -9 vvcurveto
          -8 4 -8 3 -7 vhcurveto
          -5 -25 -1 -24 -4 -25 -2 -10 -3 -10 -1 -10 -3 -43 8 -46 -30 -35 5 -18 -12 -15 -4 -17 -4 -19 2 -49 -7 -13 -2 -3 -2 -2 -3 -2 -5 -31 -3 -71 -28 -17 rrcurveto
          -8 24 -15 23 1 27 rrcurveto
          10 vlineto
          -15 15 4 23 -6 20 -9 34 -13 10 1 38 rrcurveto
          8 vlineto
          -12 20 -17 53 23 vvcurveto
          10 2 -38 callsubr
          vhcurveto
          -2 4 -3 4 -1 5 -2 -48 callsubr
          -1 6 -3 10 -6 9 -3 10 -3 12 2 12 -4 11 -2 11 -6 8 -3 10 -3 12 0 13 -5 11 -8 7 -4 11 -9 5 -3 6 rcurveline
          3 -7 -7 2 -7 -8 -7 -2 -8 hhcurveto
          -8 hlineto
          -16 -17 -8 -23 -23 -24 16 -20 -24 vvcurveto
          -5 6 callgsubr
          vhcurveto
          22 -37 -7 -36 8 -40 2 -9 8 -6 2 -11 8 -43 6 -41 15 -41 rrcurveto
          10 -26 19 -33 -27 -4 -1 -3 -4 vvcurveto
          16 -16 4 -24 -1 -21 11 -11 16 -44 8 -16 rrcurveto
          14 callsubr
          -21 18 18 -27 32 hhcurveto
          47 23 5 5 20 49 6 3 rcurveline
          10 21 3 23 11 20 3 7 6 6 3 7 6 14 -1 15 6 14 11 26 5 29 4 27 4 7 3 8 1 8 3 -13 -1 -15 10 -11 6 -27 1 -27 11 -26 rrcurveto
          6 -14 -1 -15 6 -13 3 -7 6 -6 3 -7 10 -19 3 -22 10 -20 6 -3 rcurveline
          19 -48 7 -4 45 -19 32 3 18 29 19 23 1 -38 callgsubr
          -1 6 rrcurveto
          5 vlineto
          8 17 17 46 11 11 rrcurveto
          23 4 24 16 16 vhcurveto
          -3 36 19 31 12 33 16 42 7 42 8 44 2 10 8 7 2 10 9 40 -7 37 23 38 rrcurveto
          -2 4 0 5 4 25 17 20 25 vvcurveto
          22 -8 23 -16 16 vhcurveto
          -21 -3 -11 6 -19 -11 -3 -6 rcurveline
          -10 -6 -4 -11 -8 -8 -5 -11 0 -13 -4 -12 -3 -10 -5 -10 -3 -10 -4 -12 1 -12 -2 -12 rrcurveto
          -6 -23 -16 -30 -23 vvcurveto
          -39 -10 -43 -19 -33 vhcurveto
          1 -44 -13 -11 -11 -38 -5 -19 3 -24 -15 -16 1 -33 -14 -23 -9 -30 -29 15 -2 72 -5 29 -16 10 5 59 -4 18 rrcurveto
          -3 13 -9 12 14 4 1 3 3 vvcurveto
          -19 21 -4 21 28 vvcurveto
          10 1 11 -1 11 vhcurveto
          -1 15 -6 15 16 vvcurveto
          29 2 7 -10 29 vhcurveto
          61 205 -100 callsubr
        </CharString>
        <CharString name="Wgrave">
          257 462 604 rmoveto
          10 -29 -2 -7 -29 vvcurveto
          -16 6 -15 1 -15 vhcurveto
          1 -11 -1 -11 -10 vvcurveto
          -28 4 -21 19 -21 vhcurveto
          -3 -1 -3 -4 vvcurveto
          -14 9 -12 3 -13 vhcurveto
          4 -18 -5 -59 16 -10 5 -29 2 -72 29 -15 9 30 14 23 -1 33 15 16 -3 24 5 19 11 38 13 11 -1 44 rrcurveto
          19 33 10 43 39 vvcurveto
          23 16 30 6 23 vhcurveto
          2 12 -1 12 4 12 3 10 5 10 3 10 4 12 0 13 5 11 8 8 4 11 10 -20 callgsubr
          rcurveline
          19 11 11 -6 21 3 rrcurveto
          16 -16 8 -23 -22 -25 -17 -20 -25 vvcurveto
          -4 0 -5 2 -4 vhcurveto
          -23 -38 7 -37 -9 -40 -2 -10 -8 -7 -2 -10 -8 -44 -7 -42 -16 -42 -12 -33 -19 -31 3 -36 rrcurveto
          -16 -16 -4 -24 -23 vvcurveto
          -11 -11 -17 -46 -8 -17 rrcurveto
          -5 vlineto
          1 -6 -3 -5 -1 -6 -19 -23 -18 -29 -32 -3 -45 19 -7 4 -19 48 -6 3 rcurveline
          -10 20 -3 22 -10 19 -3 7 -6 6 -3 7 -6 13 1 15 -6 14 -11 26 -1 27 -6 27 -10 11 1 15 -3 13 -1 -8 -3 -8 -4 -7 -4 -27 -5 -29 -11 -26 rrcurveto
          -6 -14 1 -15 -6 -14 -3 -7 -6 -6 -3 -7 -11 -20 -3 -23 -10 -21 -6 -3 rcurveline
          -20 -49 -5 -5 -47 -23 rrcurveto
          -32 -18 27 21 -18 hvcurveto
          -1 8 -2 7 8 vvcurveto
          -8 16 -16 44 -11 11 1 21 -4 24 -16 16 rrcurveto
          4 1 3 4 vvcurveto
          27 -19 33 -10 26 vhcurveto
          -15 41 -6 41 -8 43 -2 11 -8 6 -2 9 -8 40 7 36 -22 37 rrcurveto
          1 5 1 4 5 24 -16 20 24 vvcurveto
          23 8 23 16 17 vhcurveto
          8 hlineto
          8 7 2 8 hhcurveto
          7 7 -2 -3 7 hvcurveto
          3 -6 9 -5 4 -11 8 -7 rlinecurve
          5 -11 0 -13 3 -12 3 -10 6 -8 2 -11 4 -11 -2 -12 3 -12 3 -10 6 -9 3 -10 1 -6 -1 -7 2 -6 1 -5 3 -4 2 -4 rrcurveto
          2 -10 -2 -10 -10 vvcurveto
          -23 17 -53 12 -20 vhcurveto
          -8 vlineto
          -1 -38 13 -10 9 -34 6 -20 -4 -23 15 -15 rrcurveto
          -10 vlineto
          -1 -27 15 -23 8 -24 28 17 3 71 5 31 3 2 2 2 2 3 7 13 -2 49 4 19 4 17 12 15 -5 18 30 35 -8 46 3 43 1 10 3 10 2 10 rrcurveto
          4 25 1 24 5 25 rrcurveto
          -3 7 -4 8 8 vvcurveto
          9 4 8 6 6 vhcurveto
          24 11 6 15 30 hhcurveto
          13 8 -11 -2 12 hvcurveto
          6 -13 7 -13 4 -14 rrcurveto
          5 -4 4 -7 -7 vvcurveto
          -13 -6 -12 -2 -13 vhcurveto
          -208 307 rmoveto
          -7 7 -18 5 -4 vhcurveto
          -66 callgsubr
          1 2 -2 4 -17 19 -7 11 -12 3 -4 1 -5 3 -41 callsubr
          5 -2 2 -3 7 -9 1 -13 8 -8 5 -4 rcurveline
          3 -3 -1 -41 callsubr
          rrcurveto
          -2 4 21 -6 5 hhcurveto
          4 5 1 2 5 hvcurveto
          9 -2 11 2 6 hvcurveto
          -8 callgsubr
          2 7 vvcurveto
          -11 23 -15 20 -10 22 rrcurveto
          -24 -2 22 7 -18 hvcurveto
          24 -4 -22 28 -26 hhcurveto
          -3 -2 0 -1 -2 hvcurveto
          -16 -12 -7 1 -25 vvcurveto
          endchar
        </CharString>
        <CharString name="X">
          -28 512 673 rmoveto
          17 -15 11 -4 16 vhcurveto
          4 -6 -7 1 -7 hhcurveto
          -18 -31 -15 -16 -9 hvcurveto
          -2 -4 1 -36 callsubr
          -6 -17 -21 -45 -12 -12 rrcurveto
          -26 vlineto
          -7 -8 -1 -13 -8 -8 -16 -18 -10 -29 -16 -14 -3 -37 -28 -17 -7 -33 -7 -4 -6 -5 -7 -4 -4 -10 3 -21 -12 -5 -6 16 -10 14 -6 16 -3 9 0 10 -4 10 rrcurveto
          -1 3 -3 3 -2 3 -2 5 1 6 -2 5 -7 16 -13 13 -6 16 -3 9 0 9 -4 8 rrcurveto
          -3 9 -7 9 9 vvcurveto
          19 -1 -9 -5 15 vhcurveto
          48 -15 11 80 -70 hhcurveto
          -8 -8 -1 -5 -6 hvcurveto
          -9 -5 -14 -43 -10 vvcurveto
          -22 11 -19 -1 -22 vhcurveto
          -8 vlineto
          6 -11 5 -12 -13 7 callgsubr
          -1 -5 vhcurveto
          13 -16 -1 -20 11 -16 5 -6 2 -1 3 -9 5 -20 -4 -22 8 -19 rrcurveto
          19 -14 36 -82 -23 vvcurveto
          9 -9 10 -8 4 -13 -13 -7 4 -15 -7 -10 -3 -37 callgsubr
          -5 -7 0 -9 -5 -7 -4 -7 -8 -5 -4 -7 -7 -11 6 2 -12 -17 -2 -43 callsubr
          rrcurveto
          -2 -18 callgsubr
          -3 -3 -3 -4 0 -6 -3 -3 -3 -3 -6 -1 -4 -3 -12 -9 0 -17 -7 -12 rrcurveto
          -11 -17 -19 -8 -24 vvcurveto
          -25 25 13 8 -13 vhcurveto
          -5 12 11 -9 14 hhcurveto
          18 6 17 9 13 hvcurveto
          3 3 4 -2 3 3 rrcurveto
          6 vlineto
          24 10 2 20 12 18 4 6 6 2 3 5 5 7 18 23 3 6 2 3 0 -46 callsubr
          rrcurveto
          10 6 6 15 14 hhcurveto
          6 -6 -3 -9 4 -7 1 -4 3 0 2 -3 3 -3 -2 -6 2 -4 14 -23 33 -12 15 -23 1 -3 -1 -4 3 -2 7 -9 12 -3 7 -8 3 -4 0 -7 3 -5 rrcurveto
          5 -8 34 -17 9 -4 8 -2 8 1 7 -2 rrcurveto
          -2 6 6 -5 7 6 4 7 5 hhcurveto
          3 2 -1 1 3 hvcurveto
          3 6 rlineto
          14 9 11 -1 20 vvcurveto
          16 -3 0 -9 11 vhcurveto
          -4 5 -1 7 -5 4 -9 10 -13 4 -10 9 -10 9 -28 34 -4 12 -9 6 -8 7 -9 6 -4 19 -17 11 -11 15 -4 6 -2 8 -4 6 -4 6 -7 3 -5 7 rrcurveto
          -4 7 -1 8 -4 7 rrcurveto
          -4 7 -9 4 9 vvcurveto
          14 19 7 27 21 15 10 38 45 55 3 29 27 20 22 59 12 31 2 5 -1 6 2 5 7 3 rcurveline
          5 8 -3 10 4 8 7 3 rcurveline
          6 21 16 34 21 vvcurveto
          endchar
        </CharString>
        <CharString name="Y">
          -98 callsubr
          endchar
        </CharString>
        <CharString name="Yacute">
          -98 callsubr
          -119 186 rmoveto
          25 -7 -1 -16 12 vhcurveto
          -49 callsubr
          0 -3 hhcurveto
          -26 -22 -28 -24 -4 hvcurveto
          -7 -18 -2 -22 -24 hhcurveto
          -10 -22 -15 -20 -11 -23 rrcurveto
          -7 5 -2 3 -6 -50 callgsubr
          -2 -11 9 hhcurveto
          -2 5 -56 callsubr
          hhcurveto
          5 21 6 2 4 hvcurveto
          3 -60 callsubr
          3 -57 callsubr
          rcurveline
          8 8 1 13 7 9 2 3 5 2 7 callsubr
          1 5 3 4 11 12 19 7 4 17 2 2 -66 callgsubr
          1 rrcurveto
          5 4 7 18 7 vvcurveto
          endchar
        </CharString>
        <CharString name="Ycircumflex">
          -98 callsubr
          -139 117 -106 callgsubr
        </CharString>
        <CharString name="Ydieresis">
          -98 callsubr
          -141 84 -100 callsubr
        </CharString>
        <CharString name="Ygrave">
          -66 470 675 rmoveto
          -1 -22 -120 -1 -2 vhcurveto
          -2 -6 -6 -4 -2 -6 -2 -7 1 -8 -2 -7 -3 -11 -16 -35 -7 -6 -4 -10 1 -12 -3 -10 -5 -17 -14 -13 -7 -15 -5 -11 1 -16 -6 -9 rrcurveto
          -4 -8 -2 9 -15 vvcurveto
          -6 -8 -3 -2 -6 vhcurveto
          -3 -8 3 -9 -3 -9 -5 -13 -11 -10 -7 -12 -2 -4 1 -36 callsubr
          -4 -8 -10 -6 -2 -9 rrcurveto
          -3 -12 4 -23 -14 -13 -4 -12 -13 -10 2 -11 -10 vvcurveto
          -9 -1 -10 -4 -8 vhcurveto
          6 -13 0 -40 -16 vvcurveto
          -19 -11 -16 -8 -15 vhcurveto
          -7 -15 -15 -9 -16 hhcurveto
          -20 -13 10 12 -15 hvcurveto
          16 -1 16 16 12 4 13 11 10 -6 0 10 vvcurveto
          10 4 13 1 10 vhcurveto
          3 26 2 26 26 10 -4 11 9 4 4 3 4 vvcurveto
          21 -40 14 -2 32 vhcurveto
          -19 14 -2 15 -11 19 -7 3 rcurveline
          -5 10 2 14 -13 2 -1 19 -8 16 -14 14 -3 22 -7 26 -12 19 -4 6 -6 4 -3 6 -4 10 1 10 -4 10 -6 3 rcurveline
          6 vlineto
          -8 17 0 25 -15 13 rrcurveto
          2 -46 callsubr
          4 14 -9 13 14 vvcurveto
          18 12 14 7 16 vhcurveto
          2 10 9 3 9 hhcurveto
          38 27 -61 -31 11 hvcurveto
          3 -10 0 -10 3 -9 rrcurveto
          5 -18 20 -44 -13 vvcurveto
          1 -3 6 -3 rlineto
          1 -2 -1 -3 -2 vvcurveto
          -5 10 -6 3 -4 vhcurveto
          10 -16 3 -20 10 -16 3 -6 25 callgsubr
          12 -16 5 -21 15 -15 27 5 58 168 -1 31 13 14 2 28 4 19 rrcurveto
          4 18 15 36 16 9 -3 9 9 vvcurveto
          9 3 4 7 6 vhcurveto
          3 7 -3 10 3 5 2 -32 callsubr
          3 4 9 2 5 6 8 rrcurveto
          3 5 -59 callsubr
          hhcurveto
          33 26 -46 -30 hvcurveto
          -9 -2 -9 -9 -3 4 -2 -5 vvcurveto
          -379 160 rmoveto
          -7 7 -18 5 -4 vhcurveto
          -66 callgsubr
          1 2 -2 4 -17 19 -7 11 -12 3 -4 1 -5 3 -41 callsubr
          5 -2 2 -3 7 -9 1 -13 8 -8 5 -4 rcurveline
          3 -3 -1 -41 callsubr
          rrcurveto
          -2 4 21 -6 5 hhcurveto
          4 5 1 2 5 hvcurveto
          9 -2 11 2 6 hvcurveto
          -8 callgsubr
          2 7 vvcurveto
          -11 23 -15 20 -10 22 rrcurveto
          -24 -2 22 7 -18 hvcurveto
          24 -4 -22 28 -26 hhcurveto
          -3 -2 0 -1 -2 hvcurveto
          -16 -12 -7 1 -25 vvcurveto
          endchar
        </CharString>
        <CharString name="Z">
          -51 485 695 rmoveto
          25 -28 4 -21 vhcurveto
          -15 -16 -5 -16 -17 -17 1 -17 hhcurveto
          -1 -33 -31 -9 -33 -7 -6 4 -7 -16 -15 -8 -18 -16 -17 2 -16 -24 -13 -15 -12 -1 -46 callgsubr
          hhcurveto
          -11 -15 -12 -16 -19 vvcurveto
          -19 12 -5 5 -16 vhcurveto
          10 -5 13 -4 6 -10 rrcurveto
          2 11 12 2 12 hhcurveto
          12 12 -2 -2 12 hvcurveto
          16 10 24 -2 18 8 rrcurveto
          -4 6 7 -1 8 22 22 11 23 hhcurveto
          6 6 6 callsubr
          -26 -41 -4 -45 -28 -43 rrcurveto
          -8 -13 -8 -13 -16 vvcurveto
          -17 -14 -7 -23 -12 -18 rrcurveto
          -3 -3 -3 -4 -21 -24 -8 1 -22 hvcurveto
          -3 vlineto
          -44 -38 -2 -59 -37 -26 -3 -13 -15 -27 -8 -11 -9 -12 -16 -4 -7 -13 -5 -8 1 -10 -3 -8 rrcurveto
          -7 -19 -17 -12 -22 vvcurveto
          -4 1 -4 1 -4 vhcurveto
          -10 14 19 -19 18 13 13 4 14 hhcurveto
          14 15 -2 2 15 hvcurveto
          2 20 6 6 27 hhcurveto
          29 28 -3 1 29 hvcurveto
          1 11 10 6 11 11 11 -4 12 hhcurveto
          39 75 3 55 27 -29 25 -25 hvcurveto
          -4 -3 -3 -3 -4 -2 3 -4 -9 -4 -6 -6 -7 -7 3 -7 -13 -13 -7 -13 -22 -2 -6 -10 hhcurveto
          1 -1 -3 2 -2 hhcurveto
          -4 -31 callgsubr
          hvcurveto
          1 -15 -15 9 -15 -3 -12 -8 -9 hhcurveto
          -4 -4 1 3 -4 hvcurveto
          13 26 17 14 3 31 15 5 -2 17 6 10 2 5 7 5 4 3 15 15 20 50 13 19 16 23 rcurveline
          8 11 18 37 3 13 10 9 8 11 5 12 6 4 rcurveline
          7 11 -2 12 12 9 2 -20 callsubr
          3 6 23 21 -6 39 28 18 rrcurveto
          5 46 39 26 67 vvcurveto
          endchar
        </CharString>
        <CharString name="Zacute">
          -51 485 695 rmoveto
          25 -28 4 -21 vhcurveto
          -15 -16 -5 -16 -17 -17 1 -17 hhcurveto
          -1 -33 -31 -9 -33 -7 -6 4 -7 -16 -15 -8 -18 -16 -17 2 -16 -24 -13 -15 -12 -1 -46 callgsubr
          hhcurveto
          -11 -15 -12 -16 -19 vvcurveto
          -19 12 -5 5 -16 vhcurveto
          10 -5 13 -4 6 -10 rrcurveto
          2 11 12 2 12 hhcurveto
          12 12 -2 -2 12 hvcurveto
          16 10 24 -2 18 8 rrcurveto
          -4 6 7 -1 8 22 22 11 23 hhcurveto
          6 6 6 callsubr
          -26 -41 -4 -45 -28 -43 rrcurveto
          -8 -13 -8 -13 -16 vvcurveto
          -17 -14 -7 -23 -12 -18 rrcurveto
          -3 -3 -3 -4 -21 -24 -8 1 -22 hvcurveto
          -3 vlineto
          -44 -38 -2 -59 -37 -26 -3 -13 -15 -27 -8 -11 -9 -12 -16 -4 -7 -13 -5 -8 1 -10 -3 -8 rrcurveto
          -7 -19 -17 -12 -22 vvcurveto
          -4 1 -4 1 -4 vhcurveto
          -10 14 19 -19 18 13 13 4 14 hhcurveto
          14 15 -2 2 15 hvcurveto
          2 20 6 6 27 hhcurveto
          29 28 -3 1 29 hvcurveto
          1 11 10 6 11 11 11 -4 12 hhcurveto
          39 75 3 55 27 -29 25 -25 hvcurveto
          -4 -3 -3 -3 -4 -2 3 -4 -9 -4 -6 -6 -7 -7 3 -7 -13 -13 -7 -13 -22 -2 -6 -10 hhcurveto
          1 -1 -3 2 -2 hhcurveto
          -4 -31 callgsubr
          hvcurveto
          1 -15 -15 9 -15 -3 -12 -8 -9 hhcurveto
          -4 -4 1 3 -4 hvcurveto
          13 26 17 14 3 31 15 5 -2 17 6 10 2 5 7 5 4 3 15 15 20 50 13 19 16 23 rcurveline
          8 11 18 37 3 13 10 9 8 11 5 12 6 4 rcurveline
          7 11 -2 12 12 9 2 -20 callsubr
          3 6 23 21 -6 39 28 18 rrcurveto
          5 46 39 26 67 vvcurveto
          -80 211 rmoveto
          25 -7 -1 -16 12 vhcurveto
          -49 callsubr
          0 -3 hhcurveto
          -26 -22 -28 -24 -4 hvcurveto
          -7 -18 -2 -22 -24 hhcurveto
          -10 -22 -15 -20 -11 -23 rrcurveto
          -7 5 -2 3 -6 -50 callgsubr
          -2 -11 9 hhcurveto
          -2 5 -56 callsubr
          hhcurveto
          5 21 6 2 4 hvcurveto
          3 -60 callsubr
          3 -57 callsubr
          rcurveline
          8 8 1 13 7 9 2 3 5 2 7 callsubr
          1 5 3 4 11 12 19 7 4 17 2 2 -66 callgsubr
          1 rrcurveto
          5 4 7 18 7 vvcurveto
          endchar
        </CharString>
        <CharString name="Zcaron">
          -51 485 695 rmoveto
          -67 -39 -26 -5 -46 vhcurveto
          -28 -18 6 -39 -23 -21 -3 -6 2 -7 -2 -6 -12 -9 2 -12 -7 -11 -6 -4 rcurveline
          -5 -12 -8 -11 -10 -9 -3 -13 -18 -37 -8 -11 -16 -23 rcurveline
          -13 -19 -20 -50 -15 -15 -4 -3 -7 -5 -2 -5 -6 -10 2 -17 -15 -5 -3 -31 -17 -14 -13 -26 rrcurveto
          -3 4 -28 callgsubr
          9 12 8 3 hhcurveto
          15 15 -9 -1 15 hvcurveto
          2 3 -46 callsubr
          hhcurveto
          2 3 -2 -1 1 hvcurveto
          10 2 6 22 13 13 7 13 7 7 -3 7 6 4 6 9 4 2 -3 4 7 callsubr
          hhcurveto
          25 29 -25 -27 -55 -75 -3 -39 hvcurveto
          -12 -11 4 -11 hhcurveto
          -11 -10 -6 -1 -11 hvcurveto
          -1 -29 -28 3 -29 hhcurveto
          -27 -6 -6 -2 -20 hvcurveto
          -2 -15 -15 2 -14 -14 -13 -4 -13 hhcurveto
          -18 -19 19 10 -14 hvcurveto
          -1 -28 callgsubr
          4 vvcurveto
          22 17 12 7 19 vhcurveto
          3 8 -1 10 5 8 7 13 16 4 9 12 8 11 15 27 3 13 37 26 2 59 44 38 rrcurveto
          3 vlineto
          -1 22 24 8 21 vvcurveto
          4 -23 callgsubr
          vhcurveto
          12 18 7 23 17 14 rrcurveto
          16 8 13 8 13 vhcurveto
          28 43 4 45 26 41 rrcurveto
          2 -6 -6 1 -6 -23 -22 -11 -22 hhcurveto
          -8 -7 1 4 -6 hvcurveto
          -18 -8 -24 2 -16 -10 rrcurveto
          2 -12 -12 2 -12 hhcurveto
          -12 -12 -2 -2 -11 hvcurveto
          -6 10 -13 4 -10 5 rrcurveto
          -5 16 -12 5 19 vvcurveto
          19 12 16 11 15 vhcurveto
          1 2 -1 1 12 13 15 24 16 17 -2 16 18 15 8 16 7 6 -4 7 hhcurveto
          33 31 9 1 33 hvcurveto
          17 17 -1 17 16 16 5 15 hhcurveto
          21 28 -4 -25 hvcurveto
          -125 185 -104 callsubr
        </CharString>
        <CharString name="Zdotaccent">
          -51 485 695 rmoveto
          25 -28 4 -21 vhcurveto
          -15 -16 -5 -16 -17 -17 1 -17 hhcurveto
          -1 -33 -31 -9 -33 -7 -6 4 -7 -16 -15 -8 -18 -16 -17 2 -16 -24 -13 -15 -12 -1 -46 callgsubr
          hhcurveto
          -11 -15 -12 -16 -19 vvcurveto
          -19 12 -5 5 -16 vhcurveto
          10 -5 13 -4 6 -10 rrcurveto
          2 11 12 2 12 hhcurveto
          12 12 -2 -2 12 hvcurveto
          16 10 24 -2 18 8 rrcurveto
          -4 6 7 -1 8 22 22 11 23 hhcurveto
          6 6 6 callsubr
          -26 -41 -4 -45 -28 -43 rrcurveto
          -8 -13 -8 -13 -16 vvcurveto
          -17 -14 -7 -23 -12 -18 rrcurveto
          -3 -3 -3 -4 -21 -24 -8 1 -22 hvcurveto
          -3 vlineto
          -44 -38 -2 -59 -37 -26 -3 -13 -15 -27 -8 -11 -9 -12 -16 -4 -7 -13 -5 -8 1 -10 -3 -8 rrcurveto
          -7 -19 -17 -12 -22 vvcurveto
          -4 1 -4 1 -4 vhcurveto
          -10 14 19 -19 18 13 13 4 14 hhcurveto
          14 15 -2 2 15 hvcurveto
          2 20 6 6 27 hhcurveto
          29 28 -3 1 29 hvcurveto
          1 11 10 6 11 11 11 -4 12 hhcurveto
          39 75 3 55 27 -29 25 -25 hvcurveto
          -4 -3 -3 -3 -4 -2 3 -4 -9 -4 -6 -6 -7 -7 3 -7 -13 -13 -7 -13 -22 -2 -6 -10 hhcurveto
          1 -1 -3 2 -2 hhcurveto
          -4 -31 callgsubr
          hvcurveto
          1 -15 -15 9 -15 -3 -12 -8 -9 hhcurveto
          -4 -4 1 3 -4 hvcurveto
          13 26 17 14 3 31 15 5 -2 17 6 10 2 5 7 5 4 3 15 15 20 50 13 19 16 23 rcurveline
          8 11 18 37 3 13 10 9 8 11 5 12 6 4 rcurveline
          7 11 -2 12 12 9 2 -20 callsubr
          3 6 23 21 -6 39 28 18 rrcurveto
          5 46 39 26 67 vvcurveto
          -183 111 -82 callsubr
        </CharString>
        <CharString name="a">
          -32 485 70 rmoveto
          -8 20 -6 20 21 19 10 12 18 18 -6 18 19 vvcurveto
          -48 callsubr
          2 6 vhcurveto
          -8 18 -5 19 19 14 7 13 14 11 -7 10 11 12 3 callgsubr
          20 -19 12 -7 18 vhcurveto
          -4 10 1 12 -4 10 rrcurveto
          14 -5 -21 28 -17 -32 callgsubr
          -31 37 10 -13 -40 8 -6 2 -4 4 -6 1 rrcurveto
          2 -13 -13 2 -13 -13 -8 -8 -13 hhcurveto
          -15 -16 4 -3 -16 hvcurveto
          -11 -3 -8 -9 -10 -4 -11 -6 -13 -2 -11 -5 -9 -15 -12 -12 -15 -9 rrcurveto
          2 -8 -5 -1 -6 9 callgsubr
          vvcurveto
          -17 -7 0 -25 -18 -7 rrcurveto
          -18 -10 -16 -17 vvcurveto
          -32 46 -23 28 7 7 1 2 6 vhcurveto
          10 10 2 15 4 14 16 22 7 28 12 24 35 -3 1 27 26 5 12 -9 16 7 13 -5 rrcurveto
          -2 8 5 -11 8 -48 callgsubr
          6 -21 26 -17 -21 vvcurveto
          -20 -31 -24 -17 -6 vhcurveto
          -5 -11 -10 -7 -8 -8 rrcurveto
          1 -6 -39 callgsubr
          hhcurveto
          -5 -1 rlineto
          -3 -5 -22 -13 -4 -18 2 -14 -12 hhcurveto
          -2 -2 0 -44 callsubr
          -9 -14 -17 -7 -9 -14 rrcurveto
          1 -16 callsubr
          -9 -5 -12 -7 hhcurveto
          -47 callgsubr
          -1 -3 hvcurveto
          -5 callsubr
          -30 callsubr
          -4 rlinecurve
          -20 -26 -29 -7 -40 vvcurveto
          -4 vlineto
          -20 -13 6 -49 -5 -22 11 -13 -1 -19 9 -13 7 -9 11 -3 8 -7 7 -7 2 -10 7 -6 rrcurveto
          5 19 48 -42 28 hhcurveto
          10 38 7 4 9 hvcurveto
          9 5 6 8 7 7 29 -2 21 39 34 8 rrcurveto
          4 -4 0 -5 -4 vvcurveto
          -51 16 30 16 -15 vhcurveto
          -10 11 5 -1 15 hhcurveto
          14 15 2 -4 14 hvcurveto
          8 9 -3 18 11 6 -3 22 9 7 4 19 rrcurveto
          -116 159 rmoveto
          -10 -25 -41 -8 -8 vhcurveto
          -8 -10 -18 -4 -3 -15 -22 -7 -24 -9 -15 -19 -12 1 -3 -4 -8 -7 rrcurveto
          3 -4 -6 0 -5 hhcurveto
          -8 -8 -1 1 -7 hvcurveto
          -16 19 -23 -5 35 vvcurveto
          27 26 13 24 -1 vhcurveto
          8 -1 18 9 8 20 10 16 rlinecurve
          -4 22 6 14 18 -48 callgsubr
          7 10 13 0 9 6 10 7 7 11 9 8 -55 callsubr
          1 3 -6 -14 -12 3 -11 -12 vvcurveto
          endchar
        </CharString>
        <CharString name="aacute">
          -33 485 70 rmoveto
          -8 20 -6 20 21 19 10 12 18 18 -6 18 19 vvcurveto
          -48 callsubr
          2 6 vhcurveto
          -8 18 -5 19 19 14 7 13 14 11 -7 10 11 12 3 callgsubr
          20 -19 12 -7 18 vhcurveto
          -4 10 1 12 -4 10 rrcurveto
          14 -5 -21 28 -17 -32 callgsubr
          -31 37 10 -13 -40 8 -6 2 -4 4 -6 1 rrcurveto
          2 -13 -13 2 -13 -13 -8 -8 -13 hhcurveto
          -15 -16 4 -3 -16 hvcurveto
          -11 -3 -8 -9 -10 -4 -11 -6 -13 -2 -11 -5 -9 -15 -12 -12 -15 -9 rrcurveto
          2 -8 -5 -1 -6 9 callgsubr
          vvcurveto
          -17 -7 0 -25 -18 -7 rrcurveto
          -18 -10 -16 -17 vvcurveto
          -32 46 -23 28 7 7 1 2 6 vhcurveto
          10 10 2 15 4 14 16 22 7 28 12 24 35 -3 1 27 26 5 12 -9 16 7 13 -5 rrcurveto
          -2 8 5 -11 8 -48 callgsubr
          6 -21 26 -17 -21 vvcurveto
          -20 -31 -24 -17 -6 vhcurveto
          -5 -11 -10 -7 -8 -8 rrcurveto
          1 -6 -39 callgsubr
          hhcurveto
          -5 -1 rlineto
          -3 -5 -22 -13 -4 -18 2 -14 -12 hhcurveto
          -2 -2 0 -44 callsubr
          -9 -14 -17 -7 -9 -14 rrcurveto
          1 -16 callsubr
          -9 -5 -12 -7 hhcurveto
          -47 callgsubr
          -1 -3 hvcurveto
          -5 callsubr
          -30 callsubr
          -4 rlinecurve
          -20 -26 -29 -7 -40 vvcurveto
          -4 vlineto
          -20 -13 6 -49 -5 -22 11 -13 -1 -19 9 -13 7 -9 11 -3 8 -7 7 -7 2 -10 7 -6 rrcurveto
          5 19 48 -42 28 hhcurveto
          10 38 7 4 9 hvcurveto
          9 5 6 8 7 7 29 -2 21 39 34 8 rrcurveto
          4 -4 0 -5 -4 vvcurveto
          -51 16 30 16 -15 vhcurveto
          -10 11 5 -1 15 hhcurveto
          14 15 2 -4 14 hvcurveto
          8 9 -3 18 11 6 -3 22 9 7 4 19 rrcurveto
          -116 159 rmoveto
          -10 -25 -41 -8 -8 vhcurveto
          -8 -10 -18 -4 -3 -15 -22 -7 -24 -9 -15 -19 -12 1 -3 -4 -8 -7 rrcurveto
          3 -4 -6 0 -5 hhcurveto
          -8 -8 -1 1 -7 hvcurveto
          -16 19 -23 -5 35 vvcurveto
          27 26 13 24 -1 vhcurveto
          8 -1 18 9 8 20 10 16 rlinecurve
          -4 22 6 14 18 -48 callgsubr
          7 10 13 0 9 6 10 7 7 11 9 8 -55 callsubr
          1 3 -6 -14 -12 3 -11 -12 vvcurveto
          17 561 rmoveto
          25 -7 -1 -16 12 vhcurveto
          -49 callsubr
          0 -3 hhcurveto
          -26 -22 -28 -24 -4 hvcurveto
          -7 -18 -2 -22 -24 hhcurveto
          -10 -22 -15 -20 -11 -23 rrcurveto
          -7 5 -2 3 -6 -50 callgsubr
          -2 -11 9 hhcurveto
          -2 5 -56 callsubr
          hhcurveto
          5 21 6 2 4 hvcurveto
          3 -60 callsubr
          3 -57 callsubr
          rcurveline
          8 8 1 13 7 9 2 3 5 2 7 callsubr
          1 5 3 4 11 12 19 7 4 17 2 2 -66 callgsubr
          1 rrcurveto
          5 4 7 18 7 vvcurveto
          endchar
        </CharString>
</ttFont>
